# MagicaVoxel @ Ephtracy

# group
g barraca_cachorro_quente

# material
mtllib barraca_cachorro_quente.mtl
usemtl palette

# normals
vn -1 0 0
vn 1 0 0
vn 0 0 1
vn 0 0 -1
vn 0 -1 0
vn 0 1 0

# texcoords
vt 0.845703 0.5
vt 0.958984 0.5

# verts
v -16 7 9
v -16 7 7
v -16 7 5
v -16 7 3
v -16 7 1
v -16 7 -1
v -16 7 -3
v -16 7 -5
v -16 7 -7
v -16 7 -8
v -16 8 7
v -16 8 5
v -16 8 3
v -16 8 1
v -16 8 -1
v -16 8 -3
v -16 8 -5
v -16 8 -7
v -16 15 9
v -16 15 -8
v -16 31 9
v -16 31 -8
v -16 32 9
v -16 32 -8
v -15 0 8
v -15 0 -7
v -15 7 8
v -15 7 7
v -15 7 5
v -15 7 3
v -15 7 1
v -15 7 -1
v -15 7 -3
v -15 7 -5
v -15 7 -7
v -15 8 7
v -15 8 5
v -15 8 3
v -15 8 1
v -15 8 -1
v -15 8 -3
v -15 8 -5
v -15 8 -7
v -14 15 2
v -14 15 -0
v -14 31 2
v -14 31 -0
v -13 7 9
v -13 7 8
v -13 7 -7
v -13 7 -8
v -13 8 9
v -13 8 8
v -13 8 -7
v -13 8 -8
v -9 6 -6
v -9 6 -7
v -9 7 9
v -9 7 8
v -9 7 -7
v -9 7 -8
v -9 8 9
v -9 8 8
v -9 8 -6
v -9 8 -7
v -9 8 -8
v -5 7 9
v -5 7 8
v -5 7 -7
v -5 7 -8
v -5 8 9
v -5 8 8
v -5 8 -7
v -5 8 -8
v -1 7 9
v -1 7 8
v -1 7 -7
v -1 7 -8
v -1 8 9
v -1 8 8
v -1 8 -7
v -1 8 -8
v 3 7 9
v 3 7 8
v 3 7 -7
v 3 7 -8
v 3 8 9
v 3 8 8
v 3 8 -7
v 3 8 -8
v 7 7 9
v 7 7 8
v 7 7 -7
v 7 7 -8
v 7 8 9
v 7 8 8
v 7 8 -7
v 7 8 -8
v 11 7 9
v 11 7 8
v 11 7 -7
v 11 7 -8
v 11 8 9
v 11 8 8
v 11 8 -7
v 11 8 -8
v 13 15 2
v 13 15 -0
v 13 31 2
v 13 31 -0
v 15 7 9
v 15 7 8
v 15 7 -7
v 15 7 -8
v 15 8 9
v 15 8 8
v 15 8 -7
v 15 8 -8
v -15 7 9
v -15 7 8
v -15 7 -7
v -15 7 -8
v -15 8 9
v -15 8 8
v -15 8 -7
v -15 8 -8
v -13 15 2
v -13 15 -0
v -13 31 2
v -13 31 -0
v -11 6 -6
v -11 6 -7
v -11 7 9
v -11 7 8
v -11 7 -7
v -11 7 -8
v -11 8 9
v -11 8 8
v -11 8 -6
v -11 8 -7
v -11 8 -8
v -7 7 9
v -7 7 8
v -7 7 -7
v -7 7 -8
v -7 8 9
v -7 8 8
v -7 8 -7
v -7 8 -8
v -3 7 9
v -3 7 8
v -3 7 -7
v -3 7 -8
v -3 8 9
v -3 8 8
v -3 8 -7
v -3 8 -8
v 1 7 9
v 1 7 8
v 1 7 -7
v 1 7 -8
v 1 8 9
v 1 8 8
v 1 8 -7
v 1 8 -8
v 5 7 9
v 5 7 8
v 5 7 -7
v 5 7 -8
v 5 8 9
v 5 8 8
v 5 8 -7
v 5 8 -8
v 9 7 9
v 9 7 8
v 9 7 -7
v 9 7 -8
v 9 8 9
v 9 8 8
v 9 8 -7
v 9 8 -8
v 13 7 9
v 13 7 8
v 13 7 -7
v 13 7 -8
v 13 8 9
v 13 8 8
v 13 8 -7
v 13 8 -8
v 14 15 2
v 14 15 -0
v 14 31 2
v 14 31 -0
v 15 0 8
v 15 0 -7
v 15 7 8
v 15 7 7
v 15 7 5
v 15 7 3
v 15 7 1
v 15 7 -1
v 15 7 -3
v 15 7 -5
v 15 7 -7
v 15 8 7
v 15 8 5
v 15 8 3
v 15 8 1
v 15 8 -1
v 15 8 -3
v 15 8 -5
v 15 8 -7
v 16 7 9
v 16 7 7
v 16 7 5
v 16 7 3
v 16 7 1
v 16 7 -1
v 16 7 -3
v 16 7 -5
v 16 7 -7
v 16 7 -8
v 16 8 7
v 16 8 5
v 16 8 3
v 16 8 1
v 16 8 -1
v 16 8 -3
v 16 8 -5
v 16 8 -7
v 16 15 9
v 16 15 -8
v 16 31 9
v 16 31 -8
v 16 32 9
v 16 32 -8
v -16 7 9
v -16 15 9
v -16 31 9
v -16 32 9
v -15 7 9
v -15 8 9
v -14 31 9
v -14 32 9
v -13 7 9
v -13 8 9
v -12 31 9
v -12 32 9
v -11 7 9
v -11 8 9
v -10 31 9
v -10 32 9
v -9 7 9
v -9 8 9
v -8 31 9
v -8 32 9
v -7 7 9
v -7 8 9
v -6 31 9
v -6 32 9
v -5 7 9
v -5 8 9
v -4 31 9
v -4 32 9
v -3 7 9
v -3 8 9
v -2 31 9
v -2 32 9
v -1 7 9
v -1 8 9
v 0 31 9
v 0 32 9
v 1 7 9
v 1 8 9
v 2 31 9
v 2 32 9
v 3 7 9
v 3 8 9
v 4 31 9
v 4 32 9
v 5 7 9
v 5 8 9
v 6 31 9
v 6 32 9
v 7 7 9
v 7 8 9
v 8 31 9
v 8 32 9
v 9 7 9
v 9 8 9
v 10 31 9
v 10 32 9
v 11 7 9
v 11 8 9
v 12 31 9
v 12 32 9
v 13 7 9
v 13 8 9
v 14 31 9
v 14 32 9
v 15 7 9
v 15 8 9
v 16 7 9
v 16 15 9
v 16 31 9
v 16 32 9
v -15 0 8
v -15 7 8
v -15 8 8
v -13 7 8
v -13 8 8
v -11 7 8
v -11 8 8
v -9 7 8
v -9 8 8
v -7 7 8
v -7 8 8
v -5 7 8
v -5 8 8
v -3 7 8
v -3 8 8
v -1 7 8
v -1 8 8
v 1 7 8
v 1 8 8
v 3 7 8
v 3 8 8
v 5 7 8
v 5 8 8
v 7 7 8
v 7 8 8
v 9 7 8
v 9 8 8
v 11 7 8
v 11 8 8
v 13 7 8
v 13 8 8
v 15 0 8
v 15 7 8
v 15 8 8
v -16 7 5
v -16 8 5
v -15 7 5
v -15 8 5
v 15 7 5
v 15 8 5
v 16 7 5
v 16 8 5
v -14 15 2
v -14 31 2
v -13 15 2
v -13 31 2
v 13 15 2
v 13 31 2
v 14 15 2
v 14 31 2
v -16 7 1
v -16 8 1
v -15 7 1
v -15 8 1
v 15 7 1
v 15 8 1
v 16 7 1
v 16 8 1
v -16 7 -3
v -16 8 -3
v -15 7 -3
v -15 8 -3
v 15 7 -3
v 15 8 -3
v 16 7 -3
v 16 8 -3
v -16 7 -7
v -16 8 -7
v -15 7 -7
v -15 8 -7
v 15 7 -7
v 15 8 -7
v 16 7 -7
v 16 8 -7
v -16 7 7
v -16 8 7
v -15 7 7
v -15 8 7
v 15 7 7
v 15 8 7
v 16 7 7
v 16 8 7
v -16 7 3
v -16 8 3
v -15 7 3
v -15 8 3
v 15 7 3
v 15 8 3
v 16 7 3
v 16 8 3
v -14 15 -0
v -14 31 -0
v -13 15 -0
v -13 31 -0
v 13 15 -0
v 13 31 -0
v 14 15 -0
v 14 31 -0
v -16 7 -1
v -16 8 -1
v -15 7 -1
v -15 8 -1
v 15 7 -1
v 15 8 -1
v 16 7 -1
v 16 8 -1
v -16 7 -5
v -16 8 -5
v -15 7 -5
v -15 8 -5
v 15 7 -5
v 15 8 -5
v 16 7 -5
v 16 8 -5
v -11 6 -6
v -11 8 -6
v -9 6 -6
v -9 8 -6
v -15 0 -7
v -15 7 -7
v -15 8 -7
v -13 7 -7
v -13 8 -7
v -11 6 -7
v -11 7 -7
v -9 6 -7
v -9 7 -7
v -7 7 -7
v -7 8 -7
v -5 7 -7
v -5 8 -7
v -3 7 -7
v -3 8 -7
v -1 7 -7
v -1 8 -7
v 1 7 -7
v 1 8 -7
v 3 7 -7
v 3 8 -7
v 5 7 -7
v 5 8 -7
v 7 7 -7
v 7 8 -7
v 9 7 -7
v 9 8 -7
v 11 7 -7
v 11 8 -7
v 13 7 -7
v 13 8 -7
v 15 0 -7
v 15 7 -7
v 15 8 -7
v -16 7 -8
v -16 15 -8
v -16 31 -8
v -16 32 -8
v -15 7 -8
v -15 8 -8
v -14 31 -8
v -14 32 -8
v -13 7 -8
v -13 8 -8
v -12 31 -8
v -12 32 -8
v -11 7 -8
v -11 8 -8
v -10 31 -8
v -10 32 -8
v -9 7 -8
v -9 8 -8
v -8 31 -8
v -8 32 -8
v -7 7 -8
v -7 8 -8
v -6 31 -8
v -6 32 -8
v -5 7 -8
v -5 8 -8
v -4 31 -8
v -4 32 -8
v -3 7 -8
v -3 8 -8
v -2 31 -8
v -2 32 -8
v -1 7 -8
v -1 8 -8
v 0 31 -8
v 0 32 -8
v 1 7 -8
v 1 8 -8
v 2 31 -8
v 2 32 -8
v 3 7 -8
v 3 8 -8
v 4 31 -8
v 4 32 -8
v 5 7 -8
v 5 8 -8
v 6 31 -8
v 6 32 -8
v 7 7 -8
v 7 8 -8
v 8 31 -8
v 8 32 -8
v 9 7 -8
v 9 8 -8
v 10 31 -8
v 10 32 -8
v 11 7 -8
v 11 8 -8
v 12 31 -8
v 12 32 -8
v 13 7 -8
v 13 8 -8
v 14 31 -8
v 14 32 -8
v 15 7 -8
v 15 8 -8
v 16 7 -8
v 16 15 -8
v 16 31 -8
v 16 32 -8
v -15 0 8
v 15 0 8
v -15 0 -7
v 15 0 -7
v -16 7 9
v -15 7 9
v -13 7 9
v -11 7 9
v -9 7 9
v -7 7 9
v -5 7 9
v -3 7 9
v -1 7 9
v 1 7 9
v 3 7 9
v 5 7 9
v 7 7 9
v 9 7 9
v 11 7 9
v 13 7 9
v 15 7 9
v 16 7 9
v -15 7 8
v -13 7 8
v -11 7 8
v -9 7 8
v -7 7 8
v -5 7 8
v -3 7 8
v -1 7 8
v 1 7 8
v 3 7 8
v 5 7 8
v 7 7 8
v 9 7 8
v 11 7 8
v 13 7 8
v 15 7 8
v -16 7 7
v -15 7 7
v 15 7 7
v 16 7 7
v -16 7 5
v -15 7 5
v 15 7 5
v 16 7 5
v -16 7 3
v -15 7 3
v 15 7 3
v 16 7 3
v -16 7 1
v -15 7 1
v 15 7 1
v 16 7 1
v -16 7 -1
v -15 7 -1
v 15 7 -1
v 16 7 -1
v -16 7 -3
v -15 7 -3
v 15 7 -3
v 16 7 -3
v -16 7 -5
v -15 7 -5
v 15 7 -5
v 16 7 -5
v -16 7 -7
v -15 7 -7
v -13 7 -7
v -11 7 -7
v -9 7 -7
v -7 7 -7
v -5 7 -7
v -3 7 -7
v -1 7 -7
v 1 7 -7
v 3 7 -7
v 5 7 -7
v 7 7 -7
v 9 7 -7
v 11 7 -7
v 13 7 -7
v 15 7 -7
v 16 7 -7
v -16 7 -8
v -15 7 -8
v -13 7 -8
v -11 7 -8
v -9 7 -8
v -7 7 -8
v -5 7 -8
v -3 7 -8
v -1 7 -8
v 1 7 -8
v 3 7 -8
v 5 7 -8
v 7 7 -8
v 9 7 -8
v 11 7 -8
v 13 7 -8
v 15 7 -8
v 16 7 -8
v -15 8 9
v -13 8 9
v -11 8 9
v -9 8 9
v -7 8 9
v -5 8 9
v -3 8 9
v -1 8 9
v 1 8 9
v 3 8 9
v 5 8 9
v 7 8 9
v 9 8 9
v 11 8 9
v 13 8 9
v 15 8 9
v -15 8 8
v -13 8 8
v -11 8 8
v -9 8 8
v -7 8 8
v -5 8 8
v -3 8 8
v -1 8 8
v 1 8 8
v 3 8 8
v 5 8 8
v 7 8 8
v 9 8 8
v 11 8 8
v 13 8 8
v 15 8 8
v -16 8 7
v -15 8 7
v 15 8 7
v 16 8 7
v -16 8 5
v -15 8 5
v 15 8 5
v 16 8 5
v -16 8 3
v -15 8 3
v 15 8 3
v 16 8 3
v -16 8 1
v -15 8 1
v 15 8 1
v 16 8 1
v -16 8 -1
v -15 8 -1
v 15 8 -1
v 16 8 -1
v -16 8 -3
v -15 8 -3
v 15 8 -3
v 16 8 -3
v -16 8 -5
v -15 8 -5
v 15 8 -5
v 16 8 -5
v -11 8 -6
v -9 8 -6
v -16 8 -7
v -15 8 -7
v -13 8 -7
v -11 8 -7
v -9 8 -7
v -7 8 -7
v -5 8 -7
v -3 8 -7
v -1 8 -7
v 1 8 -7
v 3 8 -7
v 5 8 -7
v 7 8 -7
v 9 8 -7
v 11 8 -7
v 13 8 -7
v 15 8 -7
v 16 8 -7
v -15 8 -8
v -13 8 -8
v -11 8 -8
v -9 8 -8
v -7 8 -8
v -5 8 -8
v -3 8 -8
v -1 8 -8
v 1 8 -8
v 3 8 -8
v 5 8 -8
v 7 8 -8
v 9 8 -8
v 11 8 -8
v 13 8 -8
v 15 8 -8
v -16 31 9
v -14 31 9
v -12 31 9
v -10 31 9
v -8 31 9
v -6 31 9
v -4 31 9
v -2 31 9
v 0 31 9
v 2 31 9
v 4 31 9
v 6 31 9
v 8 31 9
v 10 31 9
v 12 31 9
v 14 31 9
v 16 31 9
v -14 31 2
v -13 31 2
v 13 31 2
v 14 31 2
v -14 31 -0
v -13 31 -0
v 13 31 -0
v 14 31 -0
v -16 31 -8
v -14 31 -8
v -12 31 -8
v -10 31 -8
v -8 31 -8
v -6 31 -8
v -4 31 -8
v -2 31 -8
v 0 31 -8
v 2 31 -8
v 4 31 -8
v 6 31 -8
v 8 31 -8
v 10 31 -8
v 12 31 -8
v 14 31 -8
v 16 31 -8
v -11 6 -6
v -9 6 -6
v -11 6 -7
v -9 6 -7
v -16 15 9
v 16 15 9
v -14 15 2
v -13 15 2
v 13 15 2
v 14 15 2
v -14 15 -0
v -13 15 -0
v 13 15 -0
v 14 15 -0
v -16 15 -8
v 16 15 -8
v -16 32 9
v -14 32 9
v -12 32 9
v -10 32 9
v -8 32 9
v -6 32 9
v -4 32 9
v -2 32 9
v 0 32 9
v 2 32 9
v 4 32 9
v 6 32 9
v 8 32 9
v 10 32 9
v 12 32 9
v 14 32 9
v 16 32 9
v -16 32 -8
v -14 32 -8
v -12 32 -8
v -10 32 -8
v -8 32 -8
v -6 32 -8
v -4 32 -8
v -2 32 -8
v 0 32 -8
v 2 32 -8
v 4 32 -8
v 6 32 -8
v 8 32 -8
v 10 32 -8
v 12 32 -8
v 14 32 -8
v 16 32 -8

# faces
f 11/2/1 2/2/1 1/2/1
f 12/2/1 4/2/1 3/2/1
f 13/2/1 4/2/1 12/2/1
f 14/2/1 6/2/1 5/2/1
f 15/2/1 6/2/1 14/2/1
f 16/2/1 8/2/1 7/2/1
f 17/2/1 8/2/1 16/2/1
f 18/2/1 10/2/1 9/2/1
f 19/2/1 17/2/1 16/2/1
f 19/2/1 18/2/1 17/2/1
f 19/2/1 11/2/1 1/2/1
f 19/2/1 13/2/1 12/2/1
f 19/2/1 16/2/1 15/2/1
f 19/2/1 15/2/1 14/2/1
f 19/2/1 14/2/1 13/2/1
f 19/2/1 12/2/1 11/2/1
f 20/2/1 10/2/1 18/2/1
f 20/2/1 18/2/1 19/2/1
f 23/1/1 22/1/1 21/1/1
f 24/1/1 22/1/1 23/1/1
f 27/1/1 26/1/1 25/1/1
f 28/1/1 26/1/1 27/1/1
f 29/1/1 26/1/1 28/1/1
f 30/1/1 26/1/1 29/1/1
f 31/1/1 26/1/1 30/1/1
f 32/1/1 26/1/1 31/1/1
f 33/1/1 26/1/1 32/1/1
f 34/1/1 26/1/1 33/1/1
f 35/1/1 26/1/1 34/1/1
f 36/1/1 29/1/1 28/1/1
f 37/1/1 29/1/1 36/1/1
f 38/1/1 31/1/1 30/1/1
f 39/1/1 31/1/1 38/1/1
f 40/1/1 33/1/1 32/1/1
f 41/1/1 33/1/1 40/1/1
f 42/1/1 35/1/1 34/1/1
f 43/1/1 35/1/1 42/1/1
f 46/2/1 45/2/1 44/2/1
f 47/2/1 45/2/1 46/2/1
f 52/2/1 49/2/1 48/2/1
f 53/2/1 49/2/1 52/2/1
f 54/2/1 51/2/1 50/2/1
f 55/2/1 51/2/1 54/2/1
f 60/1/1 57/1/1 56/1/1
f 62/2/1 59/2/1 58/2/1
f 63/2/1 59/2/1 62/2/1
f 64/1/1 60/1/1 56/1/1
f 65/2/1 61/2/1 60/2/1
f 65/1/1 60/1/1 64/1/1
f 66/2/1 61/2/1 65/2/1
f 71/2/1 68/2/1 67/2/1
f 72/2/1 68/2/1 71/2/1
f 73/2/1 70/2/1 69/2/1
f 74/2/1 70/2/1 73/2/1
f 79/2/1 76/2/1 75/2/1
f 80/2/1 76/2/1 79/2/1
f 81/2/1 78/2/1 77/2/1
f 82/2/1 78/2/1 81/2/1
f 87/2/1 84/2/1 83/2/1
f 88/2/1 84/2/1 87/2/1
f 89/2/1 86/2/1 85/2/1
f 90/2/1 86/2/1 89/2/1
f 95/2/1 92/2/1 91/2/1
f 96/2/1 92/2/1 95/2/1
f 97/2/1 94/2/1 93/2/1
f 98/2/1 94/2/1 97/2/1
f 103/2/1 100/2/1 99/2/1
f 104/2/1 100/2/1 103/2/1
f 105/2/1 102/2/1 101/2/1
f 106/2/1 102/2/1 105/2/1
f 109/2/1 108/2/1 107/2/1
f 110/2/1 108/2/1 109/2/1
f 115/2/1 112/2/1 111/2/1
f 116/2/1 112/2/1 115/2/1
f 117/2/1 114/2/1 113/2/1
f 118/2/1 114/2/1 117/2/1
f 119/2/2 120/2/2 123/2/2
f 123/2/2 120/2/2 124/2/2
f 121/2/2 122/2/2 125/2/2
f 125/2/2 122/2/2 126/2/2
f 127/2/2 128/2/2 129/2/2
f 129/2/2 128/2/2 130/2/2
f 131/1/2 132/1/2 135/1/2
f 133/2/2 134/2/2 137/2/2
f 137/2/2 134/2/2 138/2/2
f 131/1/2 135/1/2 139/1/2
f 135/2/2 136/2/2 140/2/2
f 139/1/2 135/1/2 140/1/2
f 140/2/2 136/2/2 141/2/2
f 142/2/2 143/2/2 146/2/2
f 146/2/2 143/2/2 147/2/2
f 144/2/2 145/2/2 148/2/2
f 148/2/2 145/2/2 149/2/2
f 150/2/2 151/2/2 154/2/2
f 154/2/2 151/2/2 155/2/2
f 152/2/2 153/2/2 156/2/2
f 156/2/2 153/2/2 157/2/2
f 158/2/2 159/2/2 162/2/2
f 162/2/2 159/2/2 163/2/2
f 160/2/2 161/2/2 164/2/2
f 164/2/2 161/2/2 165/2/2
f 166/2/2 167/2/2 170/2/2
f 170/2/2 167/2/2 171/2/2
f 168/2/2 169/2/2 172/2/2
f 172/2/2 169/2/2 173/2/2
f 174/2/2 175/2/2 178/2/2
f 178/2/2 175/2/2 179/2/2
f 176/2/2 177/2/2 180/2/2
f 180/2/2 177/2/2 181/2/2
f 182/2/2 183/2/2 186/2/2
f 186/2/2 183/2/2 187/2/2
f 184/2/2 185/2/2 188/2/2
f 188/2/2 185/2/2 189/2/2
f 190/2/2 191/2/2 192/2/2
f 192/2/2 191/2/2 193/2/2
f 194/1/2 195/1/2 196/1/2
f 196/1/2 195/1/2 197/1/2
f 197/1/2 195/1/2 198/1/2
f 198/1/2 195/1/2 199/1/2
f 199/1/2 195/1/2 200/1/2
f 200/1/2 195/1/2 201/1/2
f 201/1/2 195/1/2 202/1/2
f 202/1/2 195/1/2 203/1/2
f 203/1/2 195/1/2 204/1/2
f 197/1/2 198/1/2 205/1/2
f 205/1/2 198/1/2 206/1/2
f 199/1/2 200/1/2 207/1/2
f 207/1/2 200/1/2 208/1/2
f 201/1/2 202/1/2 209/1/2
f 209/1/2 202/1/2 210/1/2
f 203/1/2 204/1/2 211/1/2
f 211/1/2 204/1/2 212/1/2
f 213/2/2 214/2/2 223/2/2
f 215/2/2 216/2/2 224/2/2
f 224/2/2 216/2/2 225/2/2
f 217/2/2 218/2/2 226/2/2
f 226/2/2 218/2/2 227/2/2
f 219/2/2 220/2/2 228/2/2
f 228/2/2 220/2/2 229/2/2
f 221/2/2 222/2/2 230/2/2
f 228/2/2 229/2/2 231/2/2
f 229/2/2 230/2/2 231/2/2
f 213/2/2 223/2/2 231/2/2
f 224/2/2 225/2/2 231/2/2
f 227/2/2 228/2/2 231/2/2
f 226/2/2 227/2/2 231/2/2
f 225/2/2 226/2/2 231/2/2
f 223/2/2 224/2/2 231/2/2
f 230/2/2 222/2/2 232/2/2
f 231/2/2 230/2/2 232/2/2
f 233/2/2 234/2/2 235/2/2
f 235/2/2 234/2/2 236/2/2
f 241/2/3 238/2/3 237/2/3
f 242/2/3 238/2/3 241/2/3
f 243/1/3 240/1/3 239/1/3
f 244/1/3 240/1/3 243/1/3
f 246/2/3 238/2/3 242/2/3
f 247/2/3 244/2/3 243/2/3
f 248/2/3 244/2/3 247/2/3
f 249/2/3 246/2/3 245/2/3
f 250/2/3 238/2/3 246/2/3
f 250/2/3 246/2/3 249/2/3
f 251/1/3 248/1/3 247/1/3
f 252/1/3 248/1/3 251/1/3
f 254/2/3 238/2/3 250/2/3
f 255/2/3 252/2/3 251/2/3
f 256/2/3 252/2/3 255/2/3
f 257/2/3 254/2/3 253/2/3
f 258/2/3 238/2/3 254/2/3
f 258/2/3 254/2/3 257/2/3
f 259/1/3 256/1/3 255/1/3
f 260/1/3 256/1/3 259/1/3
f 262/2/3 238/2/3 258/2/3
f 263/2/3 260/2/3 259/2/3
f 264/2/3 260/2/3 263/2/3
f 265/2/3 262/2/3 261/2/3
f 266/2/3 238/2/3 262/2/3
f 266/2/3 262/2/3 265/2/3
f 267/1/3 264/1/3 263/1/3
f 268/1/3 264/1/3 267/1/3
f 270/2/3 238/2/3 266/2/3
f 271/2/3 268/2/3 267/2/3
f 272/2/3 268/2/3 271/2/3
f 273/2/3 270/2/3 269/2/3
f 274/2/3 238/2/3 270/2/3
f 274/2/3 270/2/3 273/2/3
f 275/1/3 272/1/3 271/1/3
f 276/1/3 272/1/3 275/1/3
f 278/2/3 238/2/3 274/2/3
f 279/2/3 276/2/3 275/2/3
f 280/2/3 276/2/3 279/2/3
f 281/2/3 278/2/3 277/2/3
f 282/2/3 238/2/3 278/2/3
f 282/2/3 278/2/3 281/2/3
f 283/1/3 280/1/3 279/1/3
f 284/1/3 280/1/3 283/1/3
f 286/2/3 238/2/3 282/2/3
f 287/2/3 284/2/3 283/2/3
f 288/2/3 284/2/3 287/2/3
f 289/2/3 286/2/3 285/2/3
f 290/2/3 238/2/3 286/2/3
f 290/2/3 286/2/3 289/2/3
f 291/1/3 288/1/3 287/1/3
f 292/1/3 288/1/3 291/1/3
f 294/2/3 238/2/3 290/2/3
f 295/2/3 292/2/3 291/2/3
f 296/2/3 292/2/3 295/2/3
f 297/2/3 294/2/3 293/2/3
f 298/2/3 238/2/3 294/2/3
f 298/2/3 294/2/3 297/2/3
f 299/1/3 296/1/3 295/1/3
f 300/1/3 296/1/3 299/1/3
f 302/2/3 238/2/3 298/2/3
f 303/2/3 302/2/3 301/2/3
f 304/2/3 238/2/3 302/2/3
f 304/2/3 302/2/3 303/2/3
f 305/2/3 300/2/3 299/2/3
f 306/2/3 300/2/3 305/2/3
f 310/1/3 308/1/3 307/1/3
f 310/1/3 309/1/3 308/1/3
f 311/1/3 309/1/3 310/1/3
f 312/1/3 310/1/3 307/1/3
f 314/1/3 312/1/3 307/1/3
f 314/1/3 313/1/3 312/1/3
f 315/1/3 313/1/3 314/1/3
f 316/1/3 314/1/3 307/1/3
f 318/1/3 316/1/3 307/1/3
f 318/1/3 317/1/3 316/1/3
f 319/1/3 317/1/3 318/1/3
f 320/1/3 318/1/3 307/1/3
f 322/1/3 320/1/3 307/1/3
f 322/1/3 321/1/3 320/1/3
f 323/1/3 321/1/3 322/1/3
f 324/1/3 322/1/3 307/1/3
f 326/1/3 324/1/3 307/1/3
f 326/1/3 325/1/3 324/1/3
f 327/1/3 325/1/3 326/1/3
f 328/1/3 326/1/3 307/1/3
f 330/1/3 328/1/3 307/1/3
f 330/1/3 329/1/3 328/1/3
f 331/1/3 329/1/3 330/1/3
f 332/1/3 330/1/3 307/1/3
f 334/1/3 332/1/3 307/1/3
f 334/1/3 333/1/3 332/1/3
f 335/1/3 333/1/3 334/1/3
f 336/1/3 334/1/3 307/1/3
f 338/1/3 336/1/3 307/1/3
f 338/1/3 337/1/3 336/1/3
f 339/1/3 337/1/3 338/1/3
f 340/1/3 337/1/3 339/1/3
f 343/2/3 342/2/3 341/2/3
f 344/2/3 342/2/3 343/2/3
f 347/2/3 346/2/3 345/2/3
f 348/2/3 346/2/3 347/2/3
f 351/2/3 350/2/3 349/2/3
f 352/2/3 350/2/3 351/2/3
f 355/2/3 354/2/3 353/2/3
f 356/2/3 354/2/3 355/2/3
f 359/2/3 358/2/3 357/2/3
f 360/2/3 358/2/3 359/2/3
f 363/2/3 362/2/3 361/2/3
f 364/2/3 362/2/3 363/2/3
f 367/2/3 366/2/3 365/2/3
f 368/2/3 366/2/3 367/2/3
f 371/2/3 370/2/3 369/2/3
f 372/2/3 370/2/3 371/2/3
f 375/2/3 374/2/3 373/2/3
f 376/2/3 374/2/3 375/2/3
f 379/2/3 378/2/3 377/2/3
f 380/2/3 378/2/3 379/2/3
f 381/2/4 382/2/4 383/2/4
f 383/2/4 382/2/4 384/2/4
f 385/2/4 386/2/4 387/2/4
f 387/2/4 386/2/4 388/2/4
f 389/2/4 390/2/4 391/2/4
f 391/2/4 390/2/4 392/2/4
f 393/2/4 394/2/4 395/2/4
f 395/2/4 394/2/4 396/2/4
f 397/2/4 398/2/4 399/2/4
f 399/2/4 398/2/4 400/2/4
f 401/2/4 402/2/4 403/2/4
f 403/2/4 402/2/4 404/2/4
f 405/2/4 406/2/4 407/2/4
f 407/2/4 406/2/4 408/2/4
f 409/2/4 410/2/4 411/2/4
f 411/2/4 410/2/4 412/2/4
f 413/2/4 414/2/4 415/2/4
f 415/2/4 414/2/4 416/2/4
f 417/2/4 418/2/4 419/2/4
f 419/2/4 418/2/4 420/2/4
f 421/1/4 422/1/4 423/1/4
f 423/1/4 422/1/4 424/1/4
f 425/1/4 426/1/4 428/1/4
f 426/1/4 427/1/4 428/1/4
f 428/1/4 427/1/4 429/1/4
f 425/1/4 428/1/4 430/1/4
f 430/1/4 428/1/4 431/1/4
f 425/1/4 430/1/4 432/1/4
f 432/1/4 433/1/4 434/1/4
f 432/1/4 434/1/4 436/1/4
f 434/1/4 435/1/4 436/1/4
f 436/1/4 435/1/4 437/1/4
f 432/1/4 436/1/4 438/1/4
f 432/1/4 438/1/4 440/1/4
f 438/1/4 439/1/4 440/1/4
f 440/1/4 439/1/4 441/1/4
f 432/1/4 440/1/4 442/1/4
f 432/1/4 442/1/4 444/1/4
f 442/1/4 443/1/4 444/1/4
f 444/1/4 443/1/4 445/1/4
f 432/1/4 444/1/4 446/1/4
f 432/1/4 446/1/4 448/1/4
f 446/1/4 447/1/4 448/1/4
f 448/1/4 447/1/4 449/1/4
f 432/1/4 448/1/4 450/1/4
f 432/1/4 450/1/4 452/1/4
f 450/1/4 451/1/4 452/1/4
f 452/1/4 451/1/4 453/1/4
f 432/1/4 452/1/4 454/1/4
f 425/1/4 432/1/4 456/1/4
f 454/1/4 455/1/4 456/1/4
f 432/1/4 454/1/4 456/1/4
f 456/1/4 455/1/4 457/1/4
f 457/1/4 455/1/4 458/1/4
f 459/2/4 460/2/4 463/2/4
f 463/2/4 460/2/4 464/2/4
f 461/1/4 462/1/4 465/1/4
f 465/1/4 462/1/4 466/1/4
f 464/2/4 460/2/4 468/2/4
f 465/2/4 466/2/4 469/2/4
f 469/2/4 466/2/4 470/2/4
f 467/2/4 468/2/4 471/2/4
f 468/2/4 460/2/4 472/2/4
f 471/2/4 468/2/4 472/2/4
f 469/1/4 470/1/4 473/1/4
f 473/1/4 470/1/4 474/1/4
f 472/2/4 460/2/4 476/2/4
f 473/2/4 474/2/4 477/2/4
f 477/2/4 474/2/4 478/2/4
f 475/2/4 476/2/4 479/2/4
f 476/2/4 460/2/4 480/2/4
f 479/2/4 476/2/4 480/2/4
f 477/1/4 478/1/4 481/1/4
f 481/1/4 478/1/4 482/1/4
f 480/2/4 460/2/4 484/2/4
f 481/2/4 482/2/4 485/2/4
f 485/2/4 482/2/4 486/2/4
f 483/2/4 484/2/4 487/2/4
f 484/2/4 460/2/4 488/2/4
f 487/2/4 484/2/4 488/2/4
f 485/1/4 486/1/4 489/1/4
f 489/1/4 486/1/4 490/1/4
f 488/2/4 460/2/4 492/2/4
f 489/2/4 490/2/4 493/2/4
f 493/2/4 490/2/4 494/2/4
f 491/2/4 492/2/4 495/2/4
f 492/2/4 460/2/4 496/2/4
f 495/2/4 492/2/4 496/2/4
f 493/1/4 494/1/4 497/1/4
f 497/1/4 494/1/4 498/1/4
f 496/2/4 460/2/4 500/2/4
f 497/2/4 498/2/4 501/2/4
f 501/2/4 498/2/4 502/2/4
f 499/2/4 500/2/4 503/2/4
f 500/2/4 460/2/4 504/2/4
f 503/2/4 500/2/4 504/2/4
f 501/1/4 502/1/4 505/1/4
f 505/1/4 502/1/4 506/1/4
f 504/2/4 460/2/4 508/2/4
f 505/2/4 506/2/4 509/2/4
f 509/2/4 506/2/4 510/2/4
f 507/2/4 508/2/4 511/2/4
f 508/2/4 460/2/4 512/2/4
f 511/2/4 508/2/4 512/2/4
f 509/1/4 510/1/4 513/1/4
f 513/1/4 510/1/4 514/1/4
f 512/2/4 460/2/4 516/2/4
f 513/2/4 514/2/4 517/2/4
f 517/2/4 514/2/4 518/2/4
f 515/2/4 516/2/4 519/2/4
f 516/2/4 460/2/4 520/2/4
f 519/2/4 516/2/4 520/2/4
f 517/1/4 518/1/4 521/1/4
f 521/1/4 518/1/4 522/1/4
f 520/2/4 460/2/4 524/2/4
f 523/2/4 524/2/4 525/2/4
f 524/2/4 460/2/4 526/2/4
f 525/2/4 524/2/4 526/2/4
f 521/2/4 522/2/4 527/2/4
f 527/2/4 522/2/4 528/2/4
f 531/1/5 530/1/5 529/1/5
f 532/1/5 530/1/5 531/1/5
f 551/2/5 534/2/5 533/2/5
f 552/2/5 536/2/5 535/2/5
f 553/2/5 536/2/5 552/2/5
f 554/2/5 538/2/5 537/2/5
f 555/2/5 538/2/5 554/2/5
f 556/2/5 540/2/5 539/2/5
f 557/2/5 540/2/5 556/2/5
f 558/2/5 542/2/5 541/2/5
f 559/2/5 542/2/5 558/2/5
f 560/2/5 544/2/5 543/2/5
f 561/2/5 544/2/5 560/2/5
f 562/2/5 546/2/5 545/2/5
f 563/2/5 546/2/5 562/2/5
f 564/2/5 548/2/5 547/2/5
f 565/2/5 548/2/5 564/2/5
f 566/2/5 550/2/5 549/2/5
f 567/2/5 551/2/5 533/2/5
f 568/2/5 551/2/5 567/2/5
f 569/2/5 550/2/5 566/2/5
f 570/2/5 550/2/5 569/2/5
f 575/2/5 572/2/5 571/2/5
f 576/2/5 572/2/5 575/2/5
f 577/2/5 574/2/5 573/2/5
f 578/2/5 574/2/5 577/2/5
f 583/2/5 580/2/5 579/2/5
f 584/2/5 580/2/5 583/2/5
f 585/2/5 582/2/5 581/2/5
f 586/2/5 582/2/5 585/2/5
f 591/2/5 588/2/5 587/2/5
f 592/2/5 588/2/5 591/2/5
f 593/2/5 590/2/5 589/2/5
f 594/2/5 590/2/5 593/2/5
f 613/2/5 596/2/5 595/2/5
f 614/2/5 596/2/5 613/2/5
f 615/2/5 598/2/5 597/2/5
f 616/2/5 598/2/5 615/2/5
f 617/2/5 600/2/5 599/2/5
f 618/2/5 600/2/5 617/2/5
f 619/2/5 602/2/5 601/2/5
f 620/2/5 602/2/5 619/2/5
f 621/2/5 604/2/5 603/2/5
f 622/2/5 604/2/5 621/2/5
f 623/2/5 606/2/5 605/2/5
f 624/2/5 606/2/5 623/2/5
f 625/2/5 608/2/5 607/2/5
f 626/2/5 608/2/5 625/2/5
f 627/2/5 610/2/5 609/2/5
f 628/2/5 610/2/5 627/2/5
f 629/2/5 612/2/5 611/2/5
f 630/2/5 612/2/5 629/2/5
f 647/2/5 632/2/5 631/2/5
f 648/2/5 632/2/5 647/2/5
f 649/2/5 634/2/5 633/2/5
f 650/2/5 634/2/5 649/2/5
f 651/2/5 636/2/5 635/2/5
f 652/2/5 636/2/5 651/2/5
f 653/2/5 638/2/5 637/2/5
f 654/2/5 638/2/5 653/2/5
f 655/2/5 640/2/5 639/2/5
f 656/2/5 640/2/5 655/2/5
f 657/2/5 642/2/5 641/2/5
f 658/2/5 642/2/5 657/2/5
f 659/2/5 644/2/5 643/2/5
f 660/2/5 644/2/5 659/2/5
f 661/2/5 646/2/5 645/2/5
f 662/2/5 646/2/5 661/2/5
f 667/2/5 664/2/5 663/2/5
f 668/2/5 664/2/5 667/2/5
f 669/2/5 666/2/5 665/2/5
f 670/2/5 666/2/5 669/2/5
f 675/2/5 672/2/5 671/2/5
f 676/2/5 672/2/5 675/2/5
f 677/2/5 674/2/5 673/2/5
f 678/2/5 674/2/5 677/2/5
f 683/2/5 680/2/5 679/2/5
f 684/2/5 680/2/5 683/2/5
f 685/2/5 682/2/5 681/2/5
f 686/2/5 682/2/5 685/2/5
f 693/2/5 688/2/5 687/2/5
f 694/2/5 688/2/5 693/2/5
f 696/1/5 692/1/5 691/1/5
f 697/1/5 692/1/5 696/1/5
f 709/2/5 690/2/5 689/2/5
f 710/2/5 690/2/5 709/2/5
f 711/2/5 695/2/5 694/2/5
f 712/2/5 695/2/5 711/2/5
f 713/2/5 697/2/5 696/2/5
f 714/2/5 697/2/5 713/2/5
f 715/2/5 699/2/5 698/2/5
f 716/2/5 699/2/5 715/2/5
f 717/2/5 701/2/5 700/2/5
f 718/2/5 701/2/5 717/2/5
f 719/2/5 703/2/5 702/2/5
f 720/2/5 703/2/5 719/2/5
f 721/2/5 705/2/5 704/2/5
f 722/2/5 705/2/5 721/2/5
f 723/2/5 707/2/5 706/2/5
f 724/2/5 707/2/5 723/2/5
f 725/2/5 709/2/5 708/2/5
f 726/2/5 709/2/5 725/2/5
f 744/1/5 728/1/5 727/1/5
f 744/2/5 729/2/5 728/2/5
f 745/2/5 729/2/5 744/2/5
f 746/1/5 742/1/5 741/1/5
f 747/2/5 743/2/5 742/2/5
f 747/1/5 742/1/5 746/1/5
f 748/1/5 744/1/5 727/1/5
f 749/2/5 729/2/5 745/2/5
f 750/1/5 746/1/5 741/1/5
f 751/2/5 743/2/5 747/2/5
f 752/1/5 748/1/5 727/1/5
f 753/2/5 749/2/5 748/2/5
f 753/1/5 748/1/5 752/1/5
f 754/1/5 730/1/5 729/1/5
f 754/2/5 749/2/5 753/2/5
f 754/2/5 729/2/5 749/2/5
f 755/2/5 731/2/5 730/2/5
f 755/1/5 730/1/5 754/1/5
f 756/1/5 732/1/5 731/1/5
f 756/2/5 731/2/5 755/2/5
f 757/2/5 733/2/5 732/2/5
f 757/1/5 732/1/5 756/1/5
f 758/1/5 734/1/5 733/1/5
f 758/2/5 733/2/5 757/2/5
f 759/2/5 735/2/5 734/2/5
f 759/1/5 734/1/5 758/1/5
f 760/1/5 736/1/5 735/1/5
f 760/2/5 735/2/5 759/2/5
f 761/2/5 737/2/5 736/2/5
f 761/1/5 736/1/5 760/1/5
f 762/1/5 738/1/5 737/1/5
f 762/2/5 737/2/5 761/2/5
f 763/2/5 739/2/5 738/2/5
f 763/1/5 738/1/5 762/1/5
f 764/1/5 740/1/5 739/1/5
f 764/2/5 739/2/5 763/2/5
f 765/2/5 741/2/5 740/2/5
f 765/1/5 740/1/5 764/1/5
f 766/1/5 751/1/5 750/1/5
f 766/2/5 741/2/5 765/2/5
f 766/1/5 750/1/5 741/1/5
f 767/2/5 743/2/5 751/2/5
f 767/1/5 751/1/5 766/1/5
f 768/2/5 743/2/5 767/2/5
f 769/1/6 770/1/6 771/1/6
f 771/1/6 770/1/6 772/1/6
f 773/2/6 774/2/6 775/2/6
f 775/2/6 774/2/6 776/2/6
f 776/2/6 774/2/6 777/2/6
f 777/2/6 774/2/6 778/2/6
f 773/2/6 775/2/6 779/2/6
f 776/2/6 777/2/6 780/2/6
f 780/2/6 777/2/6 781/2/6
f 778/2/6 774/2/6 782/2/6
f 780/2/6 781/2/6 783/2/6
f 781/2/6 782/2/6 783/2/6
f 773/2/6 779/2/6 783/2/6
f 779/2/6 780/2/6 783/2/6
f 782/2/6 774/2/6 784/2/6
f 783/2/6 782/2/6 784/2/6
f 785/1/6 786/1/6 802/1/6
f 786/2/6 787/2/6 803/2/6
f 802/1/6 786/1/6 803/1/6
f 787/1/6 788/1/6 804/1/6
f 803/2/6 787/2/6 804/2/6
f 788/2/6 789/2/6 805/2/6
f 804/1/6 788/1/6 805/1/6
f 789/1/6 790/1/6 806/1/6
f 805/2/6 789/2/6 806/2/6
f 790/2/6 791/2/6 807/2/6
f 806/1/6 790/1/6 807/1/6
f 791/1/6 792/1/6 808/1/6
f 807/2/6 791/2/6 808/2/6
f 792/2/6 793/2/6 809/2/6
f 808/1/6 792/1/6 809/1/6
f 793/1/6 794/1/6 810/1/6
f 809/2/6 793/2/6 810/2/6
f 794/2/6 795/2/6 811/2/6
f 810/1/6 794/1/6 811/1/6
f 795/1/6 796/1/6 812/1/6
f 811/2/6 795/2/6 812/2/6
f 796/2/6 797/2/6 813/2/6
f 812/1/6 796/1/6 813/1/6
f 797/1/6 798/1/6 814/1/6
f 813/2/6 797/2/6 814/2/6
f 798/2/6 799/2/6 815/2/6
f 814/1/6 798/1/6 815/1/6
f 799/1/6 800/1/6 816/1/6
f 815/2/6 799/2/6 816/2/6
f 800/2/6 801/2/6 817/2/6
f 816/1/6 800/1/6 817/1/6
f 817/2/6 801/2/6 818/2/6
