# MagicaVoxel @ Ephtracy

# group
g cactus

# material
mtllib cactus.mtl
usemtl palette

# normals
vn -1 0 0
vn 1 0 0
vn 0 0 1
vn 0 0 -1
vn 0 -1 0
vn 0 1 0

# texcoords
vt 0.888672 0.5
vt 0.900391 0.5

# verts
v -3 0 3
v -3 0 2
v -3 0 1
v -3 0 -0
v -3 1 2
v -3 1 1
v -3 2 3
v -3 2 2
v -3 2 1
v -3 2 -0
v -3 3 3
v -3 3 2
v -3 3 1
v -3 3 -0
v -3 4 2
v -3 4 1
v -3 5 3
v -3 5 2
v -3 5 1
v -3 5 -0
v -3 6 3
v -3 6 2
v -3 6 1
v -3 6 -0
v -3 7 3
v -3 7 2
v -3 7 1
v -3 7 -0
v -3 8 2
v -3 8 1
v -2 7 3
v -2 7 2
v -2 7 1
v -2 7 -0
v -2 8 3
v -2 8 2
v -2 8 1
v -2 8 -0
v -1 7 3
v -1 7 2
v -1 7 1
v -1 7 -0
v -1 8 3
v -1 8 2
v -1 8 1
v -1 8 -0
v 0 0 3
v 0 0 -0
v 0 1 1
v 0 1 -0
v 0 2 3
v 0 2 2
v 0 2 1
v 0 2 -0
v 0 3 3
v 0 3 2
v 0 4 2
v 0 4 -0
v 0 5 3
v 0 5 2
v 0 5 -0
v 0 6 3
v 0 6 2
v 0 6 1
v 0 6 -0
v 0 7 3
v 0 7 2
v 0 7 1
v 0 7 -0
v 0 8 2
v 0 8 1
v -3 0 3
v -3 2 3
v -3 3 3
v -3 5 3
v -3 6 3
v -3 7 3
v -2 1 3
v -2 2 3
v -2 3 3
v -2 4 3
v -2 5 3
v -2 6 3
v -2 7 3
v -2 8 3
v -1 1 3
v -1 2 3
v -1 3 3
v -1 4 3
v -1 5 3
v -1 6 3
v -1 7 3
v -1 8 3
v 0 0 3
v 0 2 3
v 0 3 3
v 0 5 3
v 0 6 3
v 0 7 3
v -3 7 2
v -3 8 2
v -2 7 2
v -2 8 2
v -1 7 2
v -1 8 2
v 0 7 2
v 0 8 2
v -3 7 1
v -3 8 1
v -2 7 1
v -2 8 1
v -1 7 1
v -1 8 1
v 0 7 1
v 0 8 1
v -3 0 -0
v -3 2 -0
v -3 3 -0
v -3 5 -0
v -3 6 -0
v -3 7 -0
v -2 2 -0
v -2 3 -0
v -2 4 -0
v -2 5 -0
v -2 6 -0
v -2 7 -0
v -2 8 -0
v -1 1 -0
v -1 2 -0
v -1 3 -0
v -1 4 -0
v -1 5 -0
v -1 6 -0
v -1 7 -0
v -1 8 -0
v 0 0 -0
v 0 1 -0
v 0 2 -0
v 0 4 -0
v 0 5 -0
v 0 6 -0
v 0 7 -0
v -3 0 3
v 0 0 3
v -3 0 2
v -2 0 2
v -3 0 1
v -2 0 1
v -3 0 -0
v 0 0 -0
v -3 7 3
v -2 7 3
v -1 7 3
v 0 7 3
v -3 7 2
v -2 7 2
v -1 7 2
v 0 7 2
v -3 7 1
v -2 7 1
v -1 7 1
v 0 7 1
v -3 7 -0
v -2 7 -0
v -1 7 -0
v 0 7 -0
v -2 8 3
v -1 8 3
v -3 8 2
v -2 8 2
v -1 8 2
v 0 8 2
v -3 8 1
v -2 8 1
v -1 8 1
v 0 8 1
v -2 8 -0
v -1 8 -0

# faces
f 5/1/1 2/1/1 1/1/1
f 5/2/1 3/2/1 2/2/1
f 6/1/1 4/1/1 3/1/1
f 6/2/1 3/2/1 5/2/1
f 7/1/1 5/1/1 1/1/1
f 7/1/1 6/1/1 5/1/1
f 8/1/1 6/1/1 7/1/1
f 9/1/1 4/1/1 6/1/1
f 9/1/1 6/1/1 8/1/1
f 10/1/1 4/1/1 9/1/1
f 11/2/1 8/2/1 7/2/1
f 12/1/1 9/1/1 8/1/1
f 12/2/1 8/2/1 11/2/1
f 13/2/1 10/2/1 9/2/1
f 13/1/1 9/1/1 12/1/1
f 14/2/1 10/2/1 13/2/1
f 15/1/1 12/1/1 11/1/1
f 15/2/1 13/2/1 12/2/1
f 16/1/1 14/1/1 13/1/1
f 16/2/1 13/2/1 15/2/1
f 17/1/1 15/1/1 11/1/1
f 17/1/1 16/1/1 15/1/1
f 18/1/1 16/1/1 17/1/1
f 19/1/1 14/1/1 16/1/1
f 19/1/1 16/1/1 18/1/1
f 20/1/1 14/1/1 19/1/1
f 21/2/1 18/2/1 17/2/1
f 22/1/1 19/1/1 18/1/1
f 22/2/1 18/2/1 21/2/1
f 23/2/1 20/2/1 19/2/1
f 23/1/1 19/1/1 22/1/1
f 24/2/1 20/2/1 23/2/1
f 25/1/1 22/1/1 21/1/1
f 26/2/1 23/2/1 22/2/1
f 26/1/1 22/1/1 25/1/1
f 27/1/1 24/1/1 23/1/1
f 27/2/1 23/2/1 26/2/1
f 28/1/1 24/1/1 27/1/1
f 29/1/1 27/1/1 26/1/1
f 30/1/1 27/1/1 29/1/1
f 35/1/1 32/1/1 31/1/1
f 36/1/1 32/1/1 35/1/1
f 37/1/1 34/1/1 33/1/1
f 38/1/1 34/1/1 37/1/1
f 39/1/2 40/1/2 43/1/2
f 43/1/2 40/1/2 44/1/2
f 41/1/2 42/1/2 45/1/2
f 45/1/2 42/1/2 46/1/2
f 47/1/2 48/1/2 49/1/2
f 49/1/2 48/1/2 50/1/2
f 47/1/2 49/1/2 51/1/2
f 51/1/2 49/1/2 52/1/2
f 49/2/2 50/2/2 53/2/2
f 52/1/2 49/1/2 53/1/2
f 53/2/2 50/2/2 54/2/2
f 51/2/2 52/2/2 55/2/2
f 52/1/2 53/1/2 56/1/2
f 55/2/2 52/2/2 56/2/2
f 53/1/2 54/1/2 56/1/2
f 55/1/2 56/1/2 57/1/2
f 56/1/2 54/1/2 57/1/2
f 57/1/2 54/1/2 58/1/2
f 55/1/2 57/1/2 59/1/2
f 57/2/2 58/2/2 60/2/2
f 59/1/2 57/1/2 60/1/2
f 60/2/2 58/2/2 61/2/2
f 59/2/2 60/2/2 62/2/2
f 60/1/2 61/1/2 63/1/2
f 62/2/2 60/2/2 63/2/2
f 63/1/2 61/1/2 64/1/2
f 64/1/2 61/1/2 65/1/2
f 62/1/2 63/1/2 66/1/2
f 63/1/2 64/1/2 66/1/2
f 66/1/2 64/1/2 67/1/2
f 64/2/2 65/2/2 68/2/2
f 67/1/2 64/1/2 68/1/2
f 68/2/2 65/2/2 69/2/2
f 67/1/2 68/1/2 70/1/2
f 70/1/2 68/1/2 71/1/2
f 78/1/3 73/1/3 72/1/3
f 79/2/3 74/2/3 73/2/3
f 79/1/3 73/1/3 78/1/3
f 80/1/3 75/1/3 74/1/3
f 80/2/3 74/2/3 79/2/3
f 81/1/3 75/1/3 80/1/3
f 82/2/3 76/2/3 75/2/3
f 82/1/3 75/1/3 81/1/3
f 83/1/3 77/1/3 76/1/3
f 83/2/3 76/2/3 82/2/3
f 84/1/3 77/1/3 83/1/3
f 86/1/3 78/1/3 72/1/3
f 86/2/3 79/2/3 78/2/3
f 87/1/3 81/1/3 80/1/3
f 87/2/3 79/2/3 86/2/3
f 87/1/3 80/1/3 79/1/3
f 88/1/3 81/1/3 87/1/3
f 89/2/3 82/2/3 81/2/3
f 89/1/3 81/1/3 88/1/3
f 90/1/3 85/1/3 84/1/3
f 90/2/3 82/2/3 89/2/3
f 90/1/3 84/1/3 83/1/3
f 90/1/3 83/1/3 82/1/3
f 91/1/3 85/1/3 90/1/3
f 92/1/3 85/1/3 91/1/3
f 93/1/3 85/1/3 92/1/3
f 94/1/3 87/1/3 86/1/3
f 94/1/3 86/1/3 72/1/3
f 95/2/3 88/2/3 87/2/3
f 95/1/3 87/1/3 94/1/3
f 96/1/3 89/1/3 88/1/3
f 96/2/3 88/2/3 95/2/3
f 96/1/3 90/1/3 89/1/3
f 97/2/3 91/2/3 90/2/3
f 97/1/3 90/1/3 96/1/3
f 98/1/3 92/1/3 91/1/3
f 98/2/3 91/2/3 97/2/3
f 99/1/3 92/1/3 98/1/3
f 102/1/3 101/1/3 100/1/3
f 103/1/3 101/1/3 102/1/3
f 106/1/3 105/1/3 104/1/3
f 107/1/3 105/1/3 106/1/3
f 108/1/4 109/1/4 110/1/4
f 110/1/4 109/1/4 111/1/4
f 112/1/4 113/1/4 114/1/4
f 114/1/4 113/1/4 115/1/4
f 116/1/4 117/1/4 122/1/4
f 117/2/4 118/2/4 122/2/4
f 118/1/4 119/1/4 123/1/4
f 122/2/4 118/2/4 123/2/4
f 123/1/4 119/1/4 124/1/4
f 119/2/4 120/2/4 125/2/4
f 124/1/4 119/1/4 125/1/4
f 120/1/4 121/1/4 126/1/4
f 125/2/4 120/2/4 126/2/4
f 126/1/4 121/1/4 127/1/4
f 116/1/4 122/1/4 129/1/4
f 122/1/4 123/1/4 129/1/4
f 129/1/4 123/1/4 130/1/4
f 123/2/4 124/2/4 131/2/4
f 130/1/4 123/1/4 131/1/4
f 124/1/4 125/1/4 132/1/4
f 131/2/4 124/2/4 132/2/4
f 127/1/4 128/1/4 132/1/4
f 126/1/4 127/1/4 132/1/4
f 125/1/4 126/1/4 132/1/4
f 132/1/4 128/1/4 133/1/4
f 133/1/4 128/1/4 134/1/4
f 134/1/4 128/1/4 135/1/4
f 135/1/4 128/1/4 136/1/4
f 116/1/4 129/1/4 137/1/4
f 129/2/4 130/2/4 138/2/4
f 137/1/4 129/1/4 138/1/4
f 130/1/4 131/1/4 139/1/4
f 138/2/4 130/2/4 139/2/4
f 131/1/4 132/1/4 139/1/4
f 132/2/4 133/2/4 140/2/4
f 139/1/4 132/1/4 140/1/4
f 133/1/4 134/1/4 141/1/4
f 140/2/4 133/2/4 141/2/4
f 134/2/4 135/2/4 142/2/4
f 141/1/4 134/1/4 142/1/4
f 142/2/4 135/2/4 143/2/4
f 146/1/5 145/1/5 144/1/5
f 147/1/5 145/1/5 146/1/5
f 148/2/5 147/2/5 146/2/5
f 149/1/5 145/1/5 147/1/5
f 149/2/5 147/2/5 148/2/5
f 150/1/5 149/1/5 148/1/5
f 151/1/5 145/1/5 149/1/5
f 151/1/5 149/1/5 150/1/5
f 152/1/6 153/1/6 156/1/6
f 156/1/6 153/1/6 157/1/6
f 154/1/6 155/1/6 158/1/6
f 158/1/6 155/1/6 159/1/6
f 160/1/6 161/1/6 164/1/6
f 164/1/6 161/1/6 165/1/6
f 162/2/6 163/2/6 166/2/6
f 166/2/6 163/2/6 167/2/6
f 168/1/6 169/1/6 171/1/6
f 171/1/6 169/1/6 172/1/6
f 170/1/6 171/1/6 174/1/6
f 172/1/6 173/1/6 174/1/6
f 171/1/6 172/1/6 174/1/6
f 174/1/6 173/1/6 175/1/6
f 175/1/6 173/1/6 176/1/6
f 176/1/6 173/1/6 177/1/6
f 175/1/6 176/1/6 178/1/6
f 178/1/6 176/1/6 179/1/6
