# MagicaVoxel @ Ephtracy

# group
g girassol

# material
mtllib girassol.mtl
usemtl palette

# normals
vn -1 0 0
vn 1 0 0
vn 0 0 1
vn 0 0 -1
vn 0 -1 0
vn 0 1 0

# texcoords
vt 0.0214844 0.5
vt 0.396484 0.5
vt 0.876953 0.5
vt 0.900391 0.5

# verts
v -4.5 4 1.5
v -4.5 4 0.5
v -4.5 5 1.5
v -4.5 5 0.5
v -4.5 8 2.5
v -4.5 8 1.5
v -4.5 9 2.5
v -4.5 9 1.5
v -4.5 10 2.5
v -4.5 10 1.5
v -4.5 11 2.5
v -4.5 11 1.5
v -4.5 12 2.5
v -4.5 12 1.5
v -4.5 13 2.5
v -4.5 13 1.5
v -3.5 3 1.5
v -3.5 3 0.5
v -3.5 4 1.5
v -3.5 4 0.5
v -3.5 7 2.5
v -3.5 7 0.5
v -3.5 8 2.5
v -3.5 8 1.5
v -3.5 9 2.5
v -3.5 9 1.5
v -3.5 10 2.5
v -3.5 10 1.5
v -3.5 11 2.5
v -3.5 11 1.5
v -3.5 12 2.5
v -3.5 12 1.5
v -3.5 13 1.5
v -3.5 13 0.5
v -2.5 6 2.5
v -2.5 6 1.5
v -2.5 7 2.5
v -2.5 7 1.5
v -2.5 13 2.5
v -2.5 13 1.5
v -2.5 14 2.5
v -2.5 14 1.5
v -1.5 0 1.5
v -1.5 0 0.5
v -1.5 3 1.5
v -1.5 3 0.5
v -1.5 4 1.5
v -1.5 4 0.5
v -1.5 6 1.5
v -1.5 7 1.5
v -1.5 7 0.5
v -0.5 6 2.5
v -0.5 6 1.5
v -0.5 7 2.5
v -0.5 7 1.5
v -0.5 13 2.5
v -0.5 13 1.5
v -0.5 14 2.5
v -0.5 14 1.5
v 1.5 2 1.5
v 1.5 2 0.5
v 1.5 3 1.5
v 1.5 3 0.5
v 1.5 6 2.5
v 1.5 6 1.5
v 1.5 7 2.5
v 1.5 7 1.5
v 1.5 13 2.5
v 1.5 13 1.5
v 1.5 14 2.5
v 1.5 14 1.5
v -2.5 4 1.5
v -2.5 4 0.5
v -2.5 5 1.5
v -2.5 5 0.5
v -1.5 6 2.5
v -1.5 6 1.5
v -1.5 7 2.5
v -1.5 7 1.5
v -1.5 13 2.5
v -1.5 13 1.5
v -1.5 14 2.5
v -1.5 14 1.5
v 0.5 0 1.5
v 0.5 0 0.5
v 0.5 1 1.5
v 0.5 1 0.5
v 0.5 2 1.5
v 0.5 2 0.5
v 0.5 6 2.5
v 0.5 6 1.5
v 0.5 7 2.5
v 0.5 7 1.5
v 0.5 7 0.5
v 0.5 13 2.5
v 0.5 13 1.5
v 0.5 14 2.5
v 0.5 14 1.5
v 2.5 1 1.5
v 2.5 1 0.5
v 2.5 2 1.5
v 2.5 2 0.5
v 2.5 6 2.5
v 2.5 6 1.5
v 2.5 7 2.5
v 2.5 7 1.5
v 2.5 7 0.5
v 2.5 8 2.5
v 2.5 8 1.5
v 2.5 9 2.5
v 2.5 9 1.5
v 2.5 10 2.5
v 2.5 10 1.5
v 2.5 11 2.5
v 2.5 11 1.5
v 2.5 12 2.5
v 2.5 12 1.5
v 2.5 13 1.5
v 2.5 13 0.5
v 2.5 14 2.5
v 2.5 14 1.5
v 3.5 2 1.5
v 3.5 2 0.5
v 3.5 3 1.5
v 3.5 3 0.5
v 3.5 7 2.5
v 3.5 7 1.5
v 3.5 8 2.5
v 3.5 8 1.5
v 3.5 9 2.5
v 3.5 9 1.5
v 3.5 10 2.5
v 3.5 10 1.5
v 3.5 11 2.5
v 3.5 11 1.5
v 3.5 12 2.5
v 3.5 12 1.5
v -4.5 8 2.5
v -4.5 9 2.5
v -4.5 10 2.5
v -4.5 11 2.5
v -4.5 12 2.5
v -4.5 13 2.5
v -3.5 7 2.5
v -3.5 8 2.5
v -3.5 9 2.5
v -3.5 10 2.5
v -3.5 11 2.5
v -3.5 12 2.5
v -2.5 6 2.5
v -2.5 7 2.5
v -2.5 8 2.5
v -2.5 9 2.5
v -2.5 10 2.5
v -2.5 11 2.5
v -2.5 12 2.5
v -2.5 13 2.5
v -2.5 14 2.5
v -1.5 6 2.5
v -1.5 7 2.5
v -1.5 8 2.5
v -1.5 9 2.5
v -1.5 10 2.5
v -1.5 11 2.5
v -1.5 12 2.5
v -1.5 13 2.5
v -1.5 14 2.5
v -0.5 6 2.5
v -0.5 7 2.5
v -0.5 8 2.5
v -0.5 9 2.5
v -0.5 10 2.5
v -0.5 11 2.5
v -0.5 12 2.5
v -0.5 13 2.5
v -0.5 14 2.5
v 0.5 6 2.5
v 0.5 7 2.5
v 0.5 8 2.5
v 0.5 9 2.5
v 0.5 10 2.5
v 0.5 11 2.5
v 0.5 12 2.5
v 0.5 13 2.5
v 0.5 14 2.5
v 1.5 6 2.5
v 1.5 7 2.5
v 1.5 8 2.5
v 1.5 9 2.5
v 1.5 10 2.5
v 1.5 11 2.5
v 1.5 12 2.5
v 1.5 13 2.5
v 1.5 14 2.5
v 2.5 6 2.5
v 2.5 7 2.5
v 2.5 8 2.5
v 2.5 9 2.5
v 2.5 10 2.5
v 2.5 11 2.5
v 2.5 12 2.5
v 2.5 14 2.5
v 3.5 7 2.5
v 3.5 8 2.5
v 3.5 9 2.5
v 3.5 10 2.5
v 3.5 11 2.5
v 3.5 12 2.5
v -4.5 4 1.5
v -4.5 5 1.5
v -3.5 3 1.5
v -3.5 4 1.5
v -2.5 4 1.5
v -2.5 5 1.5
v -1.5 0 1.5
v -1.5 3 1.5
v -1.5 4 1.5
v -1.5 6 1.5
v -1.5 7 1.5
v -0.5 6 1.5
v -0.5 7 1.5
v 0.5 0 1.5
v 0.5 1 1.5
v 0.5 2 1.5
v 0.5 6 1.5
v 1.5 2 1.5
v 1.5 3 1.5
v 2.5 1 1.5
v 2.5 2 1.5
v 3.5 2 1.5
v 3.5 3 1.5
v -4.5 8 1.5
v -4.5 9 1.5
v -4.5 10 1.5
v -4.5 11 1.5
v -4.5 12 1.5
v -4.5 13 1.5
v -3.5 8 1.5
v -3.5 9 1.5
v -3.5 10 1.5
v -3.5 11 1.5
v -3.5 12 1.5
v -3.5 13 1.5
v -2.5 6 1.5
v -2.5 7 1.5
v -2.5 13 1.5
v -2.5 14 1.5
v -1.5 6 1.5
v -1.5 7 1.5
v -1.5 13 1.5
v -1.5 14 1.5
v -0.5 13 1.5
v -0.5 14 1.5
v 0.5 13 1.5
v 0.5 14 1.5
v 1.5 6 1.5
v 1.5 7 1.5
v 1.5 13 1.5
v 1.5 14 1.5
v 2.5 6 1.5
v 2.5 7 1.5
v 2.5 8 1.5
v 2.5 9 1.5
v 2.5 10 1.5
v 2.5 11 1.5
v 2.5 12 1.5
v 2.5 13 1.5
v 2.5 14 1.5
v 3.5 7 1.5
v 3.5 8 1.5
v 3.5 9 1.5
v 3.5 10 1.5
v 3.5 11 1.5
v 3.5 12 1.5
v -4.5 4 0.5
v -4.5 5 0.5
v -3.5 3 0.5
v -3.5 4 0.5
v -3.5 7 0.5
v -3.5 13 0.5
v -2.5 4 0.5
v -2.5 5 0.5
v -1.5 0 0.5
v -1.5 3 0.5
v -1.5 4 0.5
v -1.5 7 0.5
v -1.5 11 0.5
v 0.5 0 0.5
v 0.5 1 0.5
v 0.5 2 0.5
v 0.5 7 0.5
v 0.5 11 0.5
v 1.5 2 0.5
v 1.5 3 0.5
v 2.5 1 0.5
v 2.5 2 0.5
v 2.5 7 0.5
v 2.5 13 0.5
v 3.5 2 0.5
v 3.5 3 0.5
v -1.5 0 1.5
v 0.5 0 1.5
v -1.5 0 0.5
v 0.5 0 0.5
v 0.5 1 1.5
v 2.5 1 1.5
v 0.5 1 0.5
v 2.5 1 0.5
v 2.5 2 1.5
v 3.5 2 1.5
v 2.5 2 0.5
v 3.5 2 0.5
v -3.5 3 1.5
v -1.5 3 1.5
v -3.5 3 0.5
v -1.5 3 0.5
v -4.5 4 1.5
v -3.5 4 1.5
v -4.5 4 0.5
v -3.5 4 0.5
v -2.5 6 2.5
v -1.5 6 2.5
v -0.5 6 2.5
v 0.5 6 2.5
v 1.5 6 2.5
v 2.5 6 2.5
v -2.5 6 1.5
v -1.5 6 1.5
v -0.5 6 1.5
v 0.5 6 1.5
v 1.5 6 1.5
v 2.5 6 1.5
v -3.5 7 2.5
v -2.5 7 2.5
v -1.5 7 2.5
v -0.5 7 2.5
v 0.5 7 2.5
v 1.5 7 2.5
v 2.5 7 2.5
v 3.5 7 2.5
v -2.5 7 1.5
v -1.5 7 1.5
v -0.5 7 1.5
v 0.5 7 1.5
v 1.5 7 1.5
v 2.5 7 1.5
v 3.5 7 1.5
v -3.5 7 0.5
v -1.5 7 0.5
v 0.5 7 0.5
v 2.5 7 0.5
v -4.5 8 2.5
v -3.5 8 2.5
v -4.5 8 1.5
v -3.5 8 1.5
v 2.5 9 2.5
v 3.5 9 2.5
v 2.5 9 1.5
v 3.5 9 1.5
v -4.5 10 2.5
v -3.5 10 2.5
v -4.5 10 1.5
v -3.5 10 1.5
v 2.5 11 2.5
v 3.5 11 2.5
v 2.5 11 1.5
v 3.5 11 1.5
v -4.5 12 2.5
v -3.5 12 2.5
v -4.5 12 1.5
v -3.5 12 1.5
v 0.5 2 1.5
v 1.5 2 1.5
v 0.5 2 0.5
v 1.5 2 0.5
v 1.5 3 1.5
v 3.5 3 1.5
v 1.5 3 0.5
v 3.5 3 0.5
v -2.5 4 1.5
v -1.5 4 1.5
v -2.5 4 0.5
v -1.5 4 0.5
v -4.5 5 1.5
v -2.5 5 1.5
v -4.5 5 0.5
v -2.5 5 0.5
v 2.5 8 2.5
v 3.5 8 2.5
v 2.5 8 1.5
v 3.5 8 1.5
v -4.5 9 2.5
v -3.5 9 2.5
v -4.5 9 1.5
v -3.5 9 1.5
v 2.5 10 2.5
v 3.5 10 2.5
v 2.5 10 1.5
v 3.5 10 1.5
v -4.5 11 2.5
v -3.5 11 2.5
v -4.5 11 1.5
v -3.5 11 1.5
v 2.5 12 2.5
v 3.5 12 2.5
v 2.5 12 1.5
v 3.5 12 1.5
v -4.5 13 2.5
v -2.5 13 2.5
v -1.5 13 2.5
v -0.5 13 2.5
v 0.5 13 2.5
v 1.5 13 2.5
v -4.5 13 1.5
v -3.5 13 1.5
v -2.5 13 1.5
v -1.5 13 1.5
v -0.5 13 1.5
v 0.5 13 1.5
v 1.5 13 1.5
v 2.5 13 1.5
v -3.5 13 0.5
v 2.5 13 0.5
v -2.5 14 2.5
v -1.5 14 2.5
v -0.5 14 2.5
v 0.5 14 2.5
v 1.5 14 2.5
v 2.5 14 2.5
v -2.5 14 1.5
v -1.5 14 1.5
v -0.5 14 1.5
v 0.5 14 1.5
v 1.5 14 1.5
v 2.5 14 1.5

# faces
f 3/4/1 2/4/1 1/4/1
f 4/4/1 2/4/1 3/4/1
f 7/1/1 6/1/1 5/1/1
f 8/1/1 6/1/1 7/1/1
f 11/1/1 10/1/1 9/1/1
f 12/1/1 10/1/1 11/1/1
f 15/1/1 14/1/1 13/1/1
f 16/1/1 14/1/1 15/1/1
f 19/4/1 18/4/1 17/4/1
f 20/4/1 18/4/1 19/4/1
f 23/1/1 22/1/1 21/1/1
f 24/1/1 22/1/1 23/1/1
f 26/1/1 22/1/1 24/1/1
f 27/1/1 26/1/1 25/1/1
f 28/1/1 22/1/1 26/1/1
f 28/1/1 26/1/1 27/1/1
f 30/1/1 22/1/1 28/1/1
f 31/1/1 30/1/1 29/1/1
f 32/1/1 22/1/1 30/1/1
f 32/1/1 30/1/1 31/1/1
f 33/1/1 22/1/1 32/1/1
f 34/1/1 22/1/1 33/1/1
f 37/1/1 36/1/1 35/1/1
f 38/1/1 36/1/1 37/1/1
f 41/1/1 40/1/1 39/1/1
f 42/1/1 40/1/1 41/1/1
f 45/4/1 44/4/1 43/4/1
f 46/4/1 44/4/1 45/4/1
f 49/4/1 48/4/1 47/4/1
f 50/4/1 48/4/1 49/4/1
f 51/4/1 48/4/1 50/4/1
f 54/1/1 53/1/1 52/1/1
f 55/1/1 53/1/1 54/1/1
f 58/1/1 57/1/1 56/1/1
f 59/1/1 57/1/1 58/1/1
f 62/4/1 61/4/1 60/4/1
f 63/4/1 61/4/1 62/4/1
f 66/1/1 65/1/1 64/1/1
f 67/1/1 65/1/1 66/1/1
f 70/1/1 69/1/1 68/1/1
f 71/1/1 69/1/1 70/1/1
f 72/4/2 73/4/2 74/4/2
f 74/4/2 73/4/2 75/4/2
f 76/1/2 77/1/2 78/1/2
f 78/1/2 77/1/2 79/1/2
f 80/1/2 81/1/2 82/1/2
f 82/1/2 81/1/2 83/1/2
f 84/4/2 85/4/2 86/4/2
f 86/4/2 85/4/2 87/4/2
f 88/4/2 89/4/2 91/4/2
f 90/1/2 91/1/2 92/1/2
f 91/4/2 89/4/2 93/4/2
f 92/1/2 91/1/2 93/1/2
f 93/4/2 89/4/2 94/4/2
f 95/1/2 96/1/2 97/1/2
f 97/1/2 96/1/2 98/1/2
f 99/4/2 100/4/2 101/4/2
f 101/4/2 100/4/2 102/4/2
f 103/1/2 104/1/2 105/1/2
f 105/1/2 104/1/2 106/1/2
f 106/1/2 107/1/2 109/1/2
f 108/1/2 109/1/2 110/1/2
f 109/1/2 107/1/2 111/1/2
f 110/1/2 109/1/2 111/1/2
f 111/1/2 107/1/2 113/1/2
f 112/1/2 113/1/2 114/1/2
f 113/1/2 107/1/2 115/1/2
f 114/1/2 113/1/2 115/1/2
f 115/1/2 107/1/2 117/1/2
f 117/1/2 107/1/2 118/1/2
f 116/1/2 117/1/2 118/1/2
f 118/1/2 107/1/2 119/1/2
f 116/1/2 118/1/2 120/1/2
f 120/1/2 118/1/2 121/1/2
f 122/4/2 123/4/2 124/4/2
f 124/4/2 123/4/2 125/4/2
f 126/1/2 127/1/2 128/1/2
f 128/1/2 127/1/2 129/1/2
f 130/1/2 131/1/2 132/1/2
f 132/1/2 131/1/2 133/1/2
f 134/1/2 135/1/2 136/1/2
f 136/1/2 135/1/2 137/1/2
f 145/1/3 139/1/3 138/1/3
f 146/1/3 139/1/3 145/1/3
f 147/1/3 141/1/3 140/1/3
f 148/1/3 141/1/3 147/1/3
f 149/1/3 143/1/3 142/1/3
f 151/1/3 148/1/3 147/1/3
f 151/1/3 149/1/3 148/1/3
f 151/1/3 146/1/3 145/1/3
f 151/1/3 145/1/3 144/1/3
f 151/1/3 147/1/3 146/1/3
f 152/1/3 149/1/3 151/1/3
f 153/1/3 149/1/3 152/1/3
f 154/1/3 149/1/3 153/1/3
f 155/1/3 149/1/3 154/1/3
f 156/1/3 143/1/3 149/1/3
f 156/1/3 149/1/3 155/1/3
f 157/1/3 143/1/3 156/1/3
f 159/1/3 151/1/3 150/1/3
f 159/1/3 152/1/3 151/1/3
f 160/1/3 152/1/3 159/1/3
f 161/3/3 153/3/3 152/3/3
f 161/1/3 152/1/3 160/1/3
f 162/2/3 154/2/3 153/2/3
f 162/3/3 153/3/3 161/3/3
f 163/3/3 155/3/3 154/3/3
f 163/2/3 154/2/3 162/2/3
f 164/2/3 156/2/3 155/2/3
f 164/3/3 155/3/3 163/3/3
f 165/1/3 158/1/3 157/1/3
f 165/2/3 156/2/3 164/2/3
f 165/1/3 157/1/3 156/1/3
f 166/1/3 158/1/3 165/1/3
f 167/1/3 158/1/3 166/1/3
f 169/1/3 161/1/3 160/1/3
f 170/2/3 162/2/3 161/2/3
f 170/1/3 161/1/3 169/1/3
f 171/3/3 163/3/3 162/3/3
f 171/2/3 162/2/3 170/2/3
f 172/2/3 164/2/3 163/2/3
f 172/3/3 163/3/3 171/3/3
f 173/3/3 165/3/3 164/3/3
f 173/2/3 164/2/3 172/2/3
f 174/1/3 166/1/3 165/1/3
f 174/3/3 165/3/3 173/3/3
f 175/1/3 166/1/3 174/1/3
f 177/1/3 169/1/3 168/1/3
f 177/1/3 170/1/3 169/1/3
f 178/1/3 170/1/3 177/1/3
f 179/3/3 171/3/3 170/3/3
f 179/1/3 170/1/3 178/1/3
f 180/2/3 172/2/3 171/2/3
f 180/3/3 171/3/3 179/3/3
f 181/3/3 173/3/3 172/3/3
f 181/2/3 172/2/3 180/2/3
f 182/2/3 174/2/3 173/2/3
f 182/3/3 173/3/3 181/3/3
f 183/1/3 176/1/3 175/1/3
f 183/2/3 174/2/3 182/2/3
f 183/1/3 175/1/3 174/1/3
f 184/1/3 176/1/3 183/1/3
f 185/1/3 176/1/3 184/1/3
f 187/1/3 179/1/3 178/1/3
f 188/2/3 180/2/3 179/2/3
f 188/1/3 179/1/3 187/1/3
f 189/3/3 181/3/3 180/3/3
f 189/2/3 180/2/3 188/2/3
f 190/2/3 182/2/3 181/2/3
f 190/3/3 181/3/3 189/3/3
f 191/3/3 183/3/3 182/3/3
f 191/2/3 182/2/3 190/2/3
f 192/1/3 184/1/3 183/1/3
f 192/3/3 183/3/3 191/3/3
f 193/1/3 184/1/3 192/1/3
f 195/1/3 189/1/3 188/1/3
f 195/1/3 194/1/3 193/1/3
f 195/1/3 193/1/3 192/1/3
f 195/1/3 192/1/3 191/1/3
f 195/1/3 187/1/3 186/1/3
f 195/1/3 190/1/3 189/1/3
f 195/1/3 188/1/3 187/1/3
f 195/1/3 191/1/3 190/1/3
f 196/1/3 194/1/3 195/1/3
f 197/1/3 194/1/3 196/1/3
f 198/1/3 194/1/3 197/1/3
f 199/1/3 194/1/3 198/1/3
f 200/1/3 194/1/3 199/1/3
f 201/1/3 194/1/3 200/1/3
f 202/1/3 194/1/3 201/1/3
f 203/1/3 197/1/3 196/1/3
f 204/1/3 197/1/3 203/1/3
f 205/1/3 199/1/3 198/1/3
f 206/1/3 199/1/3 205/1/3
f 207/1/3 201/1/3 200/1/3
f 208/1/3 201/1/3 207/1/3
f 212/4/3 210/4/3 209/4/3
f 213/4/3 210/4/3 212/4/3
f 213/4/3 212/4/3 211/4/3
f 214/4/3 210/4/3 213/4/3
f 216/4/3 213/4/3 211/4/3
f 217/4/3 213/4/3 216/4/3
f 220/4/3 217/4/3 216/4/3
f 220/4/3 219/4/3 218/4/3
f 220/4/3 218/4/3 217/4/3
f 220/4/3 216/4/3 215/4/3
f 221/4/3 219/4/3 220/4/3
f 222/4/3 220/4/3 215/4/3
f 223/4/3 220/4/3 222/4/3
f 224/4/3 220/4/3 223/4/3
f 225/4/3 220/4/3 224/4/3
f 226/4/3 224/4/3 223/4/3
f 228/4/3 226/4/3 223/4/3
f 228/4/3 227/4/3 226/4/3
f 229/4/3 227/4/3 228/4/3
f 230/4/3 227/4/3 229/4/3
f 231/4/3 227/4/3 230/4/3
f 232/1/4 233/1/4 238/1/4
f 238/1/4 233/1/4 239/1/4
f 234/1/4 235/1/4 240/1/4
f 240/1/4 235/1/4 241/1/4
f 236/1/4 237/1/4 242/1/4
f 242/1/4 237/1/4 243/1/4
f 244/1/4 245/1/4 248/1/4
f 248/1/4 245/1/4 249/1/4
f 246/1/4 247/1/4 250/1/4
f 250/1/4 247/1/4 251/1/4
f 252/1/4 253/1/4 254/1/4
f 254/1/4 253/1/4 255/1/4
f 256/1/4 257/1/4 260/1/4
f 260/1/4 257/1/4 261/1/4
f 258/1/4 259/1/4 267/1/4
f 267/1/4 259/1/4 268/1/4
f 261/1/4 262/1/4 269/1/4
f 269/1/4 262/1/4 270/1/4
f 263/1/4 264/1/4 271/1/4
f 271/1/4 264/1/4 272/1/4
f 265/1/4 266/1/4 273/1/4
f 273/1/4 266/1/4 274/1/4
f 275/4/4 276/4/4 278/4/4
f 278/4/4 276/4/4 281/4/4
f 277/4/4 278/4/4 281/4/4
f 281/4/4 276/4/4 282/4/4
f 277/4/4 281/4/4 284/4/4
f 284/4/4 281/4/4 285/4/4
f 279/1/4 280/1/4 286/1/4
f 286/1/4 280/1/4 287/1/4
f 284/4/4 285/4/4 288/4/4
f 283/4/4 284/4/4 288/4/4
f 286/4/4 287/4/4 288/4/4
f 285/4/4 286/4/4 288/4/4
f 288/4/4 287/4/4 289/4/4
f 289/4/4 287/4/4 290/4/4
f 290/4/4 287/4/4 291/4/4
f 287/1/4 280/1/4 292/1/4
f 291/4/4 287/4/4 292/4/4
f 289/4/4 290/4/4 293/4/4
f 289/4/4 293/4/4 295/4/4
f 293/4/4 294/4/4 295/4/4
f 295/4/4 294/4/4 296/4/4
f 291/1/4 292/1/4 297/1/4
f 292/1/4 280/1/4 298/1/4
f 297/1/4 292/1/4 298/1/4
f 296/4/4 294/4/4 299/4/4
f 299/4/4 294/4/4 300/4/4
f 303/4/5 302/4/5 301/4/5
f 304/4/5 302/4/5 303/4/5
f 307/4/5 306/4/5 305/4/5
f 308/4/5 306/4/5 307/4/5
f 311/4/5 310/4/5 309/4/5
f 312/4/5 310/4/5 311/4/5
f 315/4/5 314/4/5 313/4/5
f 316/4/5 314/4/5 315/4/5
f 319/4/5 318/4/5 317/4/5
f 320/4/5 318/4/5 319/4/5
f 327/1/5 322/1/5 321/1/5
f 328/1/5 322/1/5 327/1/5
f 329/1/5 324/1/5 323/1/5
f 330/1/5 324/1/5 329/1/5
f 331/1/5 326/1/5 325/1/5
f 332/1/5 326/1/5 331/1/5
f 341/1/5 334/1/5 333/1/5
f 342/1/5 336/1/5 335/1/5
f 343/1/5 336/1/5 342/1/5
f 344/1/5 338/1/5 337/1/5
f 345/1/5 338/1/5 344/1/5
f 346/1/5 340/1/5 339/1/5
f 347/1/5 340/1/5 346/1/5
f 348/1/5 341/1/5 333/1/5
f 348/1/5 342/1/5 341/1/5
f 349/1/5 342/1/5 348/1/5
f 350/1/5 345/1/5 344/1/5
f 350/1/5 346/1/5 345/1/5
f 351/1/5 346/1/5 350/1/5
f 354/1/5 353/1/5 352/1/5
f 355/1/5 353/1/5 354/1/5
f 358/1/5 357/1/5 356/1/5
f 359/1/5 357/1/5 358/1/5
f 362/1/5 361/1/5 360/1/5
f 363/1/5 361/1/5 362/1/5
f 366/1/5 365/1/5 364/1/5
f 367/1/5 365/1/5 366/1/5
f 370/1/5 369/1/5 368/1/5
f 371/1/5 369/1/5 370/1/5
f 372/4/6 373/4/6 374/4/6
f 374/4/6 373/4/6 375/4/6
f 376/4/6 377/4/6 378/4/6
f 378/4/6 377/4/6 379/4/6
f 380/4/6 381/4/6 382/4/6
f 382/4/6 381/4/6 383/4/6
f 384/4/6 385/4/6 386/4/6
f 386/4/6 385/4/6 387/4/6
f 388/1/6 389/1/6 390/1/6
f 390/1/6 389/1/6 391/1/6
f 392/1/6 393/1/6 394/1/6
f 394/1/6 393/1/6 395/1/6
f 396/1/6 397/1/6 398/1/6
f 398/1/6 397/1/6 399/1/6
f 400/1/6 401/1/6 402/1/6
f 402/1/6 401/1/6 403/1/6
f 404/1/6 405/1/6 406/1/6
f 406/1/6 405/1/6 407/1/6
f 408/1/6 409/1/6 414/1/6
f 414/1/6 409/1/6 415/1/6
f 415/1/6 409/1/6 416/1/6
f 410/1/6 411/1/6 417/1/6
f 417/1/6 411/1/6 418/1/6
f 412/1/6 413/1/6 419/1/6
f 419/1/6 413/1/6 420/1/6
f 417/1/6 418/1/6 422/1/6
f 420/1/6 421/1/6 422/1/6
f 419/1/6 420/1/6 422/1/6
f 418/1/6 419/1/6 422/1/6
f 415/1/6 416/1/6 422/1/6
f 416/1/6 417/1/6 422/1/6
f 422/1/6 421/1/6 423/1/6
f 424/1/6 425/1/6 430/1/6
f 430/1/6 425/1/6 431/1/6
f 426/1/6 427/1/6 432/1/6
f 432/1/6 427/1/6 433/1/6
f 428/1/6 429/1/6 434/1/6
f 434/1/6 429/1/6 435/1/6
