# MagicaVoxel @ Ephtracy

# group
g barreira

# material
mtllib barreira.mtl
usemtl palette

# normals
vn -1 0 0
vn 1 0 0
vn 0 0 1
vn 0 0 -1
vn 0 -1 0
vn 0 1 0

# texcoords
vt 0.396484 0.5
vt 0.845703 0.5

# verts
v -4 1 15
v -4 1 12
v -4 1 -11
v -4 1 -14
v -4 2 15
v -4 2 12
v -4 2 -11
v -4 2 -14
v -3 1 16
v -3 1 15
v -3 1 12
v -3 1 11
v -3 1 -10
v -3 1 -11
v -3 1 -14
v -3 1 -15
v -3 2 16
v -3 2 15
v -3 2 12
v -3 2 11
v -3 2 -10
v -3 2 -11
v -3 2 -14
v -3 2 -15
v -3 3 15
v -3 3 12
v -3 3 -11
v -3 3 -14
v -3 19 14
v -3 19 13
v -3 19 -12
v -3 19 -13
v -3 20 14
v -3 20 13
v -3 20 -12
v -3 20 -13
v -3 21 14
v -3 21 13
v -3 21 -12
v -3 21 -13
v -2 3 14
v -2 3 13
v -2 3 -12
v -2 3 -13
v -2 9 4
v -2 9 -3
v -2 10 6
v -2 10 4
v -2 10 3
v -2 10 -2
v -2 10 -3
v -2 10 -5
v -2 11 8
v -2 11 6
v -2 11 5
v -2 11 3
v -2 11 -2
v -2 11 -4
v -2 11 -5
v -2 11 -7
v -2 12 9
v -2 12 8
v -2 12 7
v -2 12 5
v -2 12 -4
v -2 12 -6
v -2 12 -7
v -2 12 -8
v -2 13 10
v -2 13 9
v -2 13 8
v -2 13 7
v -2 13 -6
v -2 13 -7
v -2 13 -8
v -2 13 -9
v -2 14 11
v -2 14 10
v -2 14 9
v -2 14 8
v -2 14 -7
v -2 14 -8
v -2 14 -9
v -2 14 -10
v -2 15 10
v -2 15 9
v -2 15 -8
v -2 15 -9
v -2 16 12
v -2 16 11
v -2 16 -10
v -2 16 -11
v -2 17 11
v -2 17 10
v -2 17 -9
v -2 17 -10
v -2 18 13
v -2 18 12
v -2 18 -11
v -2 18 -12
v -2 19 15
v -2 19 14
v -2 19 13
v -2 19 12
v -2 19 11
v -2 19 -10
v -2 19 -11
v -2 19 -12
v -2 19 -13
v -2 19 -14
v -2 20 15
v -2 20 14
v -2 20 13
v -2 20 12
v -2 20 -11
v -2 20 -12
v -2 20 -13
v -2 20 -14
v -2 21 15
v -2 21 14
v -2 21 13
v -2 21 12
v -2 21 -11
v -2 21 -12
v -2 21 -13
v -2 21 -14
v -2 22 14
v -2 22 13
v -2 22 -12
v -2 22 -13
v -1 3 14
v -1 3 13
v -1 3 -12
v -1 3 -13
v -1 9 4
v -1 9 -3
v -1 10 6
v -1 10 4
v -1 10 3
v -1 10 -2
v -1 10 -3
v -1 10 -5
v -1 11 8
v -1 11 6
v -1 11 5
v -1 11 3
v -1 11 -2
v -1 11 -4
v -1 11 -5
v -1 11 -7
v -1 12 9
v -1 12 8
v -1 12 7
v -1 12 5
v -1 12 -4
v -1 12 -6
v -1 12 -7
v -1 12 -8
v -1 13 10
v -1 13 9
v -1 13 8
v -1 13 7
v -1 13 -6
v -1 13 -7
v -1 13 -8
v -1 13 -9
v -1 14 11
v -1 14 10
v -1 14 9
v -1 14 8
v -1 14 -7
v -1 14 -8
v -1 14 -9
v -1 14 -10
v -1 15 10
v -1 15 9
v -1 15 -8
v -1 15 -9
v -1 16 12
v -1 16 11
v -1 16 -10
v -1 16 -11
v -1 17 11
v -1 17 10
v -1 17 -9
v -1 17 -10
v -1 18 13
v -1 18 12
v -1 18 -11
v -1 18 -12
v -1 19 15
v -1 19 14
v -1 19 13
v -1 19 12
v -1 19 11
v -1 19 -10
v -1 19 -11
v -1 19 -12
v -1 19 -13
v -1 19 -14
v -1 20 15
v -1 20 14
v -1 20 13
v -1 20 12
v -1 20 -11
v -1 20 -12
v -1 20 -13
v -1 20 -14
v -1 21 15
v -1 21 14
v -1 21 13
v -1 21 12
v -1 21 -11
v -1 21 -12
v -1 21 -13
v -1 21 -14
v -1 22 14
v -1 22 13
v -1 22 -12
v -1 22 -13
v 0 1 16
v 0 1 15
v 0 1 12
v 0 1 11
v 0 1 -10
v 0 1 -11
v 0 1 -14
v 0 1 -15
v 0 2 16
v 0 2 15
v 0 2 12
v 0 2 11
v 0 2 -10
v 0 2 -11
v 0 2 -14
v 0 2 -15
v 0 3 15
v 0 3 12
v 0 3 -11
v 0 3 -14
v 0 19 14
v 0 19 13
v 0 19 -12
v 0 19 -13
v 0 20 14
v 0 20 13
v 0 20 -12
v 0 20 -13
v 0 21 14
v 0 21 13
v 0 21 -12
v 0 21 -13
v 1 1 15
v 1 1 12
v 1 1 -11
v 1 1 -14
v 1 2 15
v 1 2 12
v 1 2 -11
v 1 2 -14
v -3 1 16
v -3 2 16
v 0 1 16
v 0 2 16
v -4 1 15
v -4 2 15
v -3 1 15
v -3 2 15
v -3 3 15
v -2 19 15
v -2 20 15
v -2 21 15
v -1 19 15
v -1 20 15
v -1 21 15
v 0 1 15
v 0 2 15
v 0 3 15
v 1 1 15
v 1 2 15
v -3 19 14
v -3 20 14
v -3 21 14
v -2 3 14
v -2 19 14
v -2 20 14
v -2 21 14
v -2 22 14
v -1 3 14
v -1 19 14
v -1 20 14
v -1 21 14
v -1 22 14
v 0 19 14
v 0 20 14
v 0 21 14
v -2 16 12
v -2 18 12
v -1 16 12
v -1 18 12
v -2 14 11
v -2 16 11
v -1 14 11
v -1 16 11
v -2 13 10
v -2 14 10
v -1 13 10
v -1 14 10
v -2 12 9
v -2 13 9
v -1 12 9
v -1 13 9
v -2 11 8
v -2 12 8
v -1 11 8
v -1 12 8
v -2 10 6
v -2 11 6
v -1 10 6
v -1 11 6
v -2 9 4
v -2 10 4
v -1 9 4
v -1 10 4
v -2 10 -2
v -2 11 -2
v -1 10 -2
v -1 11 -2
v -2 11 -4
v -2 12 -4
v -1 11 -4
v -1 12 -4
v -2 12 -6
v -2 13 -6
v -1 12 -6
v -1 13 -6
v -2 13 -7
v -2 14 -7
v -1 13 -7
v -1 14 -7
v -2 14 -8
v -2 15 -8
v -1 14 -8
v -1 15 -8
v -2 15 -9
v -2 17 -9
v -1 15 -9
v -1 17 -9
v -3 1 -10
v -3 2 -10
v -2 17 -10
v -2 19 -10
v -1 17 -10
v -1 19 -10
v 0 1 -10
v 0 2 -10
v -4 1 -11
v -4 2 -11
v -3 1 -11
v -3 2 -11
v -3 3 -11
v -2 19 -11
v -2 20 -11
v -2 21 -11
v -1 19 -11
v -1 20 -11
v -1 21 -11
v 0 1 -11
v 0 2 -11
v 0 3 -11
v 1 1 -11
v 1 2 -11
v -3 19 -12
v -3 20 -12
v -3 21 -12
v -2 3 -12
v -2 18 -12
v -2 19 -12
v -2 20 -12
v -2 21 -12
v -2 22 -12
v -1 3 -12
v -1 18 -12
v -1 19 -12
v -1 20 -12
v -1 21 -12
v -1 22 -12
v 0 19 -12
v 0 20 -12
v 0 21 -12
v -3 19 13
v -3 20 13
v -3 21 13
v -2 3 13
v -2 18 13
v -2 19 13
v -2 20 13
v -2 21 13
v -2 22 13
v -1 3 13
v -1 18 13
v -1 19 13
v -1 20 13
v -1 21 13
v -1 22 13
v 0 19 13
v 0 20 13
v 0 21 13
v -4 1 12
v -4 2 12
v -3 1 12
v -3 2 12
v -3 3 12
v -2 19 12
v -2 20 12
v -2 21 12
v -1 19 12
v -1 20 12
v -1 21 12
v 0 1 12
v 0 2 12
v 0 3 12
v 1 1 12
v 1 2 12
v -3 1 11
v -3 2 11
v -2 17 11
v -2 19 11
v -1 17 11
v -1 19 11
v 0 1 11
v 0 2 11
v -2 15 10
v -2 17 10
v -1 15 10
v -1 17 10
v -2 14 9
v -2 15 9
v -1 14 9
v -1 15 9
v -2 13 8
v -2 14 8
v -1 13 8
v -1 14 8
v -2 12 7
v -2 13 7
v -1 12 7
v -1 13 7
v -2 11 5
v -2 12 5
v -1 11 5
v -1 12 5
v -2 10 3
v -2 11 3
v -1 10 3
v -1 11 3
v -2 9 -3
v -2 10 -3
v -1 9 -3
v -1 10 -3
v -2 10 -5
v -2 11 -5
v -1 10 -5
v -1 11 -5
v -2 11 -7
v -2 12 -7
v -1 11 -7
v -1 12 -7
v -2 12 -8
v -2 13 -8
v -1 12 -8
v -1 13 -8
v -2 13 -9
v -2 14 -9
v -1 13 -9
v -1 14 -9
v -2 14 -10
v -2 16 -10
v -1 14 -10
v -1 16 -10
v -2 16 -11
v -2 18 -11
v -1 16 -11
v -1 18 -11
v -3 19 -13
v -3 20 -13
v -3 21 -13
v -2 3 -13
v -2 19 -13
v -2 20 -13
v -2 21 -13
v -2 22 -13
v -1 3 -13
v -1 19 -13
v -1 20 -13
v -1 21 -13
v -1 22 -13
v 0 19 -13
v 0 20 -13
v 0 21 -13
v -4 1 -14
v -4 2 -14
v -3 1 -14
v -3 2 -14
v -3 3 -14
v -2 19 -14
v -2 20 -14
v -2 21 -14
v -1 19 -14
v -1 20 -14
v -1 21 -14
v 0 1 -14
v 0 2 -14
v 0 3 -14
v 1 1 -14
v 1 2 -14
v -3 1 -15
v -3 2 -15
v 0 1 -15
v 0 2 -15
v -3 1 16
v 0 1 16
v -4 1 15
v -3 1 15
v 0 1 15
v 1 1 15
v -4 1 12
v -3 1 12
v 0 1 12
v 1 1 12
v -3 1 11
v 0 1 11
v -3 1 -10
v 0 1 -10
v -4 1 -11
v -3 1 -11
v 0 1 -11
v 1 1 -11
v -4 1 -14
v -3 1 -14
v 0 1 -14
v 1 1 -14
v -3 1 -15
v 0 1 -15
v -2 9 4
v -1 9 4
v -2 9 -3
v -1 9 -3
v -2 10 6
v -1 10 6
v -2 10 4
v -1 10 4
v -2 10 -3
v -1 10 -3
v -2 10 -5
v -1 10 -5
v -2 11 8
v -1 11 8
v -2 11 6
v -1 11 6
v -2 11 -5
v -1 11 -5
v -2 11 -7
v -1 11 -7
v -2 12 9
v -1 12 9
v -2 12 8
v -1 12 8
v -2 12 -7
v -1 12 -7
v -2 12 -8
v -1 12 -8
v -2 13 10
v -1 13 10
v -2 13 9
v -1 13 9
v -2 13 -8
v -1 13 -8
v -2 13 -9
v -1 13 -9
v -2 14 11
v -1 14 11
v -2 14 10
v -1 14 10
v -2 14 -9
v -1 14 -9
v -2 14 -10
v -1 14 -10
v -2 16 12
v -1 16 12
v -2 16 11
v -1 16 11
v -2 16 -10
v -1 16 -10
v -2 16 -11
v -1 16 -11
v -2 18 13
v -1 18 13
v -2 18 12
v -1 18 12
v -2 18 -11
v -1 18 -11
v -2 18 -12
v -1 18 -12
v -2 19 15
v -1 19 15
v -3 19 14
v -2 19 14
v -1 19 14
v 0 19 14
v -3 19 13
v -2 19 13
v -1 19 13
v 0 19 13
v -3 19 -12
v -2 19 -12
v -1 19 -12
v 0 19 -12
v -3 19 -13
v -2 19 -13
v -1 19 -13
v 0 19 -13
v -2 19 -14
v -1 19 -14
v -3 2 16
v 0 2 16
v -4 2 15
v -3 2 15
v 0 2 15
v 1 2 15
v -4 2 12
v -3 2 12
v 0 2 12
v 1 2 12
v -3 2 11
v 0 2 11
v -3 2 -10
v 0 2 -10
v -4 2 -11
v -3 2 -11
v 0 2 -11
v 1 2 -11
v -4 2 -14
v -3 2 -14
v 0 2 -14
v 1 2 -14
v -3 2 -15
v 0 2 -15
v -3 3 15
v 0 3 15
v -2 3 14
v -1 3 14
v -2 3 13
v -1 3 13
v -3 3 12
v 0 3 12
v -3 3 -11
v 0 3 -11
v -2 3 -12
v -1 3 -12
v -2 3 -13
v -1 3 -13
v -3 3 -14
v 0 3 -14
v -2 10 3
v -1 10 3
v -2 10 -2
v -1 10 -2
v -2 11 5
v -1 11 5
v -2 11 3
v -1 11 3
v -2 11 -2
v -1 11 -2
v -2 11 -4
v -1 11 -4
v -2 12 7
v -1 12 7
v -2 12 5
v -1 12 5
v -2 12 -4
v -1 12 -4
v -2 12 -6
v -1 12 -6
v -2 13 8
v -1 13 8
v -2 13 7
v -1 13 7
v -2 13 -6
v -1 13 -6
v -2 13 -7
v -1 13 -7
v -2 14 9
v -1 14 9
v -2 14 8
v -1 14 8
v -2 14 -7
v -1 14 -7
v -2 14 -8
v -1 14 -8
v -2 15 10
v -1 15 10
v -2 15 9
v -1 15 9
v -2 15 -8
v -1 15 -8
v -2 15 -9
v -1 15 -9
v -2 17 11
v -1 17 11
v -2 17 10
v -1 17 10
v -2 17 -9
v -1 17 -9
v -2 17 -10
v -1 17 -10
v -2 19 12
v -1 19 12
v -2 19 11
v -1 19 11
v -2 19 -10
v -1 19 -10
v -2 19 -11
v -1 19 -11
v -2 21 15
v -1 21 15
v -3 21 14
v -2 21 14
v -1 21 14
v 0 21 14
v -3 21 13
v -2 21 13
v -1 21 13
v 0 21 13
v -2 21 12
v -1 21 12
v -2 21 -11
v -1 21 -11
v -3 21 -12
v -2 21 -12
v -1 21 -12
v 0 21 -12
v -3 21 -13
v -2 21 -13
v -1 21 -13
v 0 21 -13
v -2 21 -14
v -1 21 -14
v -2 22 14
v -1 22 14
v -2 22 13
v -1 22 13
v -2 22 -12
v -1 22 -12
v -2 22 -13
v -1 22 -13

# faces
f 5/1/1 2/1/1 1/1/1
f 6/1/1 2/1/1 5/1/1
f 7/1/1 4/1/1 3/1/1
f 8/1/1 4/1/1 7/1/1
f 17/1/1 10/1/1 9/1/1
f 18/1/1 10/1/1 17/1/1
f 19/1/1 12/1/1 11/1/1
f 20/1/1 12/1/1 19/1/1
f 21/1/1 14/1/1 13/1/1
f 22/1/1 14/1/1 21/1/1
f 23/1/1 16/1/1 15/1/1
f 24/1/1 16/1/1 23/1/1
f 25/1/1 19/1/1 18/1/1
f 26/1/1 19/1/1 25/1/1
f 27/1/1 23/1/1 22/1/1
f 28/1/1 23/1/1 27/1/1
f 33/2/1 30/2/1 29/2/1
f 34/2/1 30/2/1 33/2/1
f 35/2/1 32/2/1 31/2/1
f 36/2/1 32/2/1 35/2/1
f 37/1/1 34/1/1 33/1/1
f 38/1/1 34/1/1 37/1/1
f 39/1/1 36/1/1 35/1/1
f 40/1/1 36/1/1 39/1/1
f 48/2/1 46/2/1 45/2/1
f 49/2/1 46/2/1 48/2/1
f 50/2/1 46/2/1 49/2/1
f 51/2/1 46/2/1 50/2/1
f 54/2/1 48/2/1 47/2/1
f 54/2/1 49/2/1 48/2/1
f 55/2/1 49/2/1 54/2/1
f 56/2/1 49/2/1 55/2/1
f 57/2/1 51/2/1 50/2/1
f 57/2/1 52/2/1 51/2/1
f 58/2/1 52/2/1 57/2/1
f 59/2/1 52/2/1 58/2/1
f 62/2/1 55/2/1 54/2/1
f 62/2/1 54/2/1 53/2/1
f 63/2/1 55/2/1 62/2/1
f 64/2/1 55/2/1 63/2/1
f 65/2/1 60/2/1 59/2/1
f 65/2/1 59/2/1 58/2/1
f 66/2/1 60/2/1 65/2/1
f 67/2/1 60/2/1 66/2/1
f 70/2/1 63/2/1 62/2/1
f 70/2/1 62/2/1 61/2/1
f 71/2/1 63/2/1 70/2/1
f 72/2/1 63/2/1 71/2/1
f 73/2/1 68/2/1 67/2/1
f 73/2/1 67/2/1 66/2/1
f 74/2/1 68/2/1 73/2/1
f 75/2/1 68/2/1 74/2/1
f 78/2/1 71/2/1 70/2/1
f 78/2/1 70/2/1 69/2/1
f 79/2/1 71/2/1 78/2/1
f 80/2/1 71/2/1 79/2/1
f 81/2/1 76/2/1 75/2/1
f 81/2/1 75/2/1 74/2/1
f 82/2/1 76/2/1 81/2/1
f 83/2/1 76/2/1 82/2/1
f 85/2/1 79/2/1 78/2/1
f 85/2/1 78/2/1 77/2/1
f 86/2/1 79/2/1 85/2/1
f 87/2/1 84/2/1 83/2/1
f 87/2/1 83/2/1 82/2/1
f 88/2/1 84/2/1 87/2/1
f 90/2/1 85/2/1 77/2/1
f 91/2/1 84/2/1 88/2/1
f 93/2/1 90/2/1 89/2/1
f 93/2/1 85/2/1 90/2/1
f 94/2/1 85/2/1 93/2/1
f 95/2/1 92/2/1 91/2/1
f 95/2/1 91/2/1 88/2/1
f 96/2/1 92/2/1 95/2/1
f 97/1/1 42/1/1 41/1/1
f 98/2/1 93/2/1 89/2/1
f 99/2/1 92/2/1 96/2/1
f 100/1/1 44/1/1 43/1/1
f 102/1/1 97/1/1 41/1/1
f 103/2/1 98/2/1 97/2/1
f 103/1/1 97/1/1 102/1/1
f 104/2/1 93/2/1 98/2/1
f 104/2/1 98/2/1 103/2/1
f 105/2/1 93/2/1 104/2/1
f 106/2/1 99/2/1 96/2/1
f 106/2/1 100/2/1 99/2/1
f 107/2/1 100/2/1 106/2/1
f 108/1/1 44/1/1 100/1/1
f 108/2/1 100/2/1 107/2/1
f 109/1/1 44/1/1 108/1/1
f 111/2/1 102/2/1 101/2/1
f 112/2/1 102/2/1 111/2/1
f 113/2/1 104/2/1 103/2/1
f 114/2/1 104/2/1 113/2/1
f 115/2/1 108/2/1 107/2/1
f 116/2/1 108/2/1 115/2/1
f 117/2/1 110/2/1 109/2/1
f 118/2/1 110/2/1 117/2/1
f 119/1/1 112/1/1 111/1/1
f 120/1/1 112/1/1 119/1/1
f 121/1/1 114/1/1 113/1/1
f 122/1/1 114/1/1 121/1/1
f 123/1/1 116/1/1 115/1/1
f 124/1/1 116/1/1 123/1/1
f 125/1/1 118/1/1 117/1/1
f 126/1/1 118/1/1 125/1/1
f 127/1/1 121/1/1 120/1/1
f 128/1/1 121/1/1 127/1/1
f 129/1/1 125/1/1 124/1/1
f 130/1/1 125/1/1 129/1/1
f 135/2/2 136/2/2 138/2/2
f 138/2/2 136/2/2 139/2/2
f 139/2/2 136/2/2 140/2/2
f 140/2/2 136/2/2 141/2/2
f 137/2/2 138/2/2 144/2/2
f 138/2/2 139/2/2 144/2/2
f 144/2/2 139/2/2 145/2/2
f 145/2/2 139/2/2 146/2/2
f 140/2/2 141/2/2 147/2/2
f 141/2/2 142/2/2 147/2/2
f 147/2/2 142/2/2 148/2/2
f 148/2/2 142/2/2 149/2/2
f 144/2/2 145/2/2 152/2/2
f 143/2/2 144/2/2 152/2/2
f 152/2/2 145/2/2 153/2/2
f 153/2/2 145/2/2 154/2/2
f 149/2/2 150/2/2 155/2/2
f 148/2/2 149/2/2 155/2/2
f 155/2/2 150/2/2 156/2/2
f 156/2/2 150/2/2 157/2/2
f 152/2/2 153/2/2 160/2/2
f 151/2/2 152/2/2 160/2/2
f 160/2/2 153/2/2 161/2/2
f 161/2/2 153/2/2 162/2/2
f 157/2/2 158/2/2 163/2/2
f 156/2/2 157/2/2 163/2/2
f 163/2/2 158/2/2 164/2/2
f 164/2/2 158/2/2 165/2/2
f 160/2/2 161/2/2 168/2/2
f 159/2/2 160/2/2 168/2/2
f 168/2/2 161/2/2 169/2/2
f 169/2/2 161/2/2 170/2/2
f 165/2/2 166/2/2 171/2/2
f 164/2/2 165/2/2 171/2/2
f 171/2/2 166/2/2 172/2/2
f 172/2/2 166/2/2 173/2/2
f 168/2/2 169/2/2 175/2/2
f 167/2/2 168/2/2 175/2/2
f 175/2/2 169/2/2 176/2/2
f 173/2/2 174/2/2 177/2/2
f 172/2/2 173/2/2 177/2/2
f 177/2/2 174/2/2 178/2/2
f 167/2/2 175/2/2 180/2/2
f 178/2/2 174/2/2 181/2/2
f 179/2/2 180/2/2 183/2/2
f 180/2/2 175/2/2 183/2/2
f 183/2/2 175/2/2 184/2/2
f 181/2/2 182/2/2 185/2/2
f 178/2/2 181/2/2 185/2/2
f 185/2/2 182/2/2 186/2/2
f 131/1/2 132/1/2 187/1/2
f 179/2/2 183/2/2 188/2/2
f 186/2/2 182/2/2 189/2/2
f 133/1/2 134/1/2 190/1/2
f 131/1/2 187/1/2 192/1/2
f 187/2/2 188/2/2 193/2/2
f 192/1/2 187/1/2 193/1/2
f 188/2/2 183/2/2 194/2/2
f 193/2/2 188/2/2 194/2/2
f 194/2/2 183/2/2 195/2/2
f 186/2/2 189/2/2 196/2/2
f 189/2/2 190/2/2 196/2/2
f 196/2/2 190/2/2 197/2/2
f 190/1/2 134/1/2 198/1/2
f 197/2/2 190/2/2 198/2/2
f 198/1/2 134/1/2 199/1/2
f 191/2/2 192/2/2 201/2/2
f 201/2/2 192/2/2 202/2/2
f 193/2/2 194/2/2 203/2/2
f 203/2/2 194/2/2 204/2/2
f 197/2/2 198/2/2 205/2/2
f 205/2/2 198/2/2 206/2/2
f 199/2/2 200/2/2 207/2/2
f 207/2/2 200/2/2 208/2/2
f 201/1/2 202/1/2 209/1/2
f 209/1/2 202/1/2 210/1/2
f 203/1/2 204/1/2 211/1/2
f 211/1/2 204/1/2 212/1/2
f 205/1/2 206/1/2 213/1/2
f 213/1/2 206/1/2 214/1/2
f 207/1/2 208/1/2 215/1/2
f 215/1/2 208/1/2 216/1/2
f 210/1/2 211/1/2 217/1/2
f 217/1/2 211/1/2 218/1/2
f 214/1/2 215/1/2 219/1/2
f 219/1/2 215/1/2 220/1/2
f 221/1/2 222/1/2 229/1/2
f 229/1/2 222/1/2 230/1/2
f 223/1/2 224/1/2 231/1/2
f 231/1/2 224/1/2 232/1/2
f 225/1/2 226/1/2 233/1/2
f 233/1/2 226/1/2 234/1/2
f 227/1/2 228/1/2 235/1/2
f 235/1/2 228/1/2 236/1/2
f 230/1/2 231/1/2 237/1/2
f 237/1/2 231/1/2 238/1/2
f 234/1/2 235/1/2 239/1/2
f 239/1/2 235/1/2 240/1/2
f 241/2/2 242/2/2 245/2/2
f 245/2/2 242/2/2 246/2/2
f 243/2/2 244/2/2 247/2/2
f 247/2/2 244/2/2 248/2/2
f 245/1/2 246/1/2 249/1/2
f 249/1/2 246/1/2 250/1/2
f 247/1/2 248/1/2 251/1/2
f 251/1/2 248/1/2 252/1/2
f 253/1/2 254/1/2 257/1/2
f 257/1/2 254/1/2 258/1/2
f 255/1/2 256/1/2 259/1/2
f 259/1/2 256/1/2 260/1/2
f 263/1/3 262/1/3 261/1/3
f 264/1/3 262/1/3 263/1/3
f 267/1/3 266/1/3 265/1/3
f 268/1/3 266/1/3 267/1/3
f 273/2/3 271/2/3 270/2/3
f 274/1/3 272/1/3 271/1/3
f 274/2/3 271/2/3 273/2/3
f 275/1/3 272/1/3 274/1/3
f 277/1/3 269/1/3 268/1/3
f 278/1/3 269/1/3 277/1/3
f 279/1/3 277/1/3 276/1/3
f 280/1/3 277/1/3 279/1/3
f 285/2/3 282/2/3 281/2/3
f 286/1/3 283/1/3 282/1/3
f 286/2/3 282/2/3 285/2/3
f 287/1/3 283/1/3 286/1/3
f 289/1/3 285/1/3 284/1/3
f 290/1/3 285/1/3 289/1/3
f 292/1/3 288/1/3 287/1/3
f 293/1/3 288/1/3 292/1/3
f 294/2/3 291/2/3 290/2/3
f 295/1/3 292/1/3 291/1/3
f 295/2/3 291/2/3 294/2/3
f 296/1/3 292/1/3 295/1/3
f 299/2/3 298/2/3 297/2/3
f 300/2/3 298/2/3 299/2/3
f 303/2/3 302/2/3 301/2/3
f 304/2/3 302/2/3 303/2/3
f 307/2/3 306/2/3 305/2/3
f 308/2/3 306/2/3 307/2/3
f 311/2/3 310/2/3 309/2/3
f 312/2/3 310/2/3 311/2/3
f 315/2/3 314/2/3 313/2/3
f 316/2/3 314/2/3 315/2/3
f 319/2/3 318/2/3 317/2/3
f 320/2/3 318/2/3 319/2/3
f 323/2/3 322/2/3 321/2/3
f 324/2/3 322/2/3 323/2/3
f 327/2/3 326/2/3 325/2/3
f 328/2/3 326/2/3 327/2/3
f 331/2/3 330/2/3 329/2/3
f 332/2/3 330/2/3 331/2/3
f 335/2/3 334/2/3 333/2/3
f 336/2/3 334/2/3 335/2/3
f 339/2/3 338/2/3 337/2/3
f 340/2/3 338/2/3 339/2/3
f 343/2/3 342/2/3 341/2/3
f 344/2/3 342/2/3 343/2/3
f 347/2/3 346/2/3 345/2/3
f 348/2/3 346/2/3 347/2/3
f 353/2/3 352/2/3 351/2/3
f 354/2/3 352/2/3 353/2/3
f 355/1/3 350/1/3 349/1/3
f 356/1/3 350/1/3 355/1/3
f 359/1/3 358/1/3 357/1/3
f 360/1/3 358/1/3 359/1/3
f 365/2/3 363/2/3 362/2/3
f 366/1/3 364/1/3 363/1/3
f 366/2/3 363/2/3 365/2/3
f 367/1/3 364/1/3 366/1/3
f 369/1/3 361/1/3 360/1/3
f 370/1/3 361/1/3 369/1/3
f 371/1/3 369/1/3 368/1/3
f 372/1/3 369/1/3 371/1/3
f 378/2/3 374/2/3 373/2/3
f 379/1/3 375/1/3 374/1/3
f 379/2/3 374/2/3 378/2/3
f 380/1/3 375/1/3 379/1/3
f 382/1/3 377/1/3 376/1/3
f 383/1/3 377/1/3 382/1/3
f 386/1/3 381/1/3 380/1/3
f 387/1/3 381/1/3 386/1/3
f 388/2/3 385/2/3 384/2/3
f 389/1/3 386/1/3 385/1/3
f 389/2/3 385/2/3 388/2/3
f 390/1/3 386/1/3 389/1/3
f 391/2/4 392/2/4 396/2/4
f 392/1/4 393/1/4 397/1/4
f 396/2/4 392/2/4 397/2/4
f 397/1/4 393/1/4 398/1/4
f 394/1/4 395/1/4 400/1/4
f 400/1/4 395/1/4 401/1/4
f 398/1/4 399/1/4 404/1/4
f 404/1/4 399/1/4 405/1/4
f 402/2/4 403/2/4 406/2/4
f 403/1/4 404/1/4 407/1/4
f 406/2/4 403/2/4 407/2/4
f 407/1/4 404/1/4 408/1/4
f 409/1/4 410/1/4 411/1/4
f 411/1/4 410/1/4 412/1/4
f 414/2/4 415/2/4 417/2/4
f 415/1/4 416/1/4 418/1/4
f 417/2/4 415/2/4 418/2/4
f 418/1/4 416/1/4 419/1/4
f 412/1/4 413/1/4 421/1/4
f 421/1/4 413/1/4 422/1/4
f 420/1/4 421/1/4 423/1/4
f 423/1/4 421/1/4 424/1/4
f 427/2/4 428/2/4 429/2/4
f 429/2/4 428/2/4 430/2/4
f 425/1/4 426/1/4 431/1/4
f 431/1/4 426/1/4 432/1/4
f 433/2/4 434/2/4 435/2/4
f 435/2/4 434/2/4 436/2/4
f 437/2/4 438/2/4 439/2/4
f 439/2/4 438/2/4 440/2/4
f 441/2/4 442/2/4 443/2/4
f 443/2/4 442/2/4 444/2/4
f 445/2/4 446/2/4 447/2/4
f 447/2/4 446/2/4 448/2/4
f 449/2/4 450/2/4 451/2/4
f 451/2/4 450/2/4 452/2/4
f 453/2/4 454/2/4 455/2/4
f 455/2/4 454/2/4 456/2/4
f 457/2/4 458/2/4 459/2/4
f 459/2/4 458/2/4 460/2/4
f 461/2/4 462/2/4 463/2/4
f 463/2/4 462/2/4 464/2/4
f 465/2/4 466/2/4 467/2/4
f 467/2/4 466/2/4 468/2/4
f 469/2/4 470/2/4 471/2/4
f 471/2/4 470/2/4 472/2/4
f 473/2/4 474/2/4 475/2/4
f 475/2/4 474/2/4 476/2/4
f 477/2/4 478/2/4 479/2/4
f 479/2/4 478/2/4 480/2/4
f 481/2/4 482/2/4 483/2/4
f 483/2/4 482/2/4 484/2/4
f 485/2/4 486/2/4 489/2/4
f 486/1/4 487/1/4 490/1/4
f 489/2/4 486/2/4 490/2/4
f 490/1/4 487/1/4 491/1/4
f 488/1/4 489/1/4 493/1/4
f 493/1/4 489/1/4 494/1/4
f 491/1/4 492/1/4 496/1/4
f 496/1/4 492/1/4 497/1/4
f 494/2/4 495/2/4 498/2/4
f 495/1/4 496/1/4 499/1/4
f 498/2/4 495/2/4 499/2/4
f 499/1/4 496/1/4 500/1/4
f 501/1/4 502/1/4 503/1/4
f 503/1/4 502/1/4 504/1/4
f 506/2/4 507/2/4 509/2/4
f 507/1/4 508/1/4 510/1/4
f 509/2/4 507/2/4 510/2/4
f 510/1/4 508/1/4 511/1/4
f 504/1/4 505/1/4 513/1/4
f 513/1/4 505/1/4 514/1/4
f 512/1/4 513/1/4 515/1/4
f 515/1/4 513/1/4 516/1/4
f 517/1/4 518/1/4 519/1/4
f 519/1/4 518/1/4 520/1/4
f 524/1/5 522/1/5 521/1/5
f 525/1/5 522/1/5 524/1/5
f 527/1/5 524/1/5 523/1/5
f 527/1/5 526/1/5 525/1/5
f 527/1/5 525/1/5 524/1/5
f 528/1/5 526/1/5 527/1/5
f 529/1/5 526/1/5 528/1/5
f 530/1/5 526/1/5 529/1/5
f 531/1/5 529/1/5 528/1/5
f 532/1/5 529/1/5 531/1/5
f 536/1/5 534/1/5 533/1/5
f 537/1/5 534/1/5 536/1/5
f 539/1/5 537/1/5 536/1/5
f 539/1/5 538/1/5 537/1/5
f 539/1/5 536/1/5 535/1/5
f 540/1/5 538/1/5 539/1/5
f 541/1/5 538/1/5 540/1/5
f 542/1/5 538/1/5 541/1/5
f 543/1/5 541/1/5 540/1/5
f 544/1/5 541/1/5 543/1/5
f 547/2/5 546/2/5 545/2/5
f 548/2/5 546/2/5 547/2/5
f 551/2/5 550/2/5 549/2/5
f 552/2/5 550/2/5 551/2/5
f 555/2/5 554/2/5 553/2/5
f 556/2/5 554/2/5 555/2/5
f 559/2/5 558/2/5 557/2/5
f 560/2/5 558/2/5 559/2/5
f 563/2/5 562/2/5 561/2/5
f 564/2/5 562/2/5 563/2/5
f 567/2/5 566/2/5 565/2/5
f 568/2/5 566/2/5 567/2/5
f 571/2/5 570/2/5 569/2/5
f 572/2/5 570/2/5 571/2/5
f 575/2/5 574/2/5 573/2/5
f 576/2/5 574/2/5 575/2/5
f 579/2/5 578/2/5 577/2/5
f 580/2/5 578/2/5 579/2/5
f 583/2/5 582/2/5 581/2/5
f 584/2/5 582/2/5 583/2/5
f 587/2/5 586/2/5 585/2/5
f 588/2/5 586/2/5 587/2/5
f 591/2/5 590/2/5 589/2/5
f 592/2/5 590/2/5 591/2/5
f 595/2/5 594/2/5 593/2/5
f 596/2/5 594/2/5 595/2/5
f 599/2/5 598/2/5 597/2/5
f 600/2/5 598/2/5 599/2/5
f 603/2/5 602/2/5 601/2/5
f 604/2/5 602/2/5 603/2/5
f 608/2/5 606/2/5 605/2/5
f 609/2/5 606/2/5 608/2/5
f 611/2/5 608/2/5 607/2/5
f 612/2/5 608/2/5 611/2/5
f 613/2/5 610/2/5 609/2/5
f 614/2/5 610/2/5 613/2/5
f 619/2/5 616/2/5 615/2/5
f 620/2/5 616/2/5 619/2/5
f 621/2/5 618/2/5 617/2/5
f 622/2/5 618/2/5 621/2/5
f 623/2/5 621/2/5 620/2/5
f 624/2/5 621/2/5 623/2/5
f 625/1/6 626/1/6 628/1/6
f 628/1/6 626/1/6 629/1/6
f 627/1/6 628/1/6 631/1/6
f 631/1/6 628/1/6 632/1/6
f 629/1/6 630/1/6 633/1/6
f 633/1/6 630/1/6 634/1/6
f 632/1/6 633/1/6 635/1/6
f 635/1/6 633/1/6 636/1/6
f 637/1/6 638/1/6 640/1/6
f 640/1/6 638/1/6 641/1/6
f 639/1/6 640/1/6 643/1/6
f 643/1/6 640/1/6 644/1/6
f 641/1/6 642/1/6 645/1/6
f 645/1/6 642/1/6 646/1/6
f 644/1/6 645/1/6 647/1/6
f 647/1/6 645/1/6 648/1/6
f 649/1/6 650/1/6 651/1/6
f 651/1/6 650/1/6 652/1/6
f 649/1/6 651/1/6 653/1/6
f 652/1/6 650/1/6 654/1/6
f 649/1/6 653/1/6 655/1/6
f 653/1/6 654/1/6 655/1/6
f 654/1/6 650/1/6 656/1/6
f 655/1/6 654/1/6 656/1/6
f 657/1/6 658/1/6 659/1/6
f 659/1/6 658/1/6 660/1/6
f 657/1/6 659/1/6 661/1/6
f 660/1/6 658/1/6 662/1/6
f 657/1/6 661/1/6 663/1/6
f 661/1/6 662/1/6 663/1/6
f 662/1/6 658/1/6 664/1/6
f 663/1/6 662/1/6 664/1/6
f 665/2/6 666/2/6 667/2/6
f 667/2/6 666/2/6 668/2/6
f 669/2/6 670/2/6 671/2/6
f 671/2/6 670/2/6 672/2/6
f 673/2/6 674/2/6 675/2/6
f 675/2/6 674/2/6 676/2/6
f 677/2/6 678/2/6 679/2/6
f 679/2/6 678/2/6 680/2/6
f 681/2/6 682/2/6 683/2/6
f 683/2/6 682/2/6 684/2/6
f 685/2/6 686/2/6 687/2/6
f 687/2/6 686/2/6 688/2/6
f 689/2/6 690/2/6 691/2/6
f 691/2/6 690/2/6 692/2/6
f 693/2/6 694/2/6 695/2/6
f 695/2/6 694/2/6 696/2/6
f 697/2/6 698/2/6 699/2/6
f 699/2/6 698/2/6 700/2/6
f 701/2/6 702/2/6 703/2/6
f 703/2/6 702/2/6 704/2/6
f 705/2/6 706/2/6 707/2/6
f 707/2/6 706/2/6 708/2/6
f 709/2/6 710/2/6 711/2/6
f 711/2/6 710/2/6 712/2/6
f 713/2/6 714/2/6 715/2/6
f 715/2/6 714/2/6 716/2/6
f 717/2/6 718/2/6 719/2/6
f 719/2/6 718/2/6 720/2/6
f 721/2/6 722/2/6 723/2/6
f 723/2/6 722/2/6 724/2/6
f 725/1/6 726/1/6 728/1/6
f 728/1/6 726/1/6 729/1/6
f 727/1/6 728/1/6 731/1/6
f 731/1/6 728/1/6 732/1/6
f 729/1/6 730/1/6 733/1/6
f 733/1/6 730/1/6 734/1/6
f 732/1/6 733/1/6 735/1/6
f 735/1/6 733/1/6 736/1/6
f 737/1/6 738/1/6 740/1/6
f 740/1/6 738/1/6 741/1/6
f 739/1/6 740/1/6 743/1/6
f 743/1/6 740/1/6 744/1/6
f 741/1/6 742/1/6 745/1/6
f 745/1/6 742/1/6 746/1/6
f 744/1/6 745/1/6 747/1/6
f 747/1/6 745/1/6 748/1/6
f 749/1/6 750/1/6 751/1/6
f 751/1/6 750/1/6 752/1/6
f 753/1/6 754/1/6 755/1/6
f 755/1/6 754/1/6 756/1/6
