# MagicaVoxel @ Ephtracy

# group
g carrinho_de_mao

# material
mtllib carrinho_de_mao.mtl
usemtl palette

# normals
vn -1 0 0
vn 1 0 0
vn 0 0 1
vn 0 0 -1
vn 0 -1 0
vn 0 1 0

# texcoords
vt 0.537109 0.5
vt 0.978516 0.5
vt 0.982422 0.5
vt 0.994141 0.5

# verts
v -20 16 6
v -20 16 4
v -20 16 -1
v -20 16 -3
v -20 18 6
v -20 18 4
v -20 18 -1
v -20 18 -3
v -13 15 9
v -13 15 -6
v -13 16 6
v -13 16 4
v -13 16 -1
v -13 16 -3
v -13 18 6
v -13 18 4
v -13 18 -1
v -13 18 -3
v -13 19 9
v -13 19 -6
v -12 13 8
v -12 13 -5
v -12 15 8
v -12 15 -5
v -11 11 7
v -11 11 -4
v -11 13 7
v -11 13 -4
v -10 9 6
v -10 9 -3
v -10 11 6
v -10 11 -3
v 7 11 6
v 7 11 -3
v 7 17 6
v 7 17 -3
v 8 17 7
v 8 17 -4
v 8 18 7
v 8 18 -4
v 9 10 6
v 9 10 5
v 9 11 6
v 9 11 5
v 9 18 8
v 9 18 -5
v 9 19 8
v 9 19 -5
v 10 7 3
v 10 7 -0
v 10 9 6
v 10 9 5
v 10 10 6
v 10 10 5
v 10 10 -2
v 10 10 -3
v 10 12 3
v 10 12 -0
v 10 12 -2
v 10 12 -3
v 11 6 3
v 11 6 -0
v 11 7 3
v 11 7 -0
v 11 12 3
v 11 12 -0
v 11 13 3
v 11 13 -0
v 12 5 3
v 12 5 -0
v 12 6 3
v 12 6 -0
v 12 9 -2
v 12 9 -3
v 12 10 -2
v 12 10 -3
v 12 13 3
v 12 13 -0
v 12 14 3
v 12 14 -0
v 14 9 5
v 14 9 2
v 14 9 1
v 14 9 -2
v 14 10 5
v 14 10 2
v 14 10 1
v 14 10 -2
v 16 6 3
v 16 6 2
v 16 6 1
v 16 6 -0
v 16 7 3
v 16 7 2
v 16 7 1
v 16 7 -0
v 16 12 3
v 16 12 2
v 16 12 1
v 16 12 -0
v 16 13 3
v 16 13 2
v 16 13 1
v 16 13 -0
v 17 7 3
v 17 7 2
v 17 7 1
v 17 7 -0
v 17 8 3
v 17 8 2
v 17 8 1
v 17 8 -0
v 17 11 3
v 17 11 2
v 17 11 1
v 17 11 -0
v 17 12 3
v 17 12 2
v 17 12 1
v 17 12 -0
v 18 8 3
v 18 8 2
v 18 8 1
v 18 8 -0
v 18 11 3
v 18 11 2
v 18 11 1
v 18 11 -0
v -12 18 8
v -12 18 -5
v -12 19 8
v -12 19 -5
v -11 17 7
v -11 17 -4
v -11 18 7
v -11 18 -4
v -10 11 6
v -10 11 -3
v -10 17 6
v -10 17 -3
v 7 9 6
v 7 9 -3
v 7 10 -2
v 7 10 -3
v 7 11 6
v 7 11 -2
v 8 10 -2
v 8 10 -3
v 8 11 7
v 8 11 6
v 8 11 5
v 8 11 -2
v 8 11 -3
v 8 11 -4
v 8 12 6
v 8 12 5
v 8 12 -2
v 8 12 -3
v 8 13 7
v 8 13 -2
v 8 13 -3
v 8 13 -4
v 9 13 8
v 9 13 -2
v 9 13 -3
v 9 13 -5
v 9 15 8
v 9 15 -5
v 10 11 6
v 10 11 5
v 10 12 6
v 10 12 5
v 10 15 9
v 10 15 -6
v 10 19 9
v 10 19 -6
v 11 8 3
v 11 8 2
v 11 8 1
v 11 8 -0
v 11 10 6
v 11 10 5
v 11 11 6
v 11 11 5
v 11 11 3
v 11 11 2
v 11 11 1
v 11 11 -0
v 11 11 -2
v 11 11 -3
v 11 13 -2
v 11 13 -3
v 12 7 3
v 12 7 2
v 12 7 1
v 12 7 -0
v 12 8 3
v 12 8 2
v 12 8 1
v 12 8 -0
v 12 11 3
v 12 11 2
v 12 11 1
v 12 11 -0
v 12 12 3
v 12 12 2
v 12 12 1
v 12 12 -0
v 13 6 3
v 13 6 2
v 13 6 1
v 13 6 -0
v 13 7 3
v 13 7 2
v 13 7 1
v 13 7 -0
v 13 10 -2
v 13 10 -3
v 13 11 -2
v 13 11 -3
v 13 12 3
v 13 12 2
v 13 12 1
v 13 12 -0
v 13 13 3
v 13 13 2
v 13 13 1
v 13 13 -0
v 15 9 6
v 15 9 5
v 15 9 2
v 15 9 1
v 15 9 -2
v 15 9 -3
v 15 10 6
v 15 10 5
v 15 10 2
v 15 10 1
v 15 10 -2
v 15 10 -3
v 17 5 3
v 17 5 -0
v 17 6 3
v 17 6 -0
v 17 13 3
v 17 13 -0
v 17 14 3
v 17 14 -0
v 18 6 3
v 18 6 -0
v 18 7 3
v 18 7 -0
v 18 12 3
v 18 12 -0
v 18 13 3
v 18 13 -0
v 19 7 3
v 19 7 -0
v 19 12 3
v 19 12 -0
v -13 15 9
v -13 19 9
v 10 15 9
v 10 19 9
v -12 13 8
v -12 15 8
v 9 13 8
v 9 15 8
v -11 11 7
v -11 13 7
v 8 11 7
v 8 13 7
v -20 16 6
v -20 18 6
v -13 16 6
v -13 18 6
v -10 9 6
v -10 11 6
v 7 9 6
v 7 11 6
v 8 11 6
v 8 12 6
v 9 10 6
v 9 11 6
v 10 9 6
v 10 10 6
v 10 11 6
v 10 12 6
v 11 10 6
v 11 11 6
v 15 9 6
v 15 10 6
v 10 7 3
v 10 12 3
v 11 6 3
v 11 7 3
v 11 8 3
v 11 11 3
v 11 12 3
v 11 13 3
v 12 5 3
v 12 6 3
v 12 7 3
v 12 8 3
v 12 11 3
v 12 12 3
v 12 13 3
v 12 14 3
v 13 6 3
v 13 7 3
v 13 12 3
v 13 13 3
v 16 6 3
v 16 7 3
v 16 12 3
v 16 13 3
v 17 5 3
v 17 6 3
v 17 7 3
v 17 8 3
v 17 11 3
v 17 12 3
v 17 13 3
v 17 14 3
v 18 6 3
v 18 7 3
v 18 8 3
v 18 11 3
v 18 12 3
v 18 13 3
v 19 7 3
v 19 12 3
v 11 8 2
v 11 11 2
v 12 7 2
v 12 8 2
v 12 11 2
v 12 12 2
v 13 6 2
v 13 7 2
v 13 12 2
v 13 13 2
v 14 9 2
v 14 10 2
v 15 9 2
v 15 10 2
v 16 6 2
v 16 7 2
v 16 12 2
v 16 13 2
v 17 7 2
v 17 8 2
v 17 11 2
v 17 12 2
v 18 8 2
v 18 11 2
v -20 16 -1
v -20 18 -1
v -13 16 -1
v -13 18 -1
v 7 10 -2
v 7 11 -2
v 8 10 -2
v 8 11 -2
v 8 12 -2
v 8 13 -2
v 9 13 -2
v 10 10 -2
v 10 12 -2
v 11 11 -2
v 11 13 -2
v 12 9 -2
v 12 10 -2
v 13 10 -2
v 13 11 -2
v 14 9 -2
v 14 10 -2
v -10 11 -3
v -10 17 -3
v 7 11 -3
v 7 17 -3
v -11 17 -4
v -11 18 -4
v 8 17 -4
v 8 18 -4
v -12 18 -5
v -12 19 -5
v 9 18 -5
v 9 19 -5
v -12 18 8
v -12 19 8
v 9 18 8
v 9 19 8
v -11 17 7
v -11 18 7
v 8 17 7
v 8 18 7
v -10 11 6
v -10 17 6
v 7 11 6
v 7 17 6
v 8 11 5
v 8 12 5
v 9 10 5
v 9 11 5
v 10 9 5
v 10 10 5
v 10 11 5
v 10 12 5
v 11 10 5
v 11 11 5
v 14 9 5
v 14 10 5
v -20 16 4
v -20 18 4
v -13 16 4
v -13 18 4
v 11 8 1
v 11 11 1
v 12 7 1
v 12 8 1
v 12 11 1
v 12 12 1
v 13 6 1
v 13 7 1
v 13 12 1
v 13 13 1
v 14 9 1
v 14 10 1
v 15 9 1
v 15 10 1
v 16 6 1
v 16 7 1
v 16 12 1
v 16 13 1
v 17 7 1
v 17 8 1
v 17 11 1
v 17 12 1
v 18 8 1
v 18 11 1
v 10 7 -0
v 10 12 -0
v 11 6 -0
v 11 7 -0
v 11 8 -0
v 11 11 -0
v 11 12 -0
v 11 13 -0
v 12 5 -0
v 12 6 -0
v 12 7 -0
v 12 8 -0
v 12 11 -0
v 12 12 -0
v 12 13 -0
v 12 14 -0
v 13 6 -0
v 13 7 -0
v 13 12 -0
v 13 13 -0
v 16 6 -0
v 16 7 -0
v 16 12 -0
v 16 13 -0
v 17 5 -0
v 17 6 -0
v 17 7 -0
v 17 8 -0
v 17 11 -0
v 17 12 -0
v 17 13 -0
v 17 14 -0
v 18 6 -0
v 18 7 -0
v 18 8 -0
v 18 11 -0
v 18 12 -0
v 18 13 -0
v 19 7 -0
v 19 12 -0
v -20 16 -3
v -20 18 -3
v -13 16 -3
v -13 18 -3
v -10 9 -3
v -10 11 -3
v 7 9 -3
v 7 10 -3
v 8 10 -3
v 8 11 -3
v 8 12 -3
v 8 13 -3
v 9 13 -3
v 10 10 -3
v 10 12 -3
v 11 11 -3
v 11 13 -3
v 12 9 -3
v 12 10 -3
v 13 10 -3
v 13 11 -3
v 15 9 -3
v 15 10 -3
v -11 11 -4
v -11 13 -4
v 8 11 -4
v 8 13 -4
v -12 13 -5
v -12 15 -5
v 9 13 -5
v 9 15 -5
v -13 15 -6
v -13 19 -6
v 10 15 -6
v 10 19 -6
v 12 5 3
v 17 5 3
v 12 5 -0
v 17 5 -0
v 11 6 3
v 12 6 3
v 17 6 3
v 18 6 3
v 11 6 -0
v 12 6 -0
v 17 6 -0
v 18 6 -0
v 10 7 3
v 11 7 3
v 18 7 3
v 19 7 3
v 10 7 -0
v 11 7 -0
v 18 7 -0
v 19 7 -0
v -10 9 6
v 7 9 6
v 10 9 6
v 15 9 6
v 10 9 5
v 14 9 5
v 15 9 5
v 14 9 2
v 15 9 2
v 14 9 1
v 15 9 1
v 12 9 -2
v 14 9 -2
v 15 9 -2
v -10 9 -3
v 7 9 -3
v 12 9 -3
v 15 9 -3
v 9 10 6
v 10 10 6
v 9 10 5
v 10 10 5
v 7 10 -2
v 8 10 -2
v 10 10 -2
v 12 10 -2
v 7 10 -3
v 8 10 -3
v 10 10 -3
v 12 10 -3
v -11 11 7
v 8 11 7
v -10 11 6
v 7 11 6
v 8 11 6
v 9 11 6
v 8 11 5
v 9 11 5
v 11 11 3
v 12 11 3
v 17 11 3
v 18 11 3
v 11 11 2
v 12 11 2
v 17 11 2
v 18 11 2
v 11 11 1
v 12 11 1
v 17 11 1
v 18 11 1
v 11 11 -0
v 12 11 -0
v 17 11 -0
v 18 11 -0
v 7 11 -2
v 8 11 -2
v -10 11 -3
v 8 11 -3
v -11 11 -4
v 8 11 -4
v 12 12 3
v 13 12 3
v 16 12 3
v 17 12 3
v 12 12 2
v 13 12 2
v 16 12 2
v 17 12 2
v 12 12 1
v 13 12 1
v 16 12 1
v 17 12 1
v 12 12 -0
v 13 12 -0
v 16 12 -0
v 17 12 -0
v 8 12 -2
v 10 12 -2
v 8 12 -3
v 10 12 -3
v -12 13 8
v 9 13 8
v -11 13 7
v 8 13 7
v 13 13 3
v 16 13 3
v 13 13 2
v 16 13 2
v 13 13 1
v 16 13 1
v 13 13 -0
v 16 13 -0
v 8 13 -2
v 9 13 -2
v 8 13 -3
v 9 13 -3
v -11 13 -4
v 8 13 -4
v -12 13 -5
v 9 13 -5
v -13 15 9
v 10 15 9
v -12 15 8
v 9 15 8
v -12 15 -5
v 9 15 -5
v -13 15 -6
v 10 15 -6
v -20 16 6
v -13 16 6
v -20 16 4
v -13 16 4
v -20 16 -1
v -13 16 -1
v -20 16 -3
v -13 16 -3
v 13 6 3
v 16 6 3
v 13 6 2
v 16 6 2
v 13 6 1
v 16 6 1
v 13 6 -0
v 16 6 -0
v 12 7 3
v 13 7 3
v 16 7 3
v 17 7 3
v 12 7 2
v 13 7 2
v 16 7 2
v 17 7 2
v 12 7 1
v 13 7 1
v 16 7 1
v 17 7 1
v 12 7 -0
v 13 7 -0
v 16 7 -0
v 17 7 -0
v 11 8 3
v 12 8 3
v 17 8 3
v 18 8 3
v 11 8 2
v 12 8 2
v 17 8 2
v 18 8 2
v 11 8 1
v 12 8 1
v 17 8 1
v 18 8 1
v 11 8 -0
v 12 8 -0
v 17 8 -0
v 18 8 -0
v 11 10 6
v 15 10 6
v 11 10 5
v 14 10 5
v 15 10 5
v 14 10 2
v 15 10 2
v 14 10 1
v 15 10 1
v 13 10 -2
v 14 10 -2
v 15 10 -2
v 13 10 -3
v 15 10 -3
v -10 11 6
v 7 11 6
v 10 11 6
v 11 11 6
v 10 11 5
v 11 11 5
v 11 11 -2
v 13 11 -2
v -10 11 -3
v 7 11 -3
v 11 11 -3
v 13 11 -3
v 8 12 6
v 10 12 6
v 8 12 5
v 10 12 5
v 10 12 3
v 11 12 3
v 18 12 3
v 19 12 3
v 10 12 -0
v 11 12 -0
v 18 12 -0
v 19 12 -0
v 11 13 3
v 12 13 3
v 17 13 3
v 18 13 3
v 11 13 -0
v 12 13 -0
v 17 13 -0
v 18 13 -0
v 9 13 -2
v 11 13 -2
v 9 13 -3
v 11 13 -3
v 12 14 3
v 17 14 3
v 12 14 -0
v 17 14 -0
v -11 17 7
v 8 17 7
v -10 17 6
v 7 17 6
v -10 17 -3
v 7 17 -3
v -11 17 -4
v 8 17 -4
v -12 18 8
v 9 18 8
v -11 18 7
v 8 18 7
v -20 18 6
v -13 18 6
v -20 18 4
v -13 18 4
v -20 18 -1
v -13 18 -1
v -20 18 -3
v -13 18 -3
v -11 18 -4
v 8 18 -4
v -12 18 -5
v 9 18 -5
v -13 19 9
v 10 19 9
v -12 19 8
v 9 19 8
v -12 19 -5
v 9 19 -5
v -13 19 -6
v 10 19 -6

# faces
f 5/1/1 2/1/1 1/1/1
f 6/1/1 2/1/1 5/1/1
f 7/1/1 4/1/1 3/1/1
f 8/1/1 4/1/1 7/1/1
f 11/2/1 10/2/1 9/2/1
f 12/2/1 10/2/1 11/2/1
f 13/2/1 10/2/1 12/2/1
f 14/2/1 10/2/1 13/2/1
f 15/2/1 11/2/1 9/2/1
f 16/2/1 13/2/1 12/2/1
f 17/2/1 13/2/1 16/2/1
f 18/2/1 10/2/1 14/2/1
f 19/2/1 17/2/1 16/2/1
f 19/2/1 18/2/1 17/2/1
f 19/2/1 15/2/1 9/2/1
f 19/2/1 16/2/1 15/2/1
f 20/2/1 10/2/1 18/2/1
f 20/2/1 18/2/1 19/2/1
f 23/2/1 22/2/1 21/2/1
f 24/2/1 22/2/1 23/2/1
f 27/2/1 26/2/1 25/2/1
f 28/2/1 26/2/1 27/2/1
f 31/2/1 30/2/1 29/2/1
f 32/2/1 30/2/1 31/2/1
f 35/2/1 34/2/1 33/2/1
f 36/2/1 34/2/1 35/2/1
f 39/2/1 38/2/1 37/2/1
f 40/2/1 38/2/1 39/2/1
f 43/2/1 42/2/1 41/2/1
f 44/2/1 42/2/1 43/2/1
f 47/2/1 46/2/1 45/2/1
f 48/2/1 46/2/1 47/2/1
f 53/2/1 52/2/1 51/2/1
f 54/2/1 52/2/1 53/2/1
f 57/4/1 50/4/1 49/4/1
f 58/4/1 50/4/1 57/4/1
f 59/2/1 56/2/1 55/2/1
f 60/2/1 56/2/1 59/2/1
f 63/4/1 62/4/1 61/4/1
f 64/4/1 62/4/1 63/4/1
f 67/4/1 66/4/1 65/4/1
f 68/4/1 66/4/1 67/4/1
f 71/4/1 70/4/1 69/4/1
f 72/4/1 70/4/1 71/4/1
f 75/2/1 74/2/1 73/2/1
f 76/2/1 74/2/1 75/2/1
f 79/4/1 78/4/1 77/4/1
f 80/4/1 78/4/1 79/4/1
f 85/4/1 82/4/1 81/4/1
f 86/4/1 82/4/1 85/4/1
f 87/4/1 84/4/1 83/4/1
f 88/4/1 84/4/1 87/4/1
f 93/4/1 90/4/1 89/4/1
f 94/4/1 90/4/1 93/4/1
f 95/4/1 92/4/1 91/4/1
f 96/4/1 92/4/1 95/4/1
f 101/4/1 98/4/1 97/4/1
f 102/4/1 98/4/1 101/4/1
f 103/4/1 100/4/1 99/4/1
f 104/4/1 100/4/1 103/4/1
f 109/4/1 106/4/1 105/4/1
f 110/4/1 106/4/1 109/4/1
f 111/4/1 108/4/1 107/4/1
f 112/4/1 108/4/1 111/4/1
f 117/4/1 114/4/1 113/4/1
f 118/4/1 114/4/1 117/4/1
f 119/4/1 116/4/1 115/4/1
f 120/4/1 116/4/1 119/4/1
f 125/4/1 122/4/1 121/4/1
f 126/4/1 122/4/1 125/4/1
f 127/4/1 124/4/1 123/4/1
f 128/4/1 124/4/1 127/4/1
f 129/2/2 130/2/2 131/2/2
f 131/2/2 130/2/2 132/2/2
f 133/2/2 134/2/2 135/2/2
f 135/2/2 134/2/2 136/2/2
f 137/2/2 138/2/2 139/2/2
f 139/2/2 138/2/2 140/2/2
f 141/2/2 142/2/2 143/2/2
f 143/2/2 142/2/2 144/2/2
f 141/2/2 143/2/2 145/2/2
f 145/2/2 143/2/2 146/2/2
f 147/2/2 148/2/2 152/2/2
f 152/2/2 148/2/2 153/2/2
f 149/2/2 150/2/2 155/2/2
f 153/2/2 154/2/2 156/2/2
f 151/2/2 152/2/2 156/2/2
f 152/2/2 153/2/2 156/2/2
f 156/2/2 154/2/2 157/2/2
f 157/2/2 154/2/2 158/2/2
f 149/2/2 155/2/2 159/2/2
f 155/2/2 156/2/2 159/2/2
f 156/2/2 157/2/2 159/2/2
f 159/2/2 157/2/2 160/2/2
f 158/2/2 154/2/2 161/2/2
f 161/2/2 154/2/2 162/2/2
f 163/2/2 164/2/2 167/2/2
f 165/2/2 166/2/2 167/2/2
f 164/2/2 165/2/2 167/2/2
f 167/2/2 166/2/2 168/2/2
f 169/2/2 170/2/2 171/2/2
f 171/2/2 170/2/2 172/2/2
f 173/2/2 174/2/2 175/2/2
f 175/2/2 174/2/2 176/2/2
f 181/2/2 182/2/2 183/2/2
f 183/2/2 182/2/2 184/2/2
f 177/4/2 178/4/2 185/4/2
f 185/4/2 178/4/2 186/4/2
f 179/4/2 180/4/2 187/4/2
f 187/4/2 180/4/2 188/4/2
f 189/2/2 190/2/2 191/2/2
f 191/2/2 190/2/2 192/2/2
f 193/4/2 194/4/2 197/4/2
f 197/4/2 194/4/2 198/4/2
f 195/4/2 196/4/2 199/4/2
f 199/4/2 196/4/2 200/4/2
f 201/4/2 202/4/2 205/4/2
f 205/4/2 202/4/2 206/4/2
f 203/4/2 204/4/2 207/4/2
f 207/4/2 204/4/2 208/4/2
f 209/4/2 210/4/2 213/4/2
f 213/4/2 210/4/2 214/4/2
f 211/4/2 212/4/2 215/4/2
f 215/4/2 212/4/2 216/4/2
f 217/2/2 218/2/2 219/2/2
f 219/2/2 218/2/2 220/2/2
f 221/4/2 222/4/2 225/4/2
f 225/4/2 222/4/2 226/4/2
f 223/4/2 224/4/2 227/4/2
f 227/4/2 224/4/2 228/4/2
f 229/2/2 230/2/2 235/2/2
f 230/4/2 231/4/2 236/4/2
f 235/2/2 230/2/2 236/2/2
f 236/4/2 231/4/2 237/4/2
f 232/4/2 233/4/2 238/4/2
f 233/2/2 234/2/2 239/2/2
f 238/4/2 233/4/2 239/4/2
f 239/2/2 234/2/2 240/2/2
f 241/4/2 242/4/2 243/4/2
f 243/4/2 242/4/2 244/4/2
f 245/4/2 246/4/2 247/4/2
f 247/4/2 246/4/2 248/4/2
f 249/4/2 250/4/2 251/4/2
f 251/4/2 250/4/2 252/4/2
f 253/4/2 254/4/2 255/4/2
f 255/4/2 254/4/2 256/4/2
f 257/4/2 258/4/2 259/4/2
f 259/4/2 258/4/2 260/4/2
f 263/2/3 262/2/3 261/2/3
f 264/2/3 262/2/3 263/2/3
f 267/2/3 266/2/3 265/2/3
f 268/2/3 266/2/3 267/2/3
f 271/2/3 270/2/3 269/2/3
f 272/2/3 270/2/3 271/2/3
f 275/1/3 274/1/3 273/1/3
f 276/1/3 274/1/3 275/1/3
f 279/2/3 278/2/3 277/2/3
f 280/2/3 278/2/3 279/2/3
f 284/2/3 282/2/3 281/2/3
f 286/2/3 284/2/3 283/2/3
f 287/2/3 282/2/3 284/2/3
f 287/2/3 284/2/3 286/2/3
f 288/2/3 282/2/3 287/2/3
f 289/2/3 286/2/3 285/2/3
f 289/2/3 287/2/3 286/2/3
f 290/2/3 287/2/3 289/2/3
f 291/2/3 289/2/3 285/2/3
f 292/2/3 289/2/3 291/2/3
f 296/4/3 294/4/3 293/4/3
f 297/4/3 294/4/3 296/4/3
f 298/4/3 294/4/3 297/4/3
f 299/4/3 294/4/3 298/4/3
f 302/4/3 296/4/3 295/4/3
f 302/4/3 297/4/3 296/4/3
f 303/4/3 297/4/3 302/4/3
f 304/4/3 297/4/3 303/4/3
f 305/4/3 299/4/3 298/4/3
f 305/4/3 300/4/3 299/4/3
f 306/4/3 300/4/3 305/4/3
f 307/4/3 300/4/3 306/4/3
f 309/4/3 303/4/3 302/4/3
f 309/4/3 302/4/3 301/4/3
f 310/4/3 303/4/3 309/4/3
f 311/4/3 308/4/3 307/4/3
f 311/4/3 307/4/3 306/4/3
f 312/4/3 308/4/3 311/4/3
f 313/4/3 309/4/3 301/4/3
f 316/4/3 308/4/3 312/4/3
f 317/4/3 314/4/3 313/4/3
f 317/4/3 313/4/3 301/4/3
f 318/4/3 314/4/3 317/4/3
f 319/4/3 314/4/3 318/4/3
f 322/4/3 316/4/3 315/4/3
f 323/4/3 308/4/3 316/4/3
f 323/4/3 316/4/3 322/4/3
f 324/4/3 308/4/3 323/4/3
f 325/4/3 320/4/3 319/4/3
f 325/4/3 319/4/3 318/4/3
f 326/4/3 320/4/3 325/4/3
f 327/4/3 320/4/3 326/4/3
f 328/4/3 322/4/3 321/4/3
f 328/4/3 323/4/3 322/4/3
f 329/4/3 323/4/3 328/4/3
f 330/4/3 323/4/3 329/4/3
f 331/4/3 327/4/3 326/4/3
f 331/4/3 329/4/3 328/4/3
f 331/4/3 328/4/3 327/4/3
f 332/4/3 329/4/3 331/4/3
f 336/3/3 334/3/3 333/3/3
f 337/3/3 334/3/3 336/3/3
f 340/3/3 336/3/3 335/3/3
f 340/3/3 338/3/3 337/3/3
f 340/3/3 337/3/3 336/3/3
f 341/3/3 338/3/3 340/3/3
f 343/3/3 340/3/3 339/3/3
f 343/3/3 342/3/3 341/3/3
f 343/3/3 341/3/3 340/3/3
f 344/3/3 342/3/3 343/3/3
f 345/3/3 343/3/3 339/3/3
f 346/3/3 342/3/3 344/3/3
f 347/3/3 345/3/3 339/3/3
f 347/3/3 346/3/3 345/3/3
f 348/3/3 346/3/3 347/3/3
f 349/3/3 342/3/3 346/3/3
f 349/3/3 346/3/3 348/3/3
f 350/3/3 342/3/3 349/3/3
f 351/3/3 349/3/3 348/3/3
f 352/3/3 349/3/3 351/3/3
f 353/3/3 349/3/3 352/3/3
f 354/3/3 349/3/3 353/3/3
f 355/3/3 353/3/3 352/3/3
f 356/3/3 353/3/3 355/3/3
f 359/1/3 358/1/3 357/1/3
f 360/1/3 358/1/3 359/1/3
f 363/2/3 362/2/3 361/2/3
f 364/2/3 362/2/3 363/2/3
f 367/2/3 366/2/3 365/2/3
f 369/2/3 367/2/3 365/2/3
f 370/2/3 369/2/3 368/2/3
f 371/2/3 367/2/3 369/2/3
f 371/2/3 369/2/3 370/2/3
f 373/2/3 370/2/3 368/2/3
f 374/2/3 370/2/3 373/2/3
f 374/2/3 373/2/3 372/2/3
f 375/2/3 370/2/3 374/2/3
f 376/2/3 374/2/3 372/2/3
f 377/2/3 374/2/3 376/2/3
f 380/2/3 379/2/3 378/2/3
f 381/2/3 379/2/3 380/2/3
f 384/2/3 383/2/3 382/2/3
f 385/2/3 383/2/3 384/2/3
f 388/2/3 387/2/3 386/2/3
f 389/2/3 387/2/3 388/2/3
f 390/2/4 391/2/4 392/2/4
f 392/2/4 391/2/4 393/2/4
f 394/2/4 395/2/4 396/2/4
f 396/2/4 395/2/4 397/2/4
f 398/2/4 399/2/4 400/2/4
f 400/2/4 399/2/4 401/2/4
f 402/2/4 403/2/4 405/2/4
f 404/2/4 405/2/4 407/2/4
f 405/2/4 403/2/4 408/2/4
f 407/2/4 405/2/4 408/2/4
f 408/2/4 403/2/4 409/2/4
f 406/2/4 407/2/4 410/2/4
f 407/2/4 408/2/4 410/2/4
f 410/2/4 408/2/4 411/2/4
f 406/2/4 410/2/4 412/2/4
f 412/2/4 410/2/4 413/2/4
f 414/1/4 415/1/4 416/1/4
f 416/1/4 415/1/4 417/1/4
f 418/3/4 419/3/4 421/3/4
f 421/3/4 419/3/4 422/3/4
f 420/3/4 421/3/4 425/3/4
f 422/3/4 423/3/4 425/3/4
f 421/3/4 422/3/4 425/3/4
f 425/3/4 423/3/4 426/3/4
f 424/3/4 425/3/4 428/3/4
f 426/3/4 427/3/4 428/3/4
f 425/3/4 426/3/4 428/3/4
f 428/3/4 427/3/4 429/3/4
f 424/3/4 428/3/4 430/3/4
f 429/3/4 427/3/4 431/3/4
f 424/3/4 430/3/4 432/3/4
f 430/3/4 431/3/4 432/3/4
f 432/3/4 431/3/4 433/3/4
f 431/3/4 427/3/4 434/3/4
f 433/3/4 431/3/4 434/3/4
f 434/3/4 427/3/4 435/3/4
f 433/3/4 434/3/4 436/3/4
f 436/3/4 434/3/4 437/3/4
f 437/3/4 434/3/4 438/3/4
f 438/3/4 434/3/4 439/3/4
f 437/3/4 438/3/4 440/3/4
f 440/3/4 438/3/4 441/3/4
f 442/4/4 443/4/4 445/4/4
f 445/4/4 443/4/4 446/4/4
f 446/4/4 443/4/4 447/4/4
f 447/4/4 443/4/4 448/4/4
f 444/4/4 445/4/4 451/4/4
f 445/4/4 446/4/4 451/4/4
f 451/4/4 446/4/4 452/4/4
f 452/4/4 446/4/4 453/4/4
f 447/4/4 448/4/4 454/4/4
f 448/4/4 449/4/4 454/4/4
f 454/4/4 449/4/4 455/4/4
f 455/4/4 449/4/4 456/4/4
f 451/4/4 452/4/4 458/4/4
f 450/4/4 451/4/4 458/4/4
f 458/4/4 452/4/4 459/4/4
f 456/4/4 457/4/4 460/4/4
f 455/4/4 456/4/4 460/4/4
f 460/4/4 457/4/4 461/4/4
f 450/4/4 458/4/4 462/4/4
f 461/4/4 457/4/4 465/4/4
f 462/4/4 463/4/4 466/4/4
f 450/4/4 462/4/4 466/4/4
f 466/4/4 463/4/4 467/4/4
f 467/4/4 463/4/4 468/4/4
f 464/4/4 465/4/4 471/4/4
f 465/4/4 457/4/4 472/4/4
f 471/4/4 465/4/4 472/4/4
f 472/4/4 457/4/4 473/4/4
f 468/4/4 469/4/4 474/4/4
f 467/4/4 468/4/4 474/4/4
f 474/4/4 469/4/4 475/4/4
f 475/4/4 469/4/4 476/4/4
f 470/4/4 471/4/4 477/4/4
f 471/4/4 472/4/4 477/4/4
f 477/4/4 472/4/4 478/4/4
f 478/4/4 472/4/4 479/4/4
f 475/4/4 476/4/4 480/4/4
f 477/4/4 478/4/4 480/4/4
f 476/4/4 477/4/4 480/4/4
f 480/4/4 478/4/4 481/4/4
f 482/1/4 483/1/4 484/1/4
f 484/1/4 483/1/4 485/1/4
f 486/2/4 487/2/4 488/2/4
f 488/2/4 487/2/4 489/2/4
f 489/2/4 487/2/4 490/2/4
f 490/2/4 487/2/4 491/2/4
f 492/2/4 493/2/4 494/2/4
f 492/2/4 494/2/4 496/2/4
f 495/2/4 496/2/4 497/2/4
f 496/2/4 494/2/4 498/2/4
f 497/2/4 496/2/4 498/2/4
f 495/2/4 497/2/4 500/2/4
f 500/2/4 497/2/4 501/2/4
f 499/2/4 500/2/4 501/2/4
f 501/2/4 497/2/4 502/2/4
f 499/2/4 501/2/4 503/2/4
f 503/2/4 501/2/4 504/2/4
f 505/2/4 506/2/4 507/2/4
f 507/2/4 506/2/4 508/2/4
f 509/2/4 510/2/4 511/2/4
f 511/2/4 510/2/4 512/2/4
f 513/2/4 514/2/4 515/2/4
f 515/2/4 514/2/4 516/2/4
f 519/4/5 518/4/5 517/4/5
f 520/4/5 518/4/5 519/4/5
f 525/4/5 522/4/5 521/4/5
f 526/4/5 522/4/5 525/4/5
f 527/4/5 524/4/5 523/4/5
f 528/4/5 524/4/5 527/4/5
f 533/4/5 530/4/5 529/4/5
f 534/4/5 530/4/5 533/4/5
f 535/4/5 532/4/5 531/4/5
f 536/4/5 532/4/5 535/4/5
f 541/2/5 540/2/5 539/2/5
f 542/2/5 540/2/5 541/2/5
f 543/2/5 540/2/5 542/2/5
f 544/4/5 543/4/5 542/4/5
f 545/4/5 543/4/5 544/4/5
f 549/4/5 547/4/5 546/4/5
f 550/4/5 547/4/5 549/4/5
f 551/2/5 538/2/5 537/2/5
f 552/2/5 538/2/5 551/2/5
f 553/2/5 549/2/5 548/2/5
f 553/2/5 550/2/5 549/2/5
f 554/2/5 550/2/5 553/2/5
f 557/2/5 556/2/5 555/2/5
f 558/2/5 556/2/5 557/2/5
f 563/2/5 560/2/5 559/2/5
f 564/2/5 560/2/5 563/2/5
f 565/2/5 562/2/5 561/2/5
f 566/2/5 562/2/5 565/2/5
f 569/2/5 568/2/5 567/2/5
f 570/2/5 568/2/5 569/2/5
f 571/2/5 568/2/5 570/2/5
f 573/2/5 572/2/5 571/2/5
f 573/2/5 571/2/5 570/2/5
f 574/2/5 572/2/5 573/2/5
f 579/4/5 576/4/5 575/4/5
f 580/4/5 576/4/5 579/4/5
f 581/4/5 578/4/5 577/4/5
f 582/4/5 578/4/5 581/4/5
f 587/4/5 584/4/5 583/4/5
f 588/4/5 584/4/5 587/4/5
f 589/4/5 586/4/5 585/4/5
f 590/4/5 586/4/5 589/4/5
f 591/2/5 573/2/5 570/2/5
f 592/2/5 573/2/5 591/2/5
f 593/2/5 569/2/5 567/2/5
f 595/2/5 593/2/5 567/2/5
f 595/2/5 594/2/5 593/2/5
f 596/2/5 594/2/5 595/2/5
f 601/4/5 598/4/5 597/4/5
f 602/4/5 598/4/5 601/4/5
f 603/4/5 600/4/5 599/4/5
f 604/4/5 600/4/5 603/4/5
f 609/4/5 606/4/5 605/4/5
f 610/4/5 606/4/5 609/4/5
f 611/4/5 608/4/5 607/4/5
f 612/4/5 608/4/5 611/4/5
f 615/2/5 614/2/5 613/2/5
f 616/2/5 614/2/5 615/2/5
f 619/2/5 618/2/5 617/2/5
f 620/2/5 618/2/5 619/2/5
f 623/4/5 622/4/5 621/4/5
f 624/4/5 622/4/5 623/4/5
f 627/4/5 626/4/5 625/4/5
f 628/4/5 626/4/5 627/4/5
f 629/2/5 618/2/5 620/2/5
f 630/2/5 618/2/5 629/2/5
f 633/2/5 619/2/5 617/2/5
f 634/2/5 632/2/5 631/2/5
f 635/2/5 633/2/5 617/2/5
f 635/2/5 634/2/5 633/2/5
f 636/2/5 632/2/5 634/2/5
f 636/2/5 634/2/5 635/2/5
f 639/2/5 638/2/5 637/2/5
f 640/2/5 638/2/5 639/2/5
f 641/2/5 639/2/5 637/2/5
f 642/2/5 638/2/5 640/2/5
f 643/2/5 641/2/5 637/2/5
f 643/2/5 642/2/5 641/2/5
f 644/2/5 638/2/5 642/2/5
f 644/2/5 642/2/5 643/2/5
f 647/1/5 646/1/5 645/1/5
f 648/1/5 646/1/5 647/1/5
f 651/1/5 650/1/5 649/1/5
f 652/1/5 650/1/5 651/1/5
f 653/4/6 654/4/6 655/4/6
f 655/4/6 654/4/6 656/4/6
f 657/4/6 658/4/6 659/4/6
f 659/4/6 658/4/6 660/4/6
f 661/4/6 662/4/6 665/4/6
f 665/4/6 662/4/6 666/4/6
f 663/4/6 664/4/6 667/4/6
f 667/4/6 664/4/6 668/4/6
f 669/4/6 670/4/6 673/4/6
f 673/4/6 670/4/6 674/4/6
f 671/4/6 672/4/6 675/4/6
f 675/4/6 672/4/6 676/4/6
f 677/4/6 678/4/6 681/4/6
f 681/4/6 678/4/6 682/4/6
f 679/4/6 680/4/6 683/4/6
f 683/4/6 680/4/6 684/4/6
f 685/4/6 686/4/6 689/4/6
f 689/4/6 686/4/6 690/4/6
f 687/4/6 688/4/6 691/4/6
f 691/4/6 688/4/6 692/4/6
f 693/2/6 694/2/6 695/2/6
f 695/2/6 694/2/6 696/2/6
f 696/2/6 694/2/6 697/2/6
f 696/4/6 697/4/6 698/4/6
f 698/4/6 697/4/6 699/4/6
f 700/4/6 701/4/6 703/4/6
f 703/4/6 701/4/6 704/4/6
f 702/2/6 703/2/6 705/2/6
f 703/2/6 704/2/6 705/2/6
f 705/2/6 704/2/6 706/2/6
f 709/2/6 710/2/6 711/2/6
f 711/2/6 710/2/6 712/2/6
f 707/2/6 708/2/6 715/2/6
f 715/2/6 708/2/6 716/2/6
f 713/2/6 714/2/6 717/2/6
f 717/2/6 714/2/6 718/2/6
f 719/2/6 720/2/6 721/2/6
f 721/2/6 720/2/6 722/2/6
f 723/4/6 724/4/6 727/4/6
f 727/4/6 724/4/6 728/4/6
f 725/4/6 726/4/6 729/4/6
f 729/4/6 726/4/6 730/4/6
f 731/4/6 732/4/6 735/4/6
f 735/4/6 732/4/6 736/4/6
f 733/4/6 734/4/6 737/4/6
f 737/4/6 734/4/6 738/4/6
f 739/2/6 740/2/6 741/2/6
f 741/2/6 740/2/6 742/2/6
f 743/4/6 744/4/6 745/4/6
f 745/4/6 744/4/6 746/4/6
f 747/2/6 748/2/6 749/2/6
f 749/2/6 748/2/6 750/2/6
f 747/2/6 749/2/6 751/2/6
f 750/2/6 748/2/6 752/2/6
f 747/2/6 751/2/6 753/2/6
f 751/2/6 752/2/6 753/2/6
f 752/2/6 748/2/6 754/2/6
f 753/2/6 752/2/6 754/2/6
f 755/2/6 756/2/6 757/2/6
f 757/2/6 756/2/6 758/2/6
f 759/1/6 760/1/6 761/1/6
f 761/1/6 760/1/6 762/1/6
f 763/1/6 764/1/6 765/1/6
f 765/1/6 764/1/6 766/1/6
f 755/2/6 757/2/6 767/2/6
f 758/2/6 756/2/6 768/2/6
f 755/2/6 767/2/6 769/2/6
f 767/2/6 768/2/6 769/2/6
f 768/2/6 756/2/6 770/2/6
f 769/2/6 768/2/6 770/2/6
f 771/2/6 772/2/6 773/2/6
f 773/2/6 772/2/6 774/2/6
f 771/2/6 773/2/6 775/2/6
f 774/2/6 772/2/6 776/2/6
f 771/2/6 775/2/6 777/2/6
f 775/2/6 776/2/6 777/2/6
f 776/2/6 772/2/6 778/2/6
f 777/2/6 776/2/6 778/2/6
