# MagicaVoxel @ Ephtracy

# group
g janela_quadrada_2

# material
mtllib janela_quadrada_2.mtl
usemtl palette

# normals
vn -1 0 0
vn 1 0 0
vn 0 0 1
vn 0 0 -1
vn 0 -1 0
vn 0 1 0

# texcoords
vt 0.306641 0.5
vt 0.958984 0.5

# verts
v -11.5 33 36.5
v -11.5 33 33.5
v -11.5 35 34.5
v -11.5 35 33.5
v -11.5 71 36.5
v -11.5 71 34.5
v -0.5 36 35.5
v -0.5 36 34.5
v -0.5 51 35.5
v -0.5 51 34.5
v -0.5 53 35.5
v -0.5 53 34.5
v -0.5 68 35.5
v -0.5 68 34.5
v 10.5 36 35.5
v 10.5 36 34.5
v 10.5 51 35.5
v 10.5 51 34.5
v 10.5 53 35.5
v 10.5 53 34.5
v 10.5 68 35.5
v 10.5 68 34.5
v -9.5 36 35.5
v -9.5 36 34.5
v -9.5 51 35.5
v -9.5 51 34.5
v -9.5 53 35.5
v -9.5 53 34.5
v -9.5 68 35.5
v -9.5 68 34.5
v 1.5 36 35.5
v 1.5 36 34.5
v 1.5 51 35.5
v 1.5 51 34.5
v 1.5 53 35.5
v 1.5 53 34.5
v 1.5 68 35.5
v 1.5 68 34.5
v 12.5 33 36.5
v 12.5 33 33.5
v 12.5 35 34.5
v 12.5 35 33.5
v 12.5 71 36.5
v 12.5 71 34.5
v -11.5 33 36.5
v -11.5 71 36.5
v -9.5 36 36.5
v -9.5 68 36.5
v -0.5 36 36.5
v -0.5 68 36.5
v 1.5 36 36.5
v 1.5 68 36.5
v 10.5 36 36.5
v 10.5 68 36.5
v 12.5 33 36.5
v 12.5 71 36.5
v -9.5 36 35.5
v -9.5 51 35.5
v -9.5 53 35.5
v -9.5 68 35.5
v -0.5 36 35.5
v -0.5 51 35.5
v -0.5 53 35.5
v -0.5 68 35.5
v 1.5 36 35.5
v 1.5 51 35.5
v 1.5 53 35.5
v 1.5 68 35.5
v 10.5 36 35.5
v 10.5 51 35.5
v 10.5 53 35.5
v 10.5 68 35.5
v -11.5 35 34.5
v -11.5 71 34.5
v -9.5 36 34.5
v -9.5 51 34.5
v -9.5 53 34.5
v -9.5 68 34.5
v -0.5 36 34.5
v -0.5 51 34.5
v -0.5 53 34.5
v -0.5 68 34.5
v 1.5 36 34.5
v 1.5 51 34.5
v 1.5 53 34.5
v 1.5 68 34.5
v 10.5 36 34.5
v 10.5 51 34.5
v 10.5 53 34.5
v 10.5 68 34.5
v 12.5 35 34.5
v 12.5 71 34.5
v -11.5 33 33.5
v -11.5 35 33.5
v 12.5 33 33.5
v 12.5 35 33.5
v -11.5 33 36.5
v 12.5 33 36.5
v -11.5 33 33.5
v 12.5 33 33.5
v -9.5 51 35.5
v -0.5 51 35.5
v 1.5 51 35.5
v 10.5 51 35.5
v -9.5 51 34.5
v -0.5 51 34.5
v 1.5 51 34.5
v 10.5 51 34.5
v -9.5 68 35.5
v -0.5 68 35.5
v 1.5 68 35.5
v 10.5 68 35.5
v -9.5 68 34.5
v -0.5 68 34.5
v 1.5 68 34.5
v 10.5 68 34.5
v -11.5 35 34.5
v 12.5 35 34.5
v -11.5 35 33.5
v 12.5 35 33.5
v -9.5 36 35.5
v -0.5 36 35.5
v 1.5 36 35.5
v 10.5 36 35.5
v -9.5 36 34.5
v -0.5 36 34.5
v 1.5 36 34.5
v 10.5 36 34.5
v -9.5 53 35.5
v -0.5 53 35.5
v 1.5 53 35.5
v 10.5 53 35.5
v -9.5 53 34.5
v -0.5 53 34.5
v 1.5 53 34.5
v 10.5 53 34.5
v -11.5 71 36.5
v 12.5 71 36.5
v -11.5 71 34.5
v 12.5 71 34.5

# faces
f 3/2/1 2/2/1 1/2/1
f 4/2/1 2/2/1 3/2/1
f 5/2/1 3/2/1 1/2/1
f 6/2/1 3/2/1 5/2/1
f 9/2/1 8/2/1 7/2/1
f 10/2/1 8/2/1 9/2/1
f 13/2/1 12/2/1 11/2/1
f 14/2/1 12/2/1 13/2/1
f 17/2/1 16/2/1 15/2/1
f 18/2/1 16/2/1 17/2/1
f 21/2/1 20/2/1 19/2/1
f 22/2/1 20/2/1 21/2/1
f 23/2/2 24/2/2 25/2/2
f 25/2/2 24/2/2 26/2/2
f 27/2/2 28/2/2 29/2/2
f 29/2/2 28/2/2 30/2/2
f 31/2/2 32/2/2 33/2/2
f 33/2/2 32/2/2 34/2/2
f 35/2/2 36/2/2 37/2/2
f 37/2/2 36/2/2 38/2/2
f 39/2/2 40/2/2 41/2/2
f 41/2/2 40/2/2 42/2/2
f 39/2/2 41/2/2 43/2/2
f 43/2/2 41/2/2 44/2/2
f 47/2/3 46/2/3 45/2/3
f 48/2/3 46/2/3 47/2/3
f 49/2/3 47/2/3 45/2/3
f 49/1/3 48/1/3 47/1/3
f 50/2/3 46/2/3 48/2/3
f 50/1/3 48/1/3 49/1/3
f 51/2/3 49/2/3 45/2/3
f 51/2/3 50/2/3 49/2/3
f 52/2/3 46/2/3 50/2/3
f 52/2/3 50/2/3 51/2/3
f 53/2/3 51/2/3 45/2/3
f 53/1/3 52/1/3 51/1/3
f 54/2/3 46/2/3 52/2/3
f 54/1/3 52/1/3 53/1/3
f 55/2/3 53/2/3 45/2/3
f 55/2/3 54/2/3 53/2/3
f 56/2/3 46/2/3 54/2/3
f 56/2/3 54/2/3 55/2/3
f 57/1/4 58/1/4 61/1/4
f 61/1/4 58/1/4 62/1/4
f 59/1/4 60/1/4 63/1/4
f 63/1/4 60/1/4 64/1/4
f 65/1/4 66/1/4 69/1/4
f 69/1/4 66/1/4 70/1/4
f 67/1/4 68/1/4 71/1/4
f 71/1/4 68/1/4 72/1/4
f 73/2/4 74/2/4 75/2/4
f 75/2/4 74/2/4 76/2/4
f 76/2/4 74/2/4 77/2/4
f 77/2/4 74/2/4 78/2/4
f 73/2/4 75/2/4 79/2/4
f 76/2/4 77/2/4 80/2/4
f 80/2/4 77/2/4 81/2/4
f 78/2/4 74/2/4 82/2/4
f 80/2/4 81/2/4 83/2/4
f 81/2/4 82/2/4 83/2/4
f 73/2/4 79/2/4 83/2/4
f 79/2/4 80/2/4 83/2/4
f 83/2/4 82/2/4 84/2/4
f 84/2/4 82/2/4 85/2/4
f 82/2/4 74/2/4 86/2/4
f 85/2/4 82/2/4 86/2/4
f 73/2/4 83/2/4 87/2/4
f 84/2/4 85/2/4 88/2/4
f 88/2/4 85/2/4 89/2/4
f 86/2/4 74/2/4 90/2/4
f 73/2/4 87/2/4 91/2/4
f 89/2/4 90/2/4 91/2/4
f 88/2/4 89/2/4 91/2/4
f 87/2/4 88/2/4 91/2/4
f 90/2/4 74/2/4 92/2/4
f 91/2/4 90/2/4 92/2/4
f 93/2/4 94/2/4 95/2/4
f 95/2/4 94/2/4 96/2/4
f 99/2/5 98/2/5 97/2/5
f 100/2/5 98/2/5 99/2/5
f 105/2/5 102/2/5 101/2/5
f 106/2/5 102/2/5 105/2/5
f 107/2/5 104/2/5 103/2/5
f 108/2/5 104/2/5 107/2/5
f 113/2/5 110/2/5 109/2/5
f 114/2/5 110/2/5 113/2/5
f 115/2/5 112/2/5 111/2/5
f 116/2/5 112/2/5 115/2/5
f 117/2/6 118/2/6 119/2/6
f 119/2/6 118/2/6 120/2/6
f 121/2/6 122/2/6 125/2/6
f 125/2/6 122/2/6 126/2/6
f 123/2/6 124/2/6 127/2/6
f 127/2/6 124/2/6 128/2/6
f 129/2/6 130/2/6 133/2/6
f 133/2/6 130/2/6 134/2/6
f 131/2/6 132/2/6 135/2/6
f 135/2/6 132/2/6 136/2/6
f 137/2/6 138/2/6 139/2/6
f 139/2/6 138/2/6 140/2/6
