# MagicaVoxel @ Ephtracy

# group
g menu

# material
mtllib menu.mtl
usemtl palette

# normals
vn -1 0 0
vn 1 0 0
vn 0 0 1
vn 0 0 -1
vn 0 -1 0
vn 0 1 0

# texcoords
vt 0.396484 0.5
vt 0.853516 0.5
vt 0.962891 0.5

# verts
v -4 1 1
v -4 1 -2
v -4 2 1
v -4 2 -2
v -3 1 2
v -3 1 1
v -3 1 -2
v -3 1 -3
v -3 2 2
v -3 2 1
v -3 2 -2
v -3 2 -3
v -3 3 1
v -3 3 -2
v -2 3 -0
v -2 3 -1
v -2 20 3
v -2 20 -0
v -2 20 -1
v -2 20 -4
v -2 21 2
v -2 21 -2
v -2 21 -3
v -2 22 -2
v -2 22 -3
v -2 29 2
v -2 29 1
v -2 30 2
v -2 30 1
v -2 30 -3
v -2 31 3
v -2 31 -4
v -1 3 -0
v -1 3 -1
v -1 20 3
v -1 20 1
v -1 20 -0
v -1 20 -1
v -1 20 -2
v -1 20 -4
v -1 21 2
v -1 21 1
v -1 21 -2
v -1 21 -3
v -1 22 -2
v -1 22 -3
v -1 29 2
v -1 29 1
v -1 30 2
v -1 30 1
v -1 30 -3
v -1 31 3
v -1 31 -4
v 0 1 2
v 0 1 1
v 0 1 -2
v 0 1 -3
v 0 2 2
v 0 2 1
v 0 2 -2
v 0 2 -3
v 0 3 1
v 0 3 -2
v 0 20 1
v 0 20 -2
v 0 21 1
v 0 21 -2
v 1 1 1
v 1 1 -2
v 1 2 1
v 1 2 -2
v -2 20 3
v -2 31 3
v -1 20 3
v -1 31 3
v -3 1 2
v -3 2 2
v 0 1 2
v 0 2 2
v -4 1 1
v -4 2 1
v -3 1 1
v -3 2 1
v -3 3 1
v -1 20 1
v -1 21 1
v 0 1 1
v 0 2 1
v 0 3 1
v 0 20 1
v 0 21 1
v 1 1 1
v 1 2 1
v -2 3 -0
v -2 20 -0
v -1 3 -0
v -1 20 -0
v -2 3 -1
v -2 20 -1
v -1 3 -1
v -1 20 -1
v -4 1 -2
v -4 2 -2
v -3 1 -2
v -3 2 -2
v -3 3 -2
v -1 20 -2
v -1 21 -2
v 0 1 -2
v 0 2 -2
v 0 3 -2
v 0 20 -2
v 0 21 -2
v 1 1 -2
v 1 2 -2
v -3 1 -3
v -3 2 -3
v 0 1 -3
v 0 2 -3
v -2 20 -4
v -2 31 -4
v -1 20 -4
v -1 31 -4
v -3 1 2
v 0 1 2
v -4 1 1
v -3 1 1
v 0 1 1
v 1 1 1
v -4 1 -2
v -3 1 -2
v 0 1 -2
v 1 1 -2
v -3 1 -3
v 0 1 -3
v -2 20 3
v -1 20 3
v -1 20 1
v 0 20 1
v -2 20 -0
v -1 20 -0
v -2 20 -1
v -1 20 -1
v -1 20 -2
v 0 20 -2
v -2 20 -4
v -1 20 -4
v -3 2 2
v 0 2 2
v -4 2 1
v -3 2 1
v 0 2 1
v 1 2 1
v -4 2 -2
v -3 2 -2
v 0 2 -2
v 1 2 -2
v -3 2 -3
v 0 2 -3
v -3 3 1
v 0 3 1
v -2 3 -0
v -1 3 -0
v -2 3 -1
v -1 3 -1
v -3 3 -2
v 0 3 -2
v -1 21 1
v 0 21 1
v -1 21 -2
v 0 21 -2
v -2 31 3
v -1 31 3
v -2 31 -4
v -1 31 -4

# faces
f 3/1/1 2/1/1 1/1/1
f 4/1/1 2/1/1 3/1/1
f 9/1/1 6/1/1 5/1/1
f 10/1/1 6/1/1 9/1/1
f 11/1/1 8/1/1 7/1/1
f 12/1/1 8/1/1 11/1/1
f 13/1/1 11/1/1 10/1/1
f 14/1/1 11/1/1 13/1/1
f 18/1/1 16/1/1 15/1/1
f 19/1/1 16/1/1 18/1/1
f 21/1/1 18/1/1 17/1/1
f 21/1/1 20/1/1 19/1/1
f 21/1/1 19/1/1 18/1/1
f 22/1/1 20/1/1 21/1/1
f 23/1/1 20/1/1 22/1/1
f 24/3/1 22/3/1 21/3/1
f 24/2/1 23/2/1 22/2/1
f 25/1/1 20/1/1 23/1/1
f 25/2/1 23/2/1 24/2/1
f 26/1/1 21/1/1 17/1/1
f 26/3/1 24/3/1 21/3/1
f 26/3/1 25/3/1 24/3/1
f 27/3/1 25/3/1 26/3/1
f 28/1/1 26/1/1 17/1/1
f 28/2/1 27/2/1 26/2/1
f 29/3/1 25/3/1 27/3/1
f 29/2/1 27/2/1 28/2/1
f 30/1/1 20/1/1 25/1/1
f 30/3/1 25/3/1 29/3/1
f 31/1/1 29/1/1 28/1/1
f 31/1/1 28/1/1 17/1/1
f 31/1/1 30/1/1 29/1/1
f 32/1/1 20/1/1 30/1/1
f 32/1/1 30/1/1 31/1/1
f 33/1/2 34/1/2 37/1/2
f 37/1/2 34/1/2 38/1/2
f 35/1/2 36/1/2 41/1/2
f 41/1/2 36/1/2 42/1/2
f 39/1/2 40/1/2 43/1/2
f 43/1/2 40/1/2 44/1/2
f 41/3/2 42/3/2 45/3/2
f 42/3/2 43/3/2 45/3/2
f 43/2/2 44/2/2 45/2/2
f 44/1/2 40/1/2 46/1/2
f 45/2/2 44/2/2 46/2/2
f 41/3/2 45/3/2 47/3/2
f 35/1/2 41/1/2 47/1/2
f 45/3/2 46/3/2 47/3/2
f 47/3/2 46/3/2 48/3/2
f 35/1/2 47/1/2 49/1/2
f 47/2/2 48/2/2 49/2/2
f 48/3/2 46/3/2 50/3/2
f 49/2/2 48/2/2 50/2/2
f 46/1/2 40/1/2 51/1/2
f 50/3/2 46/3/2 51/3/2
f 49/1/2 50/1/2 52/1/2
f 35/1/2 49/1/2 52/1/2
f 50/1/2 51/1/2 52/1/2
f 51/1/2 40/1/2 53/1/2
f 52/1/2 51/1/2 53/1/2
f 54/1/2 55/1/2 58/1/2
f 58/1/2 55/1/2 59/1/2
f 56/1/2 57/1/2 60/1/2
f 60/1/2 57/1/2 61/1/2
f 59/1/2 60/1/2 62/1/2
f 62/1/2 60/1/2 63/1/2
f 64/1/2 65/1/2 66/1/2
f 66/1/2 65/1/2 67/1/2
f 68/1/2 69/1/2 70/1/2
f 70/1/2 69/1/2 71/1/2
f 74/1/3 73/1/3 72/1/3
f 75/1/3 73/1/3 74/1/3
f 78/1/3 77/1/3 76/1/3
f 79/1/3 77/1/3 78/1/3
f 82/1/3 81/1/3 80/1/3
f 83/1/3 81/1/3 82/1/3
f 88/1/3 84/1/3 83/1/3
f 89/1/3 84/1/3 88/1/3
f 90/1/3 86/1/3 85/1/3
f 91/1/3 86/1/3 90/1/3
f 92/1/3 88/1/3 87/1/3
f 93/1/3 88/1/3 92/1/3
f 96/1/3 95/1/3 94/1/3
f 97/1/3 95/1/3 96/1/3
f 98/1/4 99/1/4 100/1/4
f 100/1/4 99/1/4 101/1/4
f 102/1/4 103/1/4 104/1/4
f 104/1/4 103/1/4 105/1/4
f 105/1/4 106/1/4 110/1/4
f 110/1/4 106/1/4 111/1/4
f 107/1/4 108/1/4 112/1/4
f 112/1/4 108/1/4 113/1/4
f 109/1/4 110/1/4 114/1/4
f 114/1/4 110/1/4 115/1/4
f 116/1/4 117/1/4 118/1/4
f 118/1/4 117/1/4 119/1/4
f 120/1/4 121/1/4 122/1/4
f 122/1/4 121/1/4 123/1/4
f 127/1/5 125/1/5 124/1/5
f 128/1/5 125/1/5 127/1/5
f 130/1/5 127/1/5 126/1/5
f 130/1/5 129/1/5 128/1/5
f 130/1/5 128/1/5 127/1/5
f 131/1/5 129/1/5 130/1/5
f 132/1/5 129/1/5 131/1/5
f 133/1/5 129/1/5 132/1/5
f 134/1/5 132/1/5 131/1/5
f 135/1/5 132/1/5 134/1/5
f 138/1/5 137/1/5 136/1/5
f 140/1/5 138/1/5 136/1/5
f 140/1/5 139/1/5 138/1/5
f 141/1/5 139/1/5 140/1/5
f 143/1/5 139/1/5 141/1/5
f 144/1/5 139/1/5 143/1/5
f 144/1/5 143/1/5 142/1/5
f 145/1/5 139/1/5 144/1/5
f 146/1/5 144/1/5 142/1/5
f 147/1/5 144/1/5 146/1/5
f 148/1/6 149/1/6 151/1/6
f 151/1/6 149/1/6 152/1/6
f 150/1/6 151/1/6 154/1/6
f 154/1/6 151/1/6 155/1/6
f 152/1/6 153/1/6 156/1/6
f 156/1/6 153/1/6 157/1/6
f 155/1/6 156/1/6 158/1/6
f 158/1/6 156/1/6 159/1/6
f 160/1/6 161/1/6 162/1/6
f 162/1/6 161/1/6 163/1/6
f 160/1/6 162/1/6 164/1/6
f 163/1/6 161/1/6 165/1/6
f 160/1/6 164/1/6 166/1/6
f 164/1/6 165/1/6 166/1/6
f 165/1/6 161/1/6 167/1/6
f 166/1/6 165/1/6 167/1/6
f 168/1/6 169/1/6 170/1/6
f 170/1/6 169/1/6 171/1/6
f 172/1/6 173/1/6 174/1/6
f 174/1/6 173/1/6 175/1/6
