# MagicaVoxel @ Ephtracy

# group
g mostarda

# material
mtllib mostarda.mtl
usemtl palette

# normals
vn -1 0 0
vn 1 0 0
vn 0 0 1
vn 0 0 -1
vn 0 -1 0
vn 0 1 0

# texcoords
vt 0.0214844 0.5
vt 0.845703 0.5

# verts
v -6 0 3
v -6 0 -2
v -6 25 3
v -6 25 -2
v -6 26 3
v -6 26 -2
v -5 0 4
v -5 0 3
v -5 0 -2
v -5 0 -3
v -5 25 4
v -5 25 3
v -5 25 -2
v -5 25 -3
v -5 26 4
v -5 26 3
v -5 26 -2
v -5 26 -3
v -5 27 3
v -5 27 -2
v -4 0 5
v -4 0 4
v -4 0 -3
v -4 0 -4
v -4 25 5
v -4 25 4
v -4 25 -3
v -4 25 -4
v -4 26 5
v -4 26 4
v -4 26 3
v -4 26 -2
v -4 26 -3
v -4 26 -4
v -4 27 4
v -4 27 3
v -4 27 2
v -4 27 -1
v -4 27 -2
v -4 27 -3
v -4 28 2
v -4 28 -1
v -4 30 2
v -4 30 -1
v -4 31 2
v -4 31 -1
v -3 0 6
v -3 0 5
v -3 0 -4
v -3 0 -5
v -3 25 6
v -3 25 5
v -3 25 -4
v -3 25 -5
v -3 26 6
v -3 26 5
v -3 26 4
v -3 26 -3
v -3 26 -4
v -3 26 -5
v -3 27 5
v -3 27 4
v -3 27 3
v -3 27 2
v -3 27 -1
v -3 27 -2
v -3 27 -3
v -3 27 -4
v -3 28 3
v -3 28 2
v -3 28 -1
v -3 28 -2
v -3 29 2
v -3 29 -1
v -2 27 4
v -2 27 3
v -2 27 -2
v -2 27 -3
v -2 28 4
v -2 28 3
v -2 28 2
v -2 28 -1
v -2 28 -2
v -2 28 -3
v -2 29 3
v -2 29 2
v -2 29 -1
v -2 29 -2
v -2 30 2
v -2 30 1
v -2 30 -0
v -2 30 -1
v -2 31 2
v -2 31 1
v -2 31 -0
v -2 31 -1
v -2 32 2
v -2 32 -1
v -3 30 1
v -3 30 -0
v -3 31 1
v -3 31 -0
v 1 27 4
v 1 27 3
v 1 27 -2
v 1 27 -3
v 1 28 4
v 1 28 3
v 1 28 2
v 1 28 -1
v 1 28 -2
v 1 28 -3
v 1 29 3
v 1 29 2
v 1 29 -1
v 1 29 -2
v 1 32 2
v 1 32 -1
v 2 0 6
v 2 0 5
v 2 0 -4
v 2 0 -5
v 2 25 6
v 2 25 5
v 2 25 -4
v 2 25 -5
v 2 26 6
v 2 26 5
v 2 26 4
v 2 26 -3
v 2 26 -4
v 2 26 -5
v 2 27 5
v 2 27 4
v 2 27 3
v 2 27 2
v 2 27 -1
v 2 27 -2
v 2 27 -3
v 2 27 -4
v 2 28 3
v 2 28 2
v 2 28 -1
v 2 28 -2
v 2 29 2
v 2 29 -1
v 3 0 5
v 3 0 4
v 3 0 -3
v 3 0 -4
v 3 25 5
v 3 25 4
v 3 25 -3
v 3 25 -4
v 3 26 5
v 3 26 4
v 3 26 3
v 3 26 -2
v 3 26 -3
v 3 26 -4
v 3 27 4
v 3 27 3
v 3 27 2
v 3 27 -1
v 3 27 -2
v 3 27 -3
v 3 28 2
v 3 28 -1
v 4 0 4
v 4 0 3
v 4 0 -2
v 4 0 -3
v 4 25 4
v 4 25 3
v 4 25 -2
v 4 25 -3
v 4 26 4
v 4 26 3
v 4 26 -2
v 4 26 -3
v 4 27 3
v 4 27 -2
v 5 0 3
v 5 0 -2
v 5 25 3
v 5 25 -2
v 5 26 3
v 5 26 -2
v -3 0 6
v -3 25 6
v -3 26 6
v 2 0 6
v 2 25 6
v 2 26 6
v -4 0 5
v -4 25 5
v -4 26 5
v -3 0 5
v -3 25 5
v -3 26 5
v -3 27 5
v 2 0 5
v 2 25 5
v 2 26 5
v 2 27 5
v 3 0 5
v 3 25 5
v 3 26 5
v -5 0 4
v -5 25 4
v -5 26 4
v -4 0 4
v -4 25 4
v -4 26 4
v -4 27 4
v -3 26 4
v -3 27 4
v -2 27 4
v -2 28 4
v 1 27 4
v 1 28 4
v 2 26 4
v 2 27 4
v 3 0 4
v 3 25 4
v 3 26 4
v 3 27 4
v 4 0 4
v 4 25 4
v 4 26 4
v -6 0 3
v -6 25 3
v -6 26 3
v -5 0 3
v -5 25 3
v -5 26 3
v -5 27 3
v -4 26 3
v -4 27 3
v -3 27 3
v -3 28 3
v -2 27 3
v -2 28 3
v -2 29 3
v 1 27 3
v 1 28 3
v 1 29 3
v 2 27 3
v 2 28 3
v 3 26 3
v 3 27 3
v 4 0 3
v 4 25 3
v 4 26 3
v 4 27 3
v 5 0 3
v 5 25 3
v 5 26 3
v -4 27 2
v -4 28 2
v -4 30 2
v -4 31 2
v -3 27 2
v -3 28 2
v -3 29 2
v -2 28 2
v -2 29 2
v -2 30 2
v -2 31 2
v -2 32 2
v 1 28 2
v 1 29 2
v 1 32 2
v 2 27 2
v 2 28 2
v 2 29 2
v 3 27 2
v 3 28 2
v -3 30 -0
v -3 31 -0
v -2 30 -0
v -2 31 -0
v -3 30 1
v -3 31 1
v -2 30 1
v -2 31 1
v -4 27 -1
v -4 28 -1
v -4 30 -1
v -4 31 -1
v -3 27 -1
v -3 28 -1
v -3 29 -1
v -2 28 -1
v -2 29 -1
v -2 30 -1
v -2 31 -1
v -2 32 -1
v 1 28 -1
v 1 29 -1
v 1 32 -1
v 2 27 -1
v 2 28 -1
v 2 29 -1
v 3 27 -1
v 3 28 -1
v -6 0 -2
v -6 25 -2
v -6 26 -2
v -5 0 -2
v -5 25 -2
v -5 26 -2
v -5 27 -2
v -4 26 -2
v -4 27 -2
v -3 27 -2
v -3 28 -2
v -2 27 -2
v -2 28 -2
v -2 29 -2
v 1 27 -2
v 1 28 -2
v 1 29 -2
v 2 27 -2
v 2 28 -2
v 3 26 -2
v 3 27 -2
v 4 0 -2
v 4 25 -2
v 4 26 -2
v 4 27 -2
v 5 0 -2
v 5 25 -2
v 5 26 -2
v -5 0 -3
v -5 25 -3
v -5 26 -3
v -4 0 -3
v -4 25 -3
v -4 26 -3
v -4 27 -3
v -3 26 -3
v -3 27 -3
v -2 27 -3
v -2 28 -3
v 1 27 -3
v 1 28 -3
v 2 26 -3
v 2 27 -3
v 3 0 -3
v 3 25 -3
v 3 26 -3
v 3 27 -3
v 4 0 -3
v 4 25 -3
v 4 26 -3
v -4 0 -4
v -4 25 -4
v -4 26 -4
v -3 0 -4
v -3 25 -4
v -3 26 -4
v -3 27 -4
v 2 0 -4
v 2 25 -4
v 2 26 -4
v 2 27 -4
v 3 0 -4
v 3 25 -4
v 3 26 -4
v -3 0 -5
v -3 25 -5
v -3 26 -5
v 2 0 -5
v 2 25 -5
v 2 26 -5
v -3 0 6
v 2 0 6
v -4 0 5
v -3 0 5
v 2 0 5
v 3 0 5
v -5 0 4
v -4 0 4
v 3 0 4
v 4 0 4
v -6 0 3
v -5 0 3
v 4 0 3
v 5 0 3
v -6 0 -2
v -5 0 -2
v 4 0 -2
v 5 0 -2
v -5 0 -3
v -4 0 -3
v 3 0 -3
v 4 0 -3
v -4 0 -4
v -3 0 -4
v 2 0 -4
v 3 0 -4
v -3 0 -5
v 2 0 -5
v -4 30 2
v -2 30 2
v -3 30 1
v -2 30 1
v -3 30 -0
v -2 30 -0
v -4 30 -1
v -2 30 -1
v -3 26 6
v 2 26 6
v -4 26 5
v -3 26 5
v 2 26 5
v 3 26 5
v -5 26 4
v -4 26 4
v -3 26 4
v 2 26 4
v 3 26 4
v 4 26 4
v -6 26 3
v -5 26 3
v -4 26 3
v 3 26 3
v 4 26 3
v 5 26 3
v -6 26 -2
v -5 26 -2
v -4 26 -2
v 3 26 -2
v 4 26 -2
v 5 26 -2
v -5 26 -3
v -4 26 -3
v -3 26 -3
v 2 26 -3
v 3 26 -3
v 4 26 -3
v -4 26 -4
v -3 26 -4
v 2 26 -4
v 3 26 -4
v -3 26 -5
v 2 26 -5
v -3 27 5
v 2 27 5
v -4 27 4
v -3 27 4
v -2 27 4
v 1 27 4
v 2 27 4
v 3 27 4
v -5 27 3
v -4 27 3
v -3 27 3
v -2 27 3
v 1 27 3
v 2 27 3
v 3 27 3
v 4 27 3
v -4 27 2
v -3 27 2
v 2 27 2
v 3 27 2
v -4 27 -1
v -3 27 -1
v 2 27 -1
v 3 27 -1
v -5 27 -2
v -4 27 -2
v -3 27 -2
v -2 27 -2
v 1 27 -2
v 2 27 -2
v 3 27 -2
v 4 27 -2
v -4 27 -3
v -3 27 -3
v -2 27 -3
v 1 27 -3
v 2 27 -3
v 3 27 -3
v -3 27 -4
v 2 27 -4
v -2 28 4
v 1 28 4
v -3 28 3
v -2 28 3
v 1 28 3
v 2 28 3
v -4 28 2
v -3 28 2
v -2 28 2
v 1 28 2
v 2 28 2
v 3 28 2
v -4 28 -1
v -3 28 -1
v -2 28 -1
v 1 28 -1
v 2 28 -1
v 3 28 -1
v -3 28 -2
v -2 28 -2
v 1 28 -2
v 2 28 -2
v -2 28 -3
v 1 28 -3
v -2 29 3
v 1 29 3
v -3 29 2
v -2 29 2
v 1 29 2
v 2 29 2
v -3 29 -1
v -2 29 -1
v 1 29 -1
v 2 29 -1
v -2 29 -2
v 1 29 -2
v -4 31 2
v -2 31 2
v -3 31 1
v -2 31 1
v -3 31 -0
v -2 31 -0
v -4 31 -1
v -2 31 -1
v -2 32 2
v 1 32 2
v -2 32 -1
v 1 32 -1

# faces
f 3/1/1 2/1/1 1/1/1
f 4/1/1 2/1/1 3/1/1
f 5/2/1 4/2/1 3/2/1
f 6/2/1 4/2/1 5/2/1
f 11/1/1 8/1/1 7/1/1
f 12/1/1 8/1/1 11/1/1
f 13/1/1 10/1/1 9/1/1
f 14/1/1 10/1/1 13/1/1
f 15/2/1 12/2/1 11/2/1
f 16/2/1 12/2/1 15/2/1
f 17/2/1 14/2/1 13/2/1
f 18/2/1 14/2/1 17/2/1
f 19/2/1 17/2/1 16/2/1
f 20/2/1 17/2/1 19/2/1
f 25/1/1 22/1/1 21/1/1
f 26/1/1 22/1/1 25/1/1
f 27/1/1 24/1/1 23/1/1
f 28/1/1 24/1/1 27/1/1
f 29/2/1 26/2/1 25/2/1
f 30/2/1 26/2/1 29/2/1
f 33/2/1 28/2/1 27/2/1
f 34/2/1 28/2/1 33/2/1
f 35/2/1 31/2/1 30/2/1
f 36/2/1 31/2/1 35/2/1
f 39/2/1 33/2/1 32/2/1
f 40/2/1 33/2/1 39/2/1
f 41/2/1 38/2/1 37/2/1
f 42/2/1 38/2/1 41/2/1
f 45/2/1 44/2/1 43/2/1
f 46/2/1 44/2/1 45/2/1
f 51/1/1 48/1/1 47/1/1
f 52/1/1 48/1/1 51/1/1
f 53/1/1 50/1/1 49/1/1
f 54/1/1 50/1/1 53/1/1
f 55/2/1 52/2/1 51/2/1
f 56/2/1 52/2/1 55/2/1
f 59/2/1 54/2/1 53/2/1
f 60/2/1 54/2/1 59/2/1
f 61/2/1 57/2/1 56/2/1
f 62/2/1 57/2/1 61/2/1
f 67/2/1 59/2/1 58/2/1
f 68/2/1 59/2/1 67/2/1
f 69/2/1 64/2/1 63/2/1
f 70/2/1 64/2/1 69/2/1
f 71/2/1 66/2/1 65/2/1
f 72/2/1 66/2/1 71/2/1
f 73/2/1 71/2/1 70/2/1
f 74/2/1 71/2/1 73/2/1
f 79/2/1 76/2/1 75/2/1
f 80/2/1 76/2/1 79/2/1
f 83/2/1 78/2/1 77/2/1
f 84/2/1 78/2/1 83/2/1
f 85/2/1 81/2/1 80/2/1
f 86/2/1 81/2/1 85/2/1
f 87/2/1 83/2/1 82/2/1
f 88/2/1 83/2/1 87/2/1
f 89/2/1 87/2/1 86/2/1
f 90/2/1 87/2/1 89/2/1
f 91/2/1 87/2/1 90/2/1
f 92/2/1 87/2/1 91/2/1
f 94/2/1 91/2/1 90/2/1
f 95/2/1 91/2/1 94/2/1
f 97/2/1 94/2/1 93/2/1
f 97/2/1 96/2/1 95/2/1
f 97/2/1 95/2/1 94/2/1
f 98/2/1 96/2/1 97/2/1
f 99/2/2 100/2/2 101/2/2
f 101/2/2 100/2/2 102/2/2
f 103/2/2 104/2/2 107/2/2
f 107/2/2 104/2/2 108/2/2
f 105/2/2 106/2/2 111/2/2
f 111/2/2 106/2/2 112/2/2
f 108/2/2 109/2/2 113/2/2
f 113/2/2 109/2/2 114/2/2
f 110/2/2 111/2/2 115/2/2
f 115/2/2 111/2/2 116/2/2
f 114/2/2 115/2/2 117/2/2
f 117/2/2 115/2/2 118/2/2
f 119/1/2 120/1/2 123/1/2
f 123/1/2 120/1/2 124/1/2
f 121/1/2 122/1/2 125/1/2
f 125/1/2 122/1/2 126/1/2
f 123/2/2 124/2/2 127/2/2
f 127/2/2 124/2/2 128/2/2
f 125/2/2 126/2/2 131/2/2
f 131/2/2 126/2/2 132/2/2
f 128/2/2 129/2/2 133/2/2
f 133/2/2 129/2/2 134/2/2
f 130/2/2 131/2/2 139/2/2
f 139/2/2 131/2/2 140/2/2
f 135/2/2 136/2/2 141/2/2
f 141/2/2 136/2/2 142/2/2
f 137/2/2 138/2/2 143/2/2
f 143/2/2 138/2/2 144/2/2
f 142/2/2 143/2/2 145/2/2
f 145/2/2 143/2/2 146/2/2
f 147/1/2 148/1/2 151/1/2
f 151/1/2 148/1/2 152/1/2
f 149/1/2 150/1/2 153/1/2
f 153/1/2 150/1/2 154/1/2
f 151/2/2 152/2/2 155/2/2
f 155/2/2 152/2/2 156/2/2
f 153/2/2 154/2/2 159/2/2
f 159/2/2 154/2/2 160/2/2
f 156/2/2 157/2/2 161/2/2
f 161/2/2 157/2/2 162/2/2
f 158/2/2 159/2/2 165/2/2
f 165/2/2 159/2/2 166/2/2
f 163/2/2 164/2/2 167/2/2
f 167/2/2 164/2/2 168/2/2
f 169/1/2 170/1/2 173/1/2
f 173/1/2 170/1/2 174/1/2
f 171/1/2 172/1/2 175/1/2
f 175/1/2 172/1/2 176/1/2
f 173/2/2 174/2/2 177/2/2
f 177/2/2 174/2/2 178/2/2
f 175/2/2 176/2/2 179/2/2
f 179/2/2 176/2/2 180/2/2
f 178/2/2 179/2/2 181/2/2
f 181/2/2 179/2/2 182/2/2
f 183/1/2 184/1/2 185/1/2
f 185/1/2 184/1/2 186/1/2
f 185/2/2 186/2/2 187/2/2
f 187/2/2 186/2/2 188/2/2
f 192/1/3 190/1/3 189/1/3
f 193/2/3 191/2/3 190/2/3
f 193/1/3 190/1/3 192/1/3
f 194/2/3 191/2/3 193/2/3
f 198/1/3 196/1/3 195/1/3
f 199/2/3 197/2/3 196/2/3
f 199/1/3 196/1/3 198/1/3
f 200/2/3 197/2/3 199/2/3
f 204/2/3 201/2/3 200/2/3
f 205/2/3 201/2/3 204/2/3
f 206/1/3 203/1/3 202/1/3
f 207/2/3 204/2/3 203/2/3
f 207/1/3 203/1/3 206/1/3
f 208/2/3 204/2/3 207/2/3
f 212/1/3 210/1/3 209/1/3
f 213/2/3 211/2/3 210/2/3
f 213/1/3 210/1/3 212/1/3
f 214/2/3 211/2/3 213/2/3
f 216/2/3 215/2/3 214/2/3
f 217/2/3 215/2/3 216/2/3
f 220/2/3 219/2/3 218/2/3
f 221/2/3 219/2/3 220/2/3
f 226/2/3 223/2/3 222/2/3
f 227/2/3 223/2/3 226/2/3
f 228/1/3 225/1/3 224/1/3
f 229/2/3 226/2/3 225/2/3
f 229/1/3 225/1/3 228/1/3
f 230/2/3 226/2/3 229/2/3
f 234/1/3 232/1/3 231/1/3
f 235/2/3 233/2/3 232/2/3
f 235/1/3 232/1/3 234/1/3
f 236/2/3 233/2/3 235/2/3
f 238/2/3 237/2/3 236/2/3
f 239/2/3 237/2/3 238/2/3
f 242/2/3 241/2/3 240/2/3
f 243/2/3 241/2/3 242/2/3
f 246/2/3 244/2/3 243/2/3
f 247/2/3 244/2/3 246/2/3
f 248/2/3 246/2/3 245/2/3
f 249/2/3 246/2/3 248/2/3
f 254/2/3 251/2/3 250/2/3
f 255/2/3 251/2/3 254/2/3
f 256/1/3 253/1/3 252/1/3
f 257/2/3 254/2/3 253/2/3
f 257/1/3 253/1/3 256/1/3
f 258/2/3 254/2/3 257/2/3
f 263/2/3 260/2/3 259/2/3
f 264/2/3 260/2/3 263/2/3
f 266/2/3 265/2/3 264/2/3
f 267/2/3 265/2/3 266/2/3
f 268/2/3 262/2/3 261/2/3
f 269/2/3 262/2/3 268/2/3
f 272/2/3 270/2/3 269/2/3
f 272/2/3 269/2/3 268/2/3
f 272/2/3 268/2/3 267/2/3
f 273/2/3 270/2/3 272/2/3
f 275/2/3 272/2/3 271/2/3
f 276/2/3 272/2/3 275/2/3
f 277/2/3 275/2/3 274/2/3
f 278/2/3 275/2/3 277/2/3
f 281/2/3 280/2/3 279/2/3
f 282/2/3 280/2/3 281/2/3
f 283/2/4 284/2/4 285/2/4
f 285/2/4 284/2/4 286/2/4
f 287/2/4 288/2/4 291/2/4
f 291/2/4 288/2/4 292/2/4
f 292/2/4 293/2/4 294/2/4
f 294/2/4 293/2/4 295/2/4
f 289/2/4 290/2/4 296/2/4
f 296/2/4 290/2/4 297/2/4
f 297/2/4 298/2/4 300/2/4
f 296/2/4 297/2/4 300/2/4
f 295/2/4 296/2/4 300/2/4
f 300/2/4 298/2/4 301/2/4
f 299/2/4 300/2/4 303/2/4
f 303/2/4 300/2/4 304/2/4
f 302/2/4 303/2/4 305/2/4
f 305/2/4 303/2/4 306/2/4
f 307/1/4 308/1/4 310/1/4
f 308/2/4 309/2/4 311/2/4
f 310/1/4 308/1/4 311/1/4
f 311/2/4 309/2/4 312/2/4
f 312/2/4 313/2/4 314/2/4
f 314/2/4 313/2/4 315/2/4
f 316/2/4 317/2/4 318/2/4
f 318/2/4 317/2/4 319/2/4
f 319/2/4 320/2/4 322/2/4
f 322/2/4 320/2/4 323/2/4
f 321/2/4 322/2/4 324/2/4
f 324/2/4 322/2/4 325/2/4
f 326/2/4 327/2/4 330/2/4
f 330/2/4 327/2/4 331/2/4
f 328/1/4 329/1/4 332/1/4
f 329/2/4 330/2/4 333/2/4
f 332/1/4 329/1/4 333/1/4
f 333/2/4 330/2/4 334/2/4
f 335/1/4 336/1/4 338/1/4
f 336/2/4 337/2/4 339/2/4
f 338/1/4 336/1/4 339/1/4
f 339/2/4 337/2/4 340/2/4
f 340/2/4 341/2/4 342/2/4
f 342/2/4 341/2/4 343/2/4
f 344/2/4 345/2/4 346/2/4
f 346/2/4 345/2/4 347/2/4
f 348/2/4 349/2/4 352/2/4
f 352/2/4 349/2/4 353/2/4
f 350/1/4 351/1/4 354/1/4
f 351/2/4 352/2/4 355/2/4
f 354/1/4 351/1/4 355/1/4
f 355/2/4 352/2/4 356/2/4
f 357/1/4 358/1/4 360/1/4
f 358/2/4 359/2/4 361/2/4
f 360/1/4 358/1/4 361/1/4
f 361/2/4 359/2/4 362/2/4
f 362/2/4 363/2/4 366/2/4
f 366/2/4 363/2/4 367/2/4
f 364/1/4 365/1/4 368/1/4
f 365/2/4 366/2/4 369/2/4
f 368/1/4 365/1/4 369/1/4
f 369/2/4 366/2/4 370/2/4
f 371/1/4 372/1/4 374/1/4
f 372/2/4 373/2/4 375/2/4
f 374/1/4 372/1/4 375/1/4
f 375/2/4 373/2/4 376/2/4
f 380/1/5 378/1/5 377/1/5
f 381/1/5 378/1/5 380/1/5
f 384/1/5 380/1/5 379/1/5
f 384/1/5 382/1/5 381/1/5
f 384/1/5 381/1/5 380/1/5
f 385/1/5 382/1/5 384/1/5
f 388/1/5 384/1/5 383/1/5
f 388/1/5 386/1/5 385/1/5
f 388/1/5 385/1/5 384/1/5
f 389/1/5 386/1/5 388/1/5
f 391/1/5 388/1/5 387/1/5
f 391/1/5 390/1/5 389/1/5
f 391/1/5 389/1/5 388/1/5
f 392/1/5 390/1/5 391/1/5
f 393/1/5 390/1/5 392/1/5
f 394/1/5 390/1/5 393/1/5
f 395/1/5 393/1/5 392/1/5
f 396/1/5 393/1/5 395/1/5
f 397/1/5 393/1/5 396/1/5
f 398/1/5 393/1/5 397/1/5
f 399/1/5 397/1/5 396/1/5
f 400/1/5 397/1/5 399/1/5
f 401/1/5 397/1/5 400/1/5
f 402/1/5 397/1/5 401/1/5
f 403/1/5 401/1/5 400/1/5
f 404/1/5 401/1/5 403/1/5
f 407/2/5 406/2/5 405/2/5
f 408/2/5 406/2/5 407/2/5
f 409/2/5 407/2/5 405/2/5
f 411/2/5 409/2/5 405/2/5
f 411/2/5 410/2/5 409/2/5
f 412/2/5 410/2/5 411/2/5
f 413/2/6 414/2/6 416/2/6
f 416/2/6 414/2/6 417/2/6
f 415/2/6 416/2/6 420/2/6
f 420/2/6 416/2/6 421/2/6
f 417/2/6 418/2/6 422/2/6
f 422/2/6 418/2/6 423/2/6
f 419/2/6 420/2/6 426/2/6
f 426/2/6 420/2/6 427/2/6
f 423/2/6 424/2/6 428/2/6
f 428/2/6 424/2/6 429/2/6
f 425/2/6 426/2/6 431/2/6
f 431/2/6 426/2/6 432/2/6
f 429/2/6 430/2/6 435/2/6
f 435/2/6 430/2/6 436/2/6
f 432/2/6 433/2/6 437/2/6
f 437/2/6 433/2/6 438/2/6
f 434/2/6 435/2/6 441/2/6
f 441/2/6 435/2/6 442/2/6
f 438/2/6 439/2/6 443/2/6
f 443/2/6 439/2/6 444/2/6
f 440/2/6 441/2/6 445/2/6
f 445/2/6 441/2/6 446/2/6
f 444/2/6 445/2/6 447/2/6
f 447/2/6 445/2/6 448/2/6
f 449/2/6 450/2/6 452/2/6
f 452/2/6 450/2/6 453/2/6
f 453/2/6 450/2/6 454/2/6
f 454/2/6 450/2/6 455/2/6
f 451/2/6 452/2/6 458/2/6
f 452/2/6 453/2/6 458/2/6
f 458/2/6 453/2/6 459/2/6
f 459/2/6 453/2/6 460/2/6
f 454/2/6 455/2/6 461/2/6
f 455/2/6 456/2/6 461/2/6
f 461/2/6 456/2/6 462/2/6
f 462/2/6 456/2/6 463/2/6
f 458/2/6 459/2/6 465/2/6
f 457/2/6 458/2/6 465/2/6
f 465/2/6 459/2/6 466/2/6
f 463/2/6 464/2/6 467/2/6
f 462/2/6 463/2/6 467/2/6
f 467/2/6 464/2/6 468/2/6
f 457/2/6 465/2/6 469/2/6
f 468/2/6 464/2/6 472/2/6
f 469/2/6 470/2/6 473/2/6
f 457/2/6 469/2/6 473/2/6
f 473/2/6 470/2/6 474/2/6
f 474/2/6 470/2/6 475/2/6
f 471/2/6 472/2/6 478/2/6
f 472/2/6 464/2/6 479/2/6
f 478/2/6 472/2/6 479/2/6
f 479/2/6 464/2/6 480/2/6
f 475/2/6 476/2/6 481/2/6
f 474/2/6 475/2/6 481/2/6
f 481/2/6 476/2/6 482/2/6
f 482/2/6 476/2/6 483/2/6
f 477/2/6 478/2/6 484/2/6
f 478/2/6 479/2/6 484/2/6
f 484/2/6 479/2/6 485/2/6
f 485/2/6 479/2/6 486/2/6
f 482/2/6 483/2/6 487/2/6
f 484/2/6 485/2/6 487/2/6
f 483/2/6 484/2/6 487/2/6
f 487/2/6 485/2/6 488/2/6
f 489/2/6 490/2/6 492/2/6
f 492/2/6 490/2/6 493/2/6
f 491/2/6 492/2/6 496/2/6
f 496/2/6 492/2/6 497/2/6
f 493/2/6 494/2/6 498/2/6
f 498/2/6 494/2/6 499/2/6
f 495/2/6 496/2/6 501/2/6
f 501/2/6 496/2/6 502/2/6
f 499/2/6 500/2/6 505/2/6
f 505/2/6 500/2/6 506/2/6
f 502/2/6 503/2/6 507/2/6
f 507/2/6 503/2/6 508/2/6
f 504/2/6 505/2/6 509/2/6
f 509/2/6 505/2/6 510/2/6
f 508/2/6 509/2/6 511/2/6
f 511/2/6 509/2/6 512/2/6
f 513/2/6 514/2/6 516/2/6
f 516/2/6 514/2/6 517/2/6
f 515/2/6 516/2/6 519/2/6
f 519/2/6 516/2/6 520/2/6
f 517/2/6 518/2/6 521/2/6
f 521/2/6 518/2/6 522/2/6
f 520/2/6 521/2/6 523/2/6
f 523/2/6 521/2/6 524/2/6
f 525/2/6 526/2/6 527/2/6
f 527/2/6 526/2/6 528/2/6
f 525/2/6 527/2/6 529/2/6
f 525/2/6 529/2/6 531/2/6
f 529/2/6 530/2/6 531/2/6
f 531/2/6 530/2/6 532/2/6
f 533/2/6 534/2/6 535/2/6
f 535/2/6 534/2/6 536/2/6
