# MagicaVoxel @ Ephtracy

# group
g porta_arredondada

# material
mtllib porta_arredondada.mtl
usemtl palette

# normals
vn -1 0 0
vn 1 0 0
vn 0 0 1
vn 0 0 -1
vn 0 -1 0
vn 0 1 0

# texcoords
vt 0.00585938 0.5
vt 0.341797 0.5
vt 0.962891 0.5
vt 0.978516 0.5

# verts
v -23.5 0 37.5
v -23.5 0 27.5
v -23.5 3 30.5
v -23.5 3 27.5
v -23.5 5 33.5
v -23.5 5 30.5
v -23.5 56 37.5
v -23.5 56 33.5
v -22.5 56 37.5
v -22.5 56 33.5
v -22.5 60 37.5
v -22.5 60 33.5
v -21.5 60 37.5
v -21.5 60 33.5
v -21.5 62 37.5
v -21.5 62 33.5
v -20.5 62 37.5
v -20.5 62 33.5
v -20.5 64 37.5
v -20.5 64 33.5
v -19.5 64 37.5
v -19.5 64 33.5
v -19.5 65 37.5
v -19.5 65 33.5
v -18.5 65 37.5
v -18.5 65 33.5
v -18.5 67 37.5
v -18.5 67 33.5
v -17.5 67 37.5
v -17.5 67 33.5
v -17.5 68 37.5
v -17.5 68 33.5
v -16.5 68 37.5
v -16.5 68 33.5
v -16.5 70 37.5
v -16.5 70 33.5
v -15.5 25 35.5
v -15.5 25 33.5
v -15.5 47 35.5
v -15.5 47 33.5
v -13.5 70 37.5
v -13.5 70 33.5
v -13.5 71 37.5
v -13.5 71 33.5
v -12.5 71 37.5
v -12.5 71 33.5
v -12.5 72 37.5
v -12.5 72 33.5
v -10.5 72 37.5
v -10.5 72 33.5
v -10.5 73 37.5
v -10.5 73 33.5
v -8.5 73 37.5
v -8.5 73 33.5
v -8.5 74 37.5
v -8.5 74 33.5
v -4.5 74 37.5
v -4.5 74 33.5
v -4.5 75 37.5
v -4.5 75 33.5
v 3.5 72 35.5
v 3.5 72 33.5
v 3.5 73 35.5
v 3.5 73 33.5
v 8.5 71 35.5
v 8.5 71 33.5
v 8.5 72 35.5
v 8.5 72 33.5
v 10.5 70 35.5
v 10.5 70 33.5
v 10.5 71 35.5
v 10.5 71 33.5
v 11.5 69 35.5
v 11.5 69 33.5
v 11.5 70 35.5
v 11.5 70 33.5
v 12.5 68 35.5
v 12.5 68 33.5
v 12.5 69 35.5
v 12.5 69 33.5
v 14.5 67 35.5
v 14.5 67 33.5
v 14.5 68 35.5
v 14.5 68 33.5
v 15.5 65 35.5
v 15.5 65 33.5
v 15.5 67 35.5
v 15.5 67 33.5
v 16.5 64 35.5
v 16.5 64 33.5
v 16.5 65 35.5
v 16.5 65 33.5
v 17.5 62 35.5
v 17.5 62 33.5
v 17.5 64 35.5
v 17.5 64 33.5
v 18.5 60 35.5
v 18.5 60 33.5
v 18.5 62 35.5
v 18.5 62 33.5
v 19.5 56 35.5
v 19.5 56 33.5
v 19.5 60 35.5
v 19.5 60 33.5
v 20.5 0 28.5
v 20.5 0 27.5
v 20.5 2 31.5
v 20.5 2 28.5
v 20.5 3 30.5
v 20.5 3 27.5
v 20.5 4 35.5
v 20.5 4 31.5
v 20.5 5 33.5
v 20.5 5 30.5
v 20.5 56 35.5
v 20.5 56 33.5
v -20.5 0 28.5
v -20.5 0 27.5
v -20.5 2 31.5
v -20.5 2 28.5
v -20.5 3 30.5
v -20.5 3 27.5
v -20.5 4 35.5
v -20.5 4 31.5
v -20.5 5 33.5
v -20.5 5 30.5
v -20.5 56 35.5
v -20.5 56 33.5
v -19.5 56 35.5
v -19.5 56 33.5
v -19.5 60 35.5
v -19.5 60 33.5
v -18.5 60 35.5
v -18.5 60 33.5
v -18.5 62 35.5
v -18.5 62 33.5
v -17.5 62 35.5
v -17.5 62 33.5
v -17.5 64 35.5
v -17.5 64 33.5
v -16.5 64 35.5
v -16.5 64 33.5
v -16.5 65 35.5
v -16.5 65 33.5
v -15.5 65 35.5
v -15.5 65 33.5
v -15.5 67 35.5
v -15.5 67 33.5
v -14.5 67 35.5
v -14.5 67 33.5
v -14.5 68 35.5
v -14.5 68 33.5
v -13.5 25 35.5
v -13.5 25 33.5
v -13.5 47 35.5
v -13.5 47 33.5
v -12.5 68 35.5
v -12.5 68 33.5
v -12.5 69 35.5
v -12.5 69 33.5
v -11.5 69 35.5
v -11.5 69 33.5
v -11.5 70 35.5
v -11.5 70 33.5
v -10.5 70 35.5
v -10.5 70 33.5
v -10.5 71 35.5
v -10.5 71 33.5
v -8.5 71 35.5
v -8.5 71 33.5
v -8.5 72 35.5
v -8.5 72 33.5
v -3.5 72 35.5
v -3.5 72 33.5
v -3.5 73 35.5
v -3.5 73 33.5
v 4.5 74 37.5
v 4.5 74 33.5
v 4.5 75 37.5
v 4.5 75 33.5
v 8.5 73 37.5
v 8.5 73 33.5
v 8.5 74 37.5
v 8.5 74 33.5
v 10.5 72 37.5
v 10.5 72 33.5
v 10.5 73 37.5
v 10.5 73 33.5
v 12.5 71 37.5
v 12.5 71 33.5
v 12.5 72 37.5
v 12.5 72 33.5
v 13.5 70 37.5
v 13.5 70 33.5
v 13.5 71 37.5
v 13.5 71 33.5
v 16.5 68 37.5
v 16.5 68 33.5
v 16.5 70 37.5
v 16.5 70 33.5
v 17.5 67 37.5
v 17.5 67 33.5
v 17.5 68 37.5
v 17.5 68 33.5
v 18.5 65 37.5
v 18.5 65 33.5
v 18.5 67 37.5
v 18.5 67 33.5
v 19.5 64 37.5
v 19.5 64 33.5
v 19.5 65 37.5
v 19.5 65 33.5
v 20.5 62 37.5
v 20.5 62 33.5
v 20.5 64 37.5
v 20.5 64 33.5
v 21.5 60 37.5
v 21.5 60 33.5
v 21.5 62 37.5
v 21.5 62 33.5
v 22.5 56 37.5
v 22.5 56 33.5
v 22.5 60 37.5
v 22.5 60 33.5
v 23.5 0 37.5
v 23.5 0 27.5
v 23.5 3 30.5
v 23.5 3 27.5
v 23.5 5 33.5
v 23.5 5 30.5
v 23.5 56 37.5
v 23.5 56 33.5
v -23.5 0 37.5
v -23.5 56 37.5
v -22.5 56 37.5
v -22.5 60 37.5
v -21.5 60 37.5
v -21.5 62 37.5
v -20.5 62 37.5
v -20.5 64 37.5
v -19.5 64 37.5
v -19.5 65 37.5
v -18.5 65 37.5
v -18.5 67 37.5
v -17.5 67 37.5
v -17.5 68 37.5
v -16.5 68 37.5
v -16.5 70 37.5
v -13.5 70 37.5
v -13.5 71 37.5
v -12.5 71 37.5
v -12.5 72 37.5
v -10.5 72 37.5
v -10.5 73 37.5
v -8.5 73 37.5
v -8.5 74 37.5
v -4.5 74 37.5
v -4.5 75 37.5
v 4.5 74 37.5
v 4.5 75 37.5
v 8.5 73 37.5
v 8.5 74 37.5
v 10.5 72 37.5
v 10.5 73 37.5
v 12.5 71 37.5
v 12.5 72 37.5
v 13.5 70 37.5
v 13.5 71 37.5
v 16.5 68 37.5
v 16.5 70 37.5
v 17.5 67 37.5
v 17.5 68 37.5
v 18.5 65 37.5
v 18.5 67 37.5
v 19.5 64 37.5
v 19.5 65 37.5
v 20.5 62 37.5
v 20.5 64 37.5
v 21.5 60 37.5
v 21.5 62 37.5
v 22.5 56 37.5
v 22.5 60 37.5
v 23.5 0 37.5
v 23.5 56 37.5
v -20.5 4 35.5
v -20.5 56 35.5
v -19.5 56 35.5
v -19.5 60 35.5
v -18.5 60 35.5
v -18.5 62 35.5
v -17.5 62 35.5
v -17.5 64 35.5
v -16.5 64 35.5
v -16.5 65 35.5
v -15.5 25 35.5
v -15.5 47 35.5
v -15.5 65 35.5
v -15.5 67 35.5
v -14.5 67 35.5
v -14.5 68 35.5
v -13.5 25 35.5
v -13.5 47 35.5
v -12.5 68 35.5
v -12.5 69 35.5
v -11.5 69 35.5
v -11.5 70 35.5
v -10.5 70 35.5
v -10.5 71 35.5
v -8.5 71 35.5
v -8.5 72 35.5
v -3.5 72 35.5
v -3.5 73 35.5
v 3.5 72 35.5
v 3.5 73 35.5
v 8.5 71 35.5
v 8.5 72 35.5
v 10.5 70 35.5
v 10.5 71 35.5
v 11.5 69 35.5
v 11.5 70 35.5
v 12.5 68 35.5
v 12.5 69 35.5
v 14.5 67 35.5
v 14.5 68 35.5
v 15.5 65 35.5
v 15.5 67 35.5
v 16.5 64 35.5
v 16.5 65 35.5
v 17.5 62 35.5
v 17.5 64 35.5
v 18.5 60 35.5
v 18.5 62 35.5
v 19.5 56 35.5
v 19.5 60 35.5
v 20.5 4 35.5
v 20.5 56 35.5
v -23.5 5 33.5
v -23.5 56 33.5
v -22.5 56 33.5
v -22.5 60 33.5
v -21.5 60 33.5
v -21.5 62 33.5
v -20.5 5 33.5
v -20.5 56 33.5
v -20.5 62 33.5
v -20.5 64 33.5
v -19.5 56 33.5
v -19.5 60 33.5
v -19.5 64 33.5
v -19.5 65 33.5
v -18.5 60 33.5
v -18.5 62 33.5
v -18.5 65 33.5
v -18.5 67 33.5
v -17.5 62 33.5
v -17.5 64 33.5
v -17.5 67 33.5
v -17.5 68 33.5
v -16.5 64 33.5
v -16.5 65 33.5
v -16.5 68 33.5
v -16.5 70 33.5
v -15.5 25 33.5
v -15.5 47 33.5
v -15.5 65 33.5
v -15.5 67 33.5
v -14.5 67 33.5
v -14.5 68 33.5
v -13.5 25 33.5
v -13.5 47 33.5
v -13.5 70 33.5
v -13.5 71 33.5
v -12.5 68 33.5
v -12.5 69 33.5
v -12.5 71 33.5
v -12.5 72 33.5
v -11.5 69 33.5
v -11.5 70 33.5
v -10.5 70 33.5
v -10.5 71 33.5
v -10.5 72 33.5
v -10.5 73 33.5
v -8.5 71 33.5
v -8.5 72 33.5
v -8.5 73 33.5
v -8.5 74 33.5
v -4.5 74 33.5
v -4.5 75 33.5
v -3.5 72 33.5
v -3.5 73 33.5
v 3.5 72 33.5
v 3.5 73 33.5
v 4.5 74 33.5
v 4.5 75 33.5
v 8.5 71 33.5
v 8.5 72 33.5
v 8.5 73 33.5
v 8.5 74 33.5
v 10.5 70 33.5
v 10.5 71 33.5
v 10.5 72 33.5
v 10.5 73 33.5
v 11.5 69 33.5
v 11.5 70 33.5
v 12.5 68 33.5
v 12.5 69 33.5
v 12.5 71 33.5
v 12.5 72 33.5
v 13.5 70 33.5
v 13.5 71 33.5
v 14.5 67 33.5
v 14.5 68 33.5
v 15.5 65 33.5
v 15.5 67 33.5
v 16.5 64 33.5
v 16.5 65 33.5
v 16.5 68 33.5
v 16.5 70 33.5
v 17.5 62 33.5
v 17.5 64 33.5
v 17.5 67 33.5
v 17.5 68 33.5
v 18.5 60 33.5
v 18.5 62 33.5
v 18.5 65 33.5
v 18.5 67 33.5
v 19.5 56 33.5
v 19.5 60 33.5
v 19.5 64 33.5
v 19.5 65 33.5
v 20.5 5 33.5
v 20.5 56 33.5
v 20.5 62 33.5
v 20.5 64 33.5
v 21.5 60 33.5
v 21.5 62 33.5
v 22.5 56 33.5
v 22.5 60 33.5
v 23.5 5 33.5
v 23.5 56 33.5
v -20.5 2 31.5
v -20.5 4 31.5
v 20.5 2 31.5
v 20.5 4 31.5
v -23.5 3 30.5
v -23.5 5 30.5
v -20.5 3 30.5
v -20.5 5 30.5
v 20.5 3 30.5
v 20.5 5 30.5
v 23.5 3 30.5
v 23.5 5 30.5
v -20.5 0 28.5
v -20.5 2 28.5
v 20.5 0 28.5
v 20.5 2 28.5
v -23.5 0 27.5
v -23.5 3 27.5
v -20.5 0 27.5
v -20.5 3 27.5
v 20.5 0 27.5
v 20.5 3 27.5
v 23.5 0 27.5
v 23.5 3 27.5
v -23.5 0 37.5
v 23.5 0 37.5
v -20.5 0 36.5
v 20.5 0 36.5
v -20.5 0 28.5
v 20.5 0 28.5
v -23.5 0 27.5
v -20.5 0 27.5
v 20.5 0 27.5
v 23.5 0 27.5
v -15.5 25 35.5
v -13.5 25 35.5
v -15.5 25 33.5
v -13.5 25 33.5
v -20.5 56 35.5
v -19.5 56 35.5
v 19.5 56 35.5
v 20.5 56 35.5
v -20.5 56 33.5
v -19.5 56 33.5
v 19.5 56 33.5
v 20.5 56 33.5
v -19.5 60 35.5
v -18.5 60 35.5
v 18.5 60 35.5
v 19.5 60 35.5
v -19.5 60 33.5
v -18.5 60 33.5
v 18.5 60 33.5
v 19.5 60 33.5
v -18.5 62 35.5
v -17.5 62 35.5
v 17.5 62 35.5
v 18.5 62 35.5
v -18.5 62 33.5
v -17.5 62 33.5
v 17.5 62 33.5
v 18.5 62 33.5
v -17.5 64 35.5
v -16.5 64 35.5
v 16.5 64 35.5
v 17.5 64 35.5
v -17.5 64 33.5
v -16.5 64 33.5
v 16.5 64 33.5
v 17.5 64 33.5
v -16.5 65 35.5
v -15.5 65 35.5
v 15.5 65 35.5
v 16.5 65 35.5
v -16.5 65 33.5
v -15.5 65 33.5
v 15.5 65 33.5
v 16.5 65 33.5
v -15.5 67 35.5
v -14.5 67 35.5
v 14.5 67 35.5
v 15.5 67 35.5
v -15.5 67 33.5
v -14.5 67 33.5
v 14.5 67 33.5
v 15.5 67 33.5
v -14.5 68 35.5
v -12.5 68 35.5
v 12.5 68 35.5
v 14.5 68 35.5
v -14.5 68 33.5
v -12.5 68 33.5
v 12.5 68 33.5
v 14.5 68 33.5
v -12.5 69 35.5
v -11.5 69 35.5
v 11.5 69 35.5
v 12.5 69 35.5
v -12.5 69 33.5
v -11.5 69 33.5
v 11.5 69 33.5
v 12.5 69 33.5
v -11.5 70 35.5
v -10.5 70 35.5
v 10.5 70 35.5
v 11.5 70 35.5
v -11.5 70 33.5
v -10.5 70 33.5
v 10.5 70 33.5
v 11.5 70 33.5
v -10.5 71 35.5
v -8.5 71 35.5
v 8.5 71 35.5
v 10.5 71 35.5
v -10.5 71 33.5
v -8.5 71 33.5
v 8.5 71 33.5
v 10.5 71 33.5
v -8.5 72 35.5
v -3.5 72 35.5
v 3.5 72 35.5
v 8.5 72 35.5
v -8.5 72 33.5
v -3.5 72 33.5
v 3.5 72 33.5
v 8.5 72 33.5
v -3.5 73 35.5
v 3.5 73 35.5
v -3.5 73 33.5
v 3.5 73 33.5
v -20.5 2 31.5
v 20.5 2 31.5
v -20.5 2 28.5
v 20.5 2 28.5
v -23.5 3 30.5
v -20.5 3 30.5
v 20.5 3 30.5
v 23.5 3 30.5
v -23.5 3 27.5
v -20.5 3 27.5
v 20.5 3 27.5
v 23.5 3 27.5
v -20.5 4 35.5
v 20.5 4 35.5
v -20.5 4 31.5
v 20.5 4 31.5
v -23.5 5 33.5
v -20.5 5 33.5
v 20.5 5 33.5
v 23.5 5 33.5
v -23.5 5 30.5
v -20.5 5 30.5
v 20.5 5 30.5
v 23.5 5 30.5
v -15.5 47 35.5
v -13.5 47 35.5
v -15.5 47 33.5
v -13.5 47 33.5
v -23.5 56 37.5
v -22.5 56 37.5
v 22.5 56 37.5
v 23.5 56 37.5
v -23.5 56 33.5
v -22.5 56 33.5
v 22.5 56 33.5
v 23.5 56 33.5
v -22.5 60 37.5
v -21.5 60 37.5
v 21.5 60 37.5
v 22.5 60 37.5
v -22.5 60 33.5
v -21.5 60 33.5
v 21.5 60 33.5
v 22.5 60 33.5
v -21.5 62 37.5
v -20.5 62 37.5
v 20.5 62 37.5
v 21.5 62 37.5
v -21.5 62 33.5
v -20.5 62 33.5
v 20.5 62 33.5
v 21.5 62 33.5
v -20.5 64 37.5
v -19.5 64 37.5
v 19.5 64 37.5
v 20.5 64 37.5
v -20.5 64 33.5
v -19.5 64 33.5
v 19.5 64 33.5
v 20.5 64 33.5
v -19.5 65 37.5
v -18.5 65 37.5
v 18.5 65 37.5
v 19.5 65 37.5
v -19.5 65 33.5
v -18.5 65 33.5
v 18.5 65 33.5
v 19.5 65 33.5
v -18.5 67 37.5
v -17.5 67 37.5
v 17.5 67 37.5
v 18.5 67 37.5
v -18.5 67 33.5
v -17.5 67 33.5
v 17.5 67 33.5
v 18.5 67 33.5
v -17.5 68 37.5
v -16.5 68 37.5
v 16.5 68 37.5
v 17.5 68 37.5
v -17.5 68 33.5
v -16.5 68 33.5
v 16.5 68 33.5
v 17.5 68 33.5
v -16.5 70 37.5
v -13.5 70 37.5
v 13.5 70 37.5
v 16.5 70 37.5
v -16.5 70 33.5
v -13.5 70 33.5
v 13.5 70 33.5
v 16.5 70 33.5
v -13.5 71 37.5
v -12.5 71 37.5
v 12.5 71 37.5
v 13.5 71 37.5
v -13.5 71 33.5
v -12.5 71 33.5
v 12.5 71 33.5
v 13.5 71 33.5
v -12.5 72 37.5
v -10.5 72 37.5
v 10.5 72 37.5
v 12.5 72 37.5
v -12.5 72 33.5
v -10.5 72 33.5
v 10.5 72 33.5
v 12.5 72 33.5
v -10.5 73 37.5
v -8.5 73 37.5
v 8.5 73 37.5
v 10.5 73 37.5
v -10.5 73 33.5
v -8.5 73 33.5
v 8.5 73 33.5
v 10.5 73 33.5
v -8.5 74 37.5
v -4.5 74 37.5
v 4.5 74 37.5
v 8.5 74 37.5
v -8.5 74 33.5
v -4.5 74 33.5
v 4.5 74 33.5
v 8.5 74 33.5
v -4.5 75 37.5
v 4.5 75 37.5
v -4.5 75 33.5
v 4.5 75 33.5

# faces
f 3/3/1 2/3/1 1/3/1
f 4/3/1 2/3/1 3/3/1
f 5/3/1 3/3/1 1/3/1
f 6/3/1 3/3/1 5/3/1
f 7/3/1 5/3/1 1/3/1
f 8/3/1 5/3/1 7/3/1
f 11/3/1 10/3/1 9/3/1
f 12/3/1 10/3/1 11/3/1
f 15/3/1 14/3/1 13/3/1
f 16/3/1 14/3/1 15/3/1
f 19/3/1 18/3/1 17/3/1
f 20/3/1 18/3/1 19/3/1
f 23/3/1 22/3/1 21/3/1
f 24/3/1 22/3/1 23/3/1
f 27/3/1 26/3/1 25/3/1
f 28/3/1 26/3/1 27/3/1
f 31/3/1 30/3/1 29/3/1
f 32/3/1 30/3/1 31/3/1
f 35/3/1 34/3/1 33/3/1
f 36/3/1 34/3/1 35/3/1
f 39/2/1 38/2/1 37/2/1
f 40/2/1 38/2/1 39/2/1
f 43/3/1 42/3/1 41/3/1
f 44/3/1 42/3/1 43/3/1
f 47/3/1 46/3/1 45/3/1
f 48/3/1 46/3/1 47/3/1
f 51/3/1 50/3/1 49/3/1
f 52/3/1 50/3/1 51/3/1
f 55/3/1 54/3/1 53/3/1
f 56/3/1 54/3/1 55/3/1
f 59/3/1 58/3/1 57/3/1
f 60/3/1 58/3/1 59/3/1
f 63/3/1 62/3/1 61/3/1
f 64/3/1 62/3/1 63/3/1
f 67/3/1 66/3/1 65/3/1
f 68/3/1 66/3/1 67/3/1
f 71/3/1 70/3/1 69/3/1
f 72/3/1 70/3/1 71/3/1
f 75/3/1 74/3/1 73/3/1
f 76/3/1 74/3/1 75/3/1
f 79/3/1 78/3/1 77/3/1
f 80/3/1 78/3/1 79/3/1
f 83/3/1 82/3/1 81/3/1
f 84/3/1 82/3/1 83/3/1
f 87/3/1 86/3/1 85/3/1
f 88/3/1 86/3/1 87/3/1
f 91/3/1 90/3/1 89/3/1
f 92/3/1 90/3/1 91/3/1
f 95/3/1 94/3/1 93/3/1
f 96/3/1 94/3/1 95/3/1
f 99/3/1 98/3/1 97/3/1
f 100/3/1 98/3/1 99/3/1
f 103/3/1 102/3/1 101/3/1
f 104/3/1 102/3/1 103/3/1
f 108/3/1 106/3/1 105/3/1
f 109/3/1 108/3/1 107/3/1
f 110/3/1 106/3/1 108/3/1
f 110/3/1 108/3/1 109/3/1
f 112/3/1 109/3/1 107/3/1
f 113/3/1 112/3/1 111/3/1
f 114/3/1 109/3/1 112/3/1
f 114/3/1 112/3/1 113/3/1
f 115/3/1 113/3/1 111/3/1
f 116/3/1 113/3/1 115/3/1
f 117/3/2 118/3/2 120/3/2
f 119/3/2 120/3/2 121/3/2
f 120/3/2 118/3/2 122/3/2
f 121/3/2 120/3/2 122/3/2
f 119/3/2 121/3/2 124/3/2
f 123/3/2 124/3/2 125/3/2
f 124/3/2 121/3/2 126/3/2
f 125/3/2 124/3/2 126/3/2
f 123/3/2 125/3/2 127/3/2
f 127/3/2 125/3/2 128/3/2
f 129/3/2 130/3/2 131/3/2
f 131/3/2 130/3/2 132/3/2
f 133/3/2 134/3/2 135/3/2
f 135/3/2 134/3/2 136/3/2
f 137/3/2 138/3/2 139/3/2
f 139/3/2 138/3/2 140/3/2
f 141/3/2 142/3/2 143/3/2
f 143/3/2 142/3/2 144/3/2
f 145/3/2 146/3/2 147/3/2
f 147/3/2 146/3/2 148/3/2
f 149/3/2 150/3/2 151/3/2
f 151/3/2 150/3/2 152/3/2
f 153/2/2 154/2/2 155/2/2
f 155/2/2 154/2/2 156/2/2
f 157/3/2 158/3/2 159/3/2
f 159/3/2 158/3/2 160/3/2
f 161/3/2 162/3/2 163/3/2
f 163/3/2 162/3/2 164/3/2
f 165/3/2 166/3/2 167/3/2
f 167/3/2 166/3/2 168/3/2
f 169/3/2 170/3/2 171/3/2
f 171/3/2 170/3/2 172/3/2
f 173/3/2 174/3/2 175/3/2
f 175/3/2 174/3/2 176/3/2
f 177/3/2 178/3/2 179/3/2
f 179/3/2 178/3/2 180/3/2
f 181/3/2 182/3/2 183/3/2
f 183/3/2 182/3/2 184/3/2
f 185/3/2 186/3/2 187/3/2
f 187/3/2 186/3/2 188/3/2
f 189/3/2 190/3/2 191/3/2
f 191/3/2 190/3/2 192/3/2
f 193/3/2 194/3/2 195/3/2
f 195/3/2 194/3/2 196/3/2
f 197/3/2 198/3/2 199/3/2
f 199/3/2 198/3/2 200/3/2
f 201/3/2 202/3/2 203/3/2
f 203/3/2 202/3/2 204/3/2
f 205/3/2 206/3/2 207/3/2
f 207/3/2 206/3/2 208/3/2
f 209/3/2 210/3/2 211/3/2
f 211/3/2 210/3/2 212/3/2
f 213/3/2 214/3/2 215/3/2
f 215/3/2 214/3/2 216/3/2
f 217/3/2 218/3/2 219/3/2
f 219/3/2 218/3/2 220/3/2
f 221/3/2 222/3/2 223/3/2
f 223/3/2 222/3/2 224/3/2
f 225/3/2 226/3/2 227/3/2
f 227/3/2 226/3/2 228/3/2
f 225/3/2 227/3/2 229/3/2
f 229/3/2 227/3/2 230/3/2
f 225/3/2 229/3/2 231/3/2
f 231/3/2 229/3/2 232/3/2
f 235/3/3 234/3/3 233/3/3
f 237/3/3 236/3/3 235/3/3
f 239/3/3 238/3/3 237/3/3
f 241/3/3 240/3/3 239/3/3
f 243/3/3 242/3/3 241/3/3
f 245/3/3 244/3/3 243/3/3
f 247/3/3 246/3/3 245/3/3
f 249/3/3 248/3/3 247/3/3
f 251/3/3 250/3/3 249/3/3
f 253/3/3 252/3/3 251/3/3
f 255/3/3 254/3/3 253/3/3
f 257/3/3 256/3/3 255/3/3
f 259/3/3 257/3/3 255/3/3
f 259/3/3 258/3/3 257/3/3
f 260/3/3 258/3/3 259/3/3
f 261/3/3 255/3/3 253/3/3
f 261/3/3 259/3/3 255/3/3
f 262/3/3 259/3/3 261/3/3
f 263/3/3 253/3/3 251/3/3
f 263/3/3 261/3/3 253/3/3
f 264/3/3 261/3/3 263/3/3
f 265/3/3 251/3/3 249/3/3
f 265/3/3 263/3/3 251/3/3
f 266/3/3 263/3/3 265/3/3
f 267/3/3 249/3/3 247/3/3
f 267/3/3 265/3/3 249/3/3
f 268/3/3 265/3/3 267/3/3
f 269/3/3 247/3/3 245/3/3
f 269/3/3 267/3/3 247/3/3
f 270/3/3 267/3/3 269/3/3
f 271/3/3 245/3/3 243/3/3
f 271/3/3 269/3/3 245/3/3
f 272/3/3 269/3/3 271/3/3
f 273/3/3 243/3/3 241/3/3
f 273/3/3 271/3/3 243/3/3
f 274/3/3 271/3/3 273/3/3
f 275/3/3 241/3/3 239/3/3
f 275/3/3 273/3/3 241/3/3
f 276/3/3 273/3/3 275/3/3
f 277/3/3 239/3/3 237/3/3
f 277/3/3 275/3/3 239/3/3
f 278/3/3 275/3/3 277/3/3
f 279/3/3 237/3/3 235/3/3
f 279/3/3 277/3/3 237/3/3
f 280/3/3 277/3/3 279/3/3
f 281/3/3 235/3/3 233/3/3
f 281/3/3 279/3/3 235/3/3
f 282/3/3 279/3/3 281/3/3
f 283/3/3 281/3/3 233/3/3
f 284/3/3 281/3/3 283/3/3
f 285/1/4 286/1/4 287/1/4
f 287/1/4 288/1/4 289/1/4
f 289/1/4 290/1/4 291/1/4
f 291/1/4 292/1/4 293/1/4
f 285/1/4 287/1/4 295/1/4
f 293/1/4 294/1/4 295/1/4
f 291/1/4 293/1/4 295/1/4
f 289/1/4 291/1/4 295/1/4
f 287/1/4 289/1/4 295/1/4
f 295/1/4 294/1/4 296/1/4
f 296/1/4 294/1/4 297/1/4
f 297/1/4 298/1/4 299/1/4
f 296/1/4 297/1/4 299/1/4
f 285/1/4 295/1/4 301/1/4
f 299/1/4 300/1/4 302/1/4
f 296/1/4 299/1/4 302/1/4
f 302/1/4 300/1/4 303/1/4
f 301/1/4 302/1/4 303/1/4
f 303/1/4 304/1/4 305/1/4
f 305/1/4 306/1/4 307/1/4
f 307/1/4 308/1/4 309/1/4
f 309/1/4 310/1/4 311/1/4
f 309/1/4 311/1/4 313/1/4
f 311/1/4 312/1/4 313/1/4
f 313/1/4 312/1/4 314/1/4
f 307/1/4 309/1/4 315/1/4
f 309/1/4 313/1/4 315/1/4
f 315/1/4 313/1/4 316/1/4
f 305/1/4 307/1/4 317/1/4
f 307/1/4 315/1/4 317/1/4
f 317/1/4 315/1/4 318/1/4
f 303/1/4 305/1/4 319/1/4
f 305/1/4 317/1/4 319/1/4
f 319/1/4 317/1/4 320/1/4
f 301/1/4 303/1/4 321/1/4
f 303/1/4 319/1/4 321/1/4
f 321/1/4 319/1/4 322/1/4
f 301/1/4 321/1/4 323/1/4
f 323/1/4 321/1/4 324/1/4
f 301/1/4 323/1/4 325/1/4
f 325/1/4 323/1/4 326/1/4
f 301/1/4 325/1/4 327/1/4
f 327/1/4 325/1/4 328/1/4
f 301/1/4 327/1/4 329/1/4
f 329/1/4 327/1/4 330/1/4
f 301/1/4 329/1/4 331/1/4
f 331/1/4 329/1/4 332/1/4
f 301/1/4 331/1/4 333/1/4
f 333/1/4 331/1/4 334/1/4
f 285/1/4 301/1/4 335/1/4
f 301/1/4 333/1/4 335/1/4
f 335/1/4 333/1/4 336/1/4
f 337/3/4 338/3/4 339/3/4
f 339/3/4 340/3/4 341/3/4
f 337/3/4 339/3/4 343/3/4
f 341/3/4 342/3/4 343/3/4
f 339/3/4 341/3/4 343/3/4
f 343/3/4 342/3/4 344/3/4
f 344/3/4 342/3/4 345/3/4
f 345/3/4 346/3/4 347/3/4
f 344/3/4 345/3/4 347/3/4
f 347/3/4 346/3/4 348/3/4
f 348/3/4 346/3/4 349/3/4
f 349/3/4 350/3/4 351/3/4
f 348/3/4 349/3/4 351/3/4
f 351/3/4 350/3/4 352/3/4
f 352/3/4 350/3/4 353/3/4
f 353/3/4 354/3/4 355/3/4
f 352/3/4 353/3/4 355/3/4
f 355/3/4 354/3/4 356/3/4
f 356/3/4 354/3/4 357/3/4
f 357/3/4 358/3/4 359/3/4
f 356/3/4 357/3/4 359/3/4
f 359/3/4 358/3/4 360/3/4
f 360/3/4 358/3/4 361/3/4
f 361/3/4 362/3/4 365/3/4
f 360/3/4 361/3/4 365/3/4
f 365/3/4 362/3/4 366/3/4
f 366/3/4 362/3/4 367/3/4
f 367/3/4 362/3/4 368/3/4
f 363/2/4 364/2/4 369/2/4
f 369/2/4 364/2/4 370/2/4
f 368/3/4 362/3/4 371/3/4
f 371/3/4 372/3/4 373/3/4
f 368/3/4 371/3/4 373/3/4
f 373/3/4 372/3/4 374/3/4
f 374/3/4 372/3/4 375/3/4
f 375/3/4 376/3/4 377/3/4
f 374/3/4 375/3/4 377/3/4
f 377/3/4 376/3/4 378/3/4
f 378/3/4 376/3/4 379/3/4
f 379/3/4 376/3/4 380/3/4
f 380/3/4 376/3/4 381/3/4
f 381/3/4 382/3/4 383/3/4
f 380/3/4 381/3/4 383/3/4
f 383/3/4 382/3/4 384/3/4
f 384/3/4 382/3/4 385/3/4
f 385/3/4 386/3/4 387/3/4
f 384/3/4 385/3/4 387/3/4
f 384/3/4 387/3/4 389/3/4
f 387/3/4 388/3/4 389/3/4
f 389/3/4 388/3/4 390/3/4
f 390/3/4 388/3/4 392/3/4
f 392/3/4 388/3/4 393/3/4
f 391/3/4 392/3/4 393/3/4
f 393/3/4 388/3/4 394/3/4
f 391/3/4 393/3/4 396/3/4
f 396/3/4 393/3/4 397/3/4
f 397/3/4 393/3/4 398/3/4
f 395/3/4 396/3/4 400/3/4
f 396/3/4 397/3/4 400/3/4
f 400/3/4 397/3/4 401/3/4
f 401/3/4 397/3/4 402/3/4
f 399/3/4 400/3/4 404/3/4
f 400/3/4 401/3/4 404/3/4
f 403/3/4 404/3/4 406/3/4
f 404/3/4 401/3/4 407/3/4
f 406/3/4 404/3/4 407/3/4
f 407/3/4 401/3/4 408/3/4
f 405/3/4 406/3/4 409/3/4
f 406/3/4 407/3/4 409/3/4
f 409/3/4 407/3/4 410/3/4
f 405/3/4 409/3/4 412/3/4
f 411/3/4 412/3/4 414/3/4
f 413/3/4 414/3/4 416/3/4
f 412/3/4 409/3/4 417/3/4
f 414/3/4 412/3/4 417/3/4
f 416/3/4 414/3/4 417/3/4
f 417/3/4 409/3/4 418/3/4
f 415/3/4 416/3/4 420/3/4
f 416/3/4 417/3/4 420/3/4
f 420/3/4 417/3/4 421/3/4
f 421/3/4 417/3/4 422/3/4
f 419/3/4 420/3/4 424/3/4
f 420/3/4 421/3/4 424/3/4
f 424/3/4 421/3/4 425/3/4
f 425/3/4 421/3/4 426/3/4
f 423/3/4 424/3/4 428/3/4
f 424/3/4 425/3/4 428/3/4
f 428/3/4 425/3/4 429/3/4
f 429/3/4 425/3/4 430/3/4
f 427/3/4 428/3/4 432/3/4
f 428/3/4 429/3/4 432/3/4
f 432/3/4 429/3/4 433/3/4
f 433/3/4 429/3/4 434/3/4
f 431/3/4 432/3/4 435/3/4
f 432/3/4 433/3/4 435/3/4
f 435/3/4 433/3/4 436/3/4
f 431/3/4 435/3/4 437/3/4
f 437/3/4 435/3/4 438/3/4
f 431/3/4 437/3/4 439/3/4
f 439/3/4 437/3/4 440/3/4
f 441/4/4 442/4/4 443/4/4
f 443/4/4 442/4/4 444/4/4
f 445/3/4 446/3/4 447/3/4
f 447/3/4 446/3/4 448/3/4
f 449/3/4 450/3/4 451/3/4
f 451/3/4 450/3/4 452/3/4
f 453/4/4 454/4/4 455/4/4
f 455/4/4 454/4/4 456/4/4
f 457/3/4 458/3/4 459/3/4
f 459/3/4 458/3/4 460/3/4
f 461/3/4 462/3/4 463/3/4
f 463/3/4 462/3/4 464/3/4
f 467/3/5 466/3/5 465/3/5
f 468/3/5 466/3/5 467/3/5
f 469/3/5 467/3/5 465/3/5
f 469/4/5 468/4/5 467/4/5
f 470/3/5 466/3/5 468/3/5
f 470/4/5 468/4/5 469/4/5
f 471/3/5 469/3/5 465/3/5
f 472/3/5 469/3/5 471/3/5
f 473/3/5 466/3/5 470/3/5
f 474/3/5 466/3/5 473/3/5
f 477/2/5 476/2/5 475/2/5
f 478/2/5 476/2/5 477/2/5
f 483/3/5 480/3/5 479/3/5
f 484/3/5 480/3/5 483/3/5
f 485/3/5 482/3/5 481/3/5
f 486/3/5 482/3/5 485/3/5
f 491/3/5 488/3/5 487/3/5
f 492/3/5 488/3/5 491/3/5
f 493/3/5 490/3/5 489/3/5
f 494/3/5 490/3/5 493/3/5
f 499/3/5 496/3/5 495/3/5
f 500/3/5 496/3/5 499/3/5
f 501/3/5 498/3/5 497/3/5
f 502/3/5 498/3/5 501/3/5
f 507/3/5 504/3/5 503/3/5
f 508/3/5 504/3/5 507/3/5
f 509/3/5 506/3/5 505/3/5
f 510/3/5 506/3/5 509/3/5
f 515/3/5 512/3/5 511/3/5
f 516/3/5 512/3/5 515/3/5
f 517/3/5 514/3/5 513/3/5
f 518/3/5 514/3/5 517/3/5
f 523/3/5 520/3/5 519/3/5
f 524/3/5 520/3/5 523/3/5
f 525/3/5 522/3/5 521/3/5
f 526/3/5 522/3/5 525/3/5
f 531/3/5 528/3/5 527/3/5
f 532/3/5 528/3/5 531/3/5
f 533/3/5 530/3/5 529/3/5
f 534/3/5 530/3/5 533/3/5
f 539/3/5 536/3/5 535/3/5
f 540/3/5 536/3/5 539/3/5
f 541/3/5 538/3/5 537/3/5
f 542/3/5 538/3/5 541/3/5
f 547/3/5 544/3/5 543/3/5
f 548/3/5 544/3/5 547/3/5
f 549/3/5 546/3/5 545/3/5
f 550/3/5 546/3/5 549/3/5
f 555/3/5 552/3/5 551/3/5
f 556/3/5 552/3/5 555/3/5
f 557/3/5 554/3/5 553/3/5
f 558/3/5 554/3/5 557/3/5
f 563/3/5 560/3/5 559/3/5
f 564/3/5 560/3/5 563/3/5
f 565/3/5 562/3/5 561/3/5
f 566/3/5 562/3/5 565/3/5
f 569/3/5 568/3/5 567/3/5
f 570/3/5 568/3/5 569/3/5
f 571/4/6 572/4/6 573/4/6
f 573/4/6 572/4/6 574/4/6
f 575/3/6 576/3/6 579/3/6
f 579/3/6 576/3/6 580/3/6
f 577/3/6 578/3/6 581/3/6
f 581/3/6 578/3/6 582/3/6
f 583/4/6 584/4/6 585/4/6
f 585/4/6 584/4/6 586/4/6
f 587/3/6 588/3/6 591/3/6
f 591/3/6 588/3/6 592/3/6
f 589/3/6 590/3/6 593/3/6
f 593/3/6 590/3/6 594/3/6
f 595/2/6 596/2/6 597/2/6
f 597/2/6 596/2/6 598/2/6
f 599/3/6 600/3/6 603/3/6
f 603/3/6 600/3/6 604/3/6
f 601/3/6 602/3/6 605/3/6
f 605/3/6 602/3/6 606/3/6
f 607/3/6 608/3/6 611/3/6
f 611/3/6 608/3/6 612/3/6
f 609/3/6 610/3/6 613/3/6
f 613/3/6 610/3/6 614/3/6
f 615/3/6 616/3/6 619/3/6
f 619/3/6 616/3/6 620/3/6
f 617/3/6 618/3/6 621/3/6
f 621/3/6 618/3/6 622/3/6
f 623/3/6 624/3/6 627/3/6
f 627/3/6 624/3/6 628/3/6
f 625/3/6 626/3/6 629/3/6
f 629/3/6 626/3/6 630/3/6
f 631/3/6 632/3/6 635/3/6
f 635/3/6 632/3/6 636/3/6
f 633/3/6 634/3/6 637/3/6
f 637/3/6 634/3/6 638/3/6
f 639/3/6 640/3/6 643/3/6
f 643/3/6 640/3/6 644/3/6
f 641/3/6 642/3/6 645/3/6
f 645/3/6 642/3/6 646/3/6
f 647/3/6 648/3/6 651/3/6
f 651/3/6 648/3/6 652/3/6
f 649/3/6 650/3/6 653/3/6
f 653/3/6 650/3/6 654/3/6
f 655/3/6 656/3/6 659/3/6
f 659/3/6 656/3/6 660/3/6
f 657/3/6 658/3/6 661/3/6
f 661/3/6 658/3/6 662/3/6
f 663/3/6 664/3/6 667/3/6
f 667/3/6 664/3/6 668/3/6
f 665/3/6 666/3/6 669/3/6
f 669/3/6 666/3/6 670/3/6
f 671/3/6 672/3/6 675/3/6
f 675/3/6 672/3/6 676/3/6
f 673/3/6 674/3/6 677/3/6
f 677/3/6 674/3/6 678/3/6
f 679/3/6 680/3/6 683/3/6
f 683/3/6 680/3/6 684/3/6
f 681/3/6 682/3/6 685/3/6
f 685/3/6 682/3/6 686/3/6
f 687/3/6 688/3/6 691/3/6
f 691/3/6 688/3/6 692/3/6
f 689/3/6 690/3/6 693/3/6
f 693/3/6 690/3/6 694/3/6
f 695/3/6 696/3/6 697/3/6
f 697/3/6 696/3/6 698/3/6
