# MagicaVoxel @ Ephtracy

# group
g carrinho_roda

# material
mtllib carrinho_roda.mtl
usemtl palette

# normals
vn -1 0 0
vn 1 0 0
vn 0 0 1
vn 0 0 -1
vn 0 -1 0
vn 0 1 0

# texcoords
vt 0.876953 0.5
vt 0.970703 0.5
vt 0.990234 0.5

# verts
v -6.5 6 -3.5
v -6.5 6 -8.5
v -6.5 11 -3.5
v -6.5 11 -8.5
v -5.5 4 -3.5
v -5.5 4 -8.5
v -5.5 6 -3.5
v -5.5 6 -8.5
v -5.5 11 -3.5
v -5.5 11 -8.5
v -5.5 13 -3.5
v -5.5 13 -8.5
v -4.5 3 -3.5
v -4.5 3 -8.5
v -4.5 4 -3.5
v -4.5 4 -8.5
v -4.5 13 -3.5
v -4.5 13 -8.5
v -4.5 14 -3.5
v -4.5 14 -8.5
v -3.5 5 -3.5
v -3.5 5 -4.5
v -3.5 6 -3.5
v -3.5 6 -4.5
v -3.5 11 -3.5
v -3.5 11 -4.5
v -3.5 12 -3.5
v -3.5 12 -4.5
v -2.5 2 -3.5
v -2.5 2 -8.5
v -2.5 3 -3.5
v -2.5 3 -8.5
v -2.5 6 -3.5
v -2.5 6 -4.5
v -2.5 7 -3.5
v -2.5 7 -4.5
v -2.5 10 -3.5
v -2.5 10 -4.5
v -2.5 11 -3.5
v -2.5 11 -4.5
v -2.5 14 -3.5
v -2.5 14 -8.5
v -2.5 15 -3.5
v -2.5 15 -8.5
v -1.5 7 -3.5
v -1.5 7 -4.5
v -1.5 8 -3.5
v -1.5 8 -4.5
v -1.5 9 -3.5
v -1.5 9 -4.5
v -1.5 10 -3.5
v -1.5 10 -4.5
v -0.5 8 -3.5
v -0.5 8 -4.5
v -0.5 9 -3.5
v -0.5 9 -4.5
v 0.5 7 -3.5
v 0.5 7 -4.5
v 0.5 8 -3.5
v 0.5 8 -4.5
v 0.5 9 -3.5
v 0.5 9 -4.5
v 0.5 10 -3.5
v 0.5 10 -4.5
v 1.5 6 -3.5
v 1.5 6 -4.5
v 1.5 7 -3.5
v 1.5 7 -4.5
v 1.5 10 -3.5
v 1.5 10 -4.5
v 1.5 11 -3.5
v 1.5 11 -4.5
v 2.5 3 -3.5
v 2.5 3 -4.5
v 2.5 4 -3.5
v 2.5 4 -4.5
v 2.5 5 -3.5
v 2.5 5 -4.5
v 2.5 6 -3.5
v 2.5 6 -4.5
v 2.5 11 -3.5
v 2.5 11 -4.5
v 2.5 12 -3.5
v 2.5 12 -4.5
v 2.5 13 -3.5
v 2.5 13 -4.5
v 2.5 14 -3.5
v 2.5 14 -4.5
v 3.5 4 -3.5
v 3.5 4 -4.5
v 3.5 5 -3.5
v 3.5 5 -4.5
v 3.5 12 -3.5
v 3.5 12 -4.5
v 3.5 13 -3.5
v 3.5 13 -4.5
v 4.5 5 -3.5
v 4.5 5 -4.5
v 4.5 6 -3.5
v 4.5 6 -4.5
v 4.5 11 -3.5
v 4.5 11 -4.5
v 4.5 12 -3.5
v 4.5 12 -4.5
v 5.5 6 -3.5
v 5.5 6 -4.5
v 5.5 11 -3.5
v 5.5 11 -4.5
v -5.5 6 -3.5
v -5.5 6 -4.5
v -5.5 11 -3.5
v -5.5 11 -4.5
v -4.5 5 -3.5
v -4.5 5 -4.5
v -4.5 6 -3.5
v -4.5 6 -4.5
v -4.5 11 -3.5
v -4.5 11 -4.5
v -4.5 12 -3.5
v -4.5 12 -4.5
v -3.5 4 -3.5
v -3.5 4 -4.5
v -3.5 5 -3.5
v -3.5 5 -4.5
v -3.5 12 -3.5
v -3.5 12 -4.5
v -3.5 13 -3.5
v -3.5 13 -4.5
v -2.5 3 -3.5
v -2.5 3 -4.5
v -2.5 4 -3.5
v -2.5 4 -4.5
v -2.5 5 -3.5
v -2.5 5 -4.5
v -2.5 6 -3.5
v -2.5 6 -4.5
v -2.5 11 -3.5
v -2.5 11 -4.5
v -2.5 12 -3.5
v -2.5 12 -4.5
v -2.5 13 -3.5
v -2.5 13 -4.5
v -2.5 14 -3.5
v -2.5 14 -4.5
v -1.5 6 -3.5
v -1.5 6 -4.5
v -1.5 7 -3.5
v -1.5 7 -4.5
v -1.5 10 -3.5
v -1.5 10 -4.5
v -1.5 11 -3.5
v -1.5 11 -4.5
v -0.5 7 -3.5
v -0.5 7 -4.5
v -0.5 8 -3.5
v -0.5 8 -4.5
v -0.5 9 -3.5
v -0.5 9 -4.5
v -0.5 10 -3.5
v -0.5 10 -4.5
v 0.5 8 -3.5
v 0.5 8 -4.5
v 0.5 9 -3.5
v 0.5 9 -4.5
v 1.5 7 -3.5
v 1.5 7 -4.5
v 1.5 8 -3.5
v 1.5 8 -4.5
v 1.5 9 -3.5
v 1.5 9 -4.5
v 1.5 10 -3.5
v 1.5 10 -4.5
v 2.5 2 -3.5
v 2.5 2 -8.5
v 2.5 3 -3.5
v 2.5 3 -8.5
v 2.5 6 -3.5
v 2.5 6 -4.5
v 2.5 7 -3.5
v 2.5 7 -4.5
v 2.5 10 -3.5
v 2.5 10 -4.5
v 2.5 11 -3.5
v 2.5 11 -4.5
v 2.5 14 -3.5
v 2.5 14 -8.5
v 2.5 15 -3.5
v 2.5 15 -8.5
v 3.5 5 -3.5
v 3.5 5 -4.5
v 3.5 6 -3.5
v 3.5 6 -4.5
v 3.5 11 -3.5
v 3.5 11 -4.5
v 3.5 12 -3.5
v 3.5 12 -4.5
v 4.5 3 -3.5
v 4.5 3 -8.5
v 4.5 4 -3.5
v 4.5 4 -8.5
v 4.5 13 -3.5
v 4.5 13 -8.5
v 4.5 14 -3.5
v 4.5 14 -8.5
v 5.5 4 -3.5
v 5.5 4 -8.5
v 5.5 6 -3.5
v 5.5 6 -8.5
v 5.5 11 -3.5
v 5.5 11 -8.5
v 5.5 13 -3.5
v 5.5 13 -8.5
v 6.5 6 -3.5
v 6.5 6 -8.5
v 6.5 11 -3.5
v 6.5 11 -8.5
v -6.5 6 -3.5
v -6.5 11 -3.5
v -5.5 4 -3.5
v -5.5 6 -3.5
v -5.5 11 -3.5
v -5.5 13 -3.5
v -4.5 3 -3.5
v -4.5 4 -3.5
v -4.5 5 -3.5
v -4.5 6 -3.5
v -4.5 11 -3.5
v -4.5 12 -3.5
v -4.5 13 -3.5
v -4.5 14 -3.5
v -3.5 4 -3.5
v -3.5 5 -3.5
v -3.5 6 -3.5
v -3.5 11 -3.5
v -3.5 12 -3.5
v -3.5 13 -3.5
v -2.5 2 -3.5
v -2.5 3 -3.5
v -2.5 4 -3.5
v -2.5 5 -3.5
v -2.5 6 -3.5
v -2.5 7 -3.5
v -2.5 10 -3.5
v -2.5 11 -3.5
v -2.5 12 -3.5
v -2.5 13 -3.5
v -2.5 14 -3.5
v -2.5 15 -3.5
v -1.5 6 -3.5
v -1.5 7 -3.5
v -1.5 8 -3.5
v -1.5 9 -3.5
v -1.5 10 -3.5
v -1.5 11 -3.5
v -0.5 7 -3.5
v -0.5 8 -3.5
v -0.5 9 -3.5
v -0.5 10 -3.5
v 0.5 7 -3.5
v 0.5 8 -3.5
v 0.5 9 -3.5
v 0.5 10 -3.5
v 1.5 6 -3.5
v 1.5 7 -3.5
v 1.5 8 -3.5
v 1.5 9 -3.5
v 1.5 10 -3.5
v 1.5 11 -3.5
v 2.5 2 -3.5
v 2.5 3 -3.5
v 2.5 4 -3.5
v 2.5 5 -3.5
v 2.5 6 -3.5
v 2.5 7 -3.5
v 2.5 10 -3.5
v 2.5 11 -3.5
v 2.5 12 -3.5
v 2.5 13 -3.5
v 2.5 14 -3.5
v 2.5 15 -3.5
v 3.5 4 -3.5
v 3.5 5 -3.5
v 3.5 6 -3.5
v 3.5 11 -3.5
v 3.5 12 -3.5
v 3.5 13 -3.5
v 4.5 3 -3.5
v 4.5 4 -3.5
v 4.5 5 -3.5
v 4.5 6 -3.5
v 4.5 11 -3.5
v 4.5 12 -3.5
v 4.5 13 -3.5
v 4.5 14 -3.5
v 5.5 4 -3.5
v 5.5 6 -3.5
v 5.5 11 -3.5
v 5.5 13 -3.5
v 6.5 6 -3.5
v 6.5 11 -3.5
v -5.5 6 -4.5
v -5.5 11 -4.5
v -4.5 5 -4.5
v -4.5 6 -4.5
v -4.5 11 -4.5
v -4.5 12 -4.5
v -3.5 4 -4.5
v -3.5 5 -4.5
v -3.5 6 -4.5
v -3.5 11 -4.5
v -3.5 12 -4.5
v -3.5 13 -4.5
v -2.5 3 -4.5
v -2.5 4 -4.5
v -2.5 5 -4.5
v -2.5 6 -4.5
v -2.5 7 -4.5
v -2.5 10 -4.5
v -2.5 11 -4.5
v -2.5 12 -4.5
v -2.5 13 -4.5
v -2.5 14 -4.5
v -1.5 6 -4.5
v -1.5 7 -4.5
v -1.5 8 -4.5
v -1.5 9 -4.5
v -1.5 10 -4.5
v -1.5 11 -4.5
v -0.5 7 -4.5
v -0.5 8 -4.5
v -0.5 9 -4.5
v -0.5 10 -4.5
v 0.5 7 -4.5
v 0.5 8 -4.5
v 0.5 9 -4.5
v 0.5 10 -4.5
v 1.5 6 -4.5
v 1.5 7 -4.5
v 1.5 8 -4.5
v 1.5 9 -4.5
v 1.5 10 -4.5
v 1.5 11 -4.5
v 2.5 3 -4.5
v 2.5 4 -4.5
v 2.5 5 -4.5
v 2.5 6 -4.5
v 2.5 7 -4.5
v 2.5 10 -4.5
v 2.5 11 -4.5
v 2.5 12 -4.5
v 2.5 13 -4.5
v 2.5 14 -4.5
v 3.5 4 -4.5
v 3.5 5 -4.5
v 3.5 6 -4.5
v 3.5 11 -4.5
v 3.5 12 -4.5
v 3.5 13 -4.5
v 4.5 5 -4.5
v 4.5 6 -4.5
v 4.5 11 -4.5
v 4.5 12 -4.5
v 5.5 6 -4.5
v 5.5 11 -4.5
v -6.5 6 -8.5
v -6.5 11 -8.5
v -5.5 4 -8.5
v -5.5 6 -8.5
v -5.5 11 -8.5
v -5.5 13 -8.5
v -4.5 3 -8.5
v -4.5 4 -8.5
v -4.5 13 -8.5
v -4.5 14 -8.5
v -2.5 2 -8.5
v -2.5 3 -8.5
v -2.5 14 -8.5
v -2.5 15 -8.5
v 2.5 2 -8.5
v 2.5 3 -8.5
v 2.5 14 -8.5
v 2.5 15 -8.5
v 4.5 3 -8.5
v 4.5 4 -8.5
v 4.5 13 -8.5
v 4.5 14 -8.5
v 5.5 4 -8.5
v 5.5 6 -8.5
v 5.5 11 -8.5
v 5.5 13 -8.5
v 6.5 6 -8.5
v 6.5 11 -8.5
v -2.5 2 -3.5
v 2.5 2 -3.5
v -2.5 2 -8.5
v 2.5 2 -8.5
v -4.5 3 -3.5
v -2.5 3 -3.5
v 2.5 3 -3.5
v 4.5 3 -3.5
v -4.5 3 -8.5
v -2.5 3 -8.5
v 2.5 3 -8.5
v 4.5 3 -8.5
v -5.5 4 -3.5
v -4.5 4 -3.5
v 4.5 4 -3.5
v 5.5 4 -3.5
v -5.5 4 -8.5
v -4.5 4 -8.5
v 4.5 4 -8.5
v 5.5 4 -8.5
v -3.5 5 -3.5
v -2.5 5 -3.5
v 2.5 5 -3.5
v 3.5 5 -3.5
v -3.5 5 -4.5
v -2.5 5 -4.5
v 2.5 5 -4.5
v 3.5 5 -4.5
v -6.5 6 -3.5
v -5.5 6 -3.5
v -2.5 6 -3.5
v -1.5 6 -3.5
v 1.5 6 -3.5
v 2.5 6 -3.5
v 5.5 6 -3.5
v 6.5 6 -3.5
v -2.5 6 -4.5
v -1.5 6 -4.5
v 1.5 6 -4.5
v 2.5 6 -4.5
v -6.5 6 -8.5
v -5.5 6 -8.5
v 5.5 6 -8.5
v 6.5 6 -8.5
v -1.5 7 -3.5
v -0.5 7 -3.5
v 0.5 7 -3.5
v 1.5 7 -3.5
v -1.5 7 -4.5
v -0.5 7 -4.5
v 0.5 7 -4.5
v 1.5 7 -4.5
v -0.5 8 -3.5
v 0.5 8 -3.5
v -0.5 8 -4.5
v 0.5 8 -4.5
v -1.5 9 -3.5
v -0.5 9 -3.5
v 0.5 9 -3.5
v 1.5 9 -3.5
v -1.5 9 -4.5
v -0.5 9 -4.5
v 0.5 9 -4.5
v 1.5 9 -4.5
v -2.5 10 -3.5
v -1.5 10 -3.5
v 1.5 10 -3.5
v 2.5 10 -3.5
v -2.5 10 -4.5
v -1.5 10 -4.5
v 1.5 10 -4.5
v 2.5 10 -4.5
v -5.5 11 -3.5
v -4.5 11 -3.5
v -3.5 11 -3.5
v -2.5 11 -3.5
v 2.5 11 -3.5
v 3.5 11 -3.5
v 4.5 11 -3.5
v 5.5 11 -3.5
v -5.5 11 -4.5
v -4.5 11 -4.5
v -3.5 11 -4.5
v -2.5 11 -4.5
v 2.5 11 -4.5
v 3.5 11 -4.5
v 4.5 11 -4.5
v 5.5 11 -4.5
v -4.5 12 -3.5
v -3.5 12 -3.5
v 3.5 12 -3.5
v 4.5 12 -3.5
v -4.5 12 -4.5
v -3.5 12 -4.5
v 3.5 12 -4.5
v 4.5 12 -4.5
v -3.5 13 -3.5
v -2.5 13 -3.5
v 2.5 13 -3.5
v 3.5 13 -3.5
v -3.5 13 -4.5
v -2.5 13 -4.5
v 2.5 13 -4.5
v 3.5 13 -4.5
v -2.5 14 -3.5
v 2.5 14 -3.5
v -2.5 14 -4.5
v 2.5 14 -4.5
v -2.5 3 -3.5
v 2.5 3 -3.5
v -2.5 3 -4.5
v 2.5 3 -4.5
v -3.5 4 -3.5
v -2.5 4 -3.5
v 2.5 4 -3.5
v 3.5 4 -3.5
v -3.5 4 -4.5
v -2.5 4 -4.5
v 2.5 4 -4.5
v 3.5 4 -4.5
v -4.5 5 -3.5
v -3.5 5 -3.5
v 3.5 5 -3.5
v 4.5 5 -3.5
v -4.5 5 -4.5
v -3.5 5 -4.5
v 3.5 5 -4.5
v 4.5 5 -4.5
v -5.5 6 -3.5
v -4.5 6 -3.5
v -3.5 6 -3.5
v -2.5 6 -3.5
v 2.5 6 -3.5
v 3.5 6 -3.5
v 4.5 6 -3.5
v 5.5 6 -3.5
v -5.5 6 -4.5
v -4.5 6 -4.5
v -3.5 6 -4.5
v -2.5 6 -4.5
v 2.5 6 -4.5
v 3.5 6 -4.5
v 4.5 6 -4.5
v 5.5 6 -4.5
v -2.5 7 -3.5
v -1.5 7 -3.5
v 1.5 7 -3.5
v 2.5 7 -3.5
v -2.5 7 -4.5
v -1.5 7 -4.5
v 1.5 7 -4.5
v 2.5 7 -4.5
v -1.5 8 -3.5
v -0.5 8 -3.5
v 0.5 8 -3.5
v 1.5 8 -3.5
v -1.5 8 -4.5
v -0.5 8 -4.5
v 0.5 8 -4.5
v 1.5 8 -4.5
v -0.5 9 -3.5
v 0.5 9 -3.5
v -0.5 9 -4.5
v 0.5 9 -4.5
v -1.5 10 -3.5
v -0.5 10 -3.5
v 0.5 10 -3.5
v 1.5 10 -3.5
v -1.5 10 -4.5
v -0.5 10 -4.5
v 0.5 10 -4.5
v 1.5 10 -4.5
v -6.5 11 -3.5
v -5.5 11 -3.5
v -2.5 11 -3.5
v -1.5 11 -3.5
v 1.5 11 -3.5
v 2.5 11 -3.5
v 5.5 11 -3.5
v 6.5 11 -3.5
v -2.5 11 -4.5
v -1.5 11 -4.5
v 1.5 11 -4.5
v 2.5 11 -4.5
v -6.5 11 -8.5
v -5.5 11 -8.5
v 5.5 11 -8.5
v 6.5 11 -8.5
v -3.5 12 -3.5
v -2.5 12 -3.5
v 2.5 12 -3.5
v 3.5 12 -3.5
v -3.5 12 -4.5
v -2.5 12 -4.5
v 2.5 12 -4.5
v 3.5 12 -4.5
v -5.5 13 -3.5
v -4.5 13 -3.5
v 4.5 13 -3.5
v 5.5 13 -3.5
v -5.5 13 -8.5
v -4.5 13 -8.5
v 4.5 13 -8.5
v 5.5 13 -8.5
v -4.5 14 -3.5
v -2.5 14 -3.5
v 2.5 14 -3.5
v 4.5 14 -3.5
v -4.5 14 -8.5
v -2.5 14 -8.5
v 2.5 14 -8.5
v 4.5 14 -8.5
v -2.5 15 -3.5
v 2.5 15 -3.5
v -2.5 15 -8.5
v 2.5 15 -8.5

# faces
f 3/3/1 2/3/1 1/3/1
f 4/3/1 2/3/1 3/3/1
f 7/3/1 6/3/1 5/3/1
f 8/3/1 6/3/1 7/3/1
f 11/3/1 10/3/1 9/3/1
f 12/3/1 10/3/1 11/3/1
f 15/3/1 14/3/1 13/3/1
f 16/3/1 14/3/1 15/3/1
f 19/3/1 18/3/1 17/3/1
f 20/3/1 18/3/1 19/3/1
f 23/3/1 22/3/1 21/3/1
f 24/3/1 22/3/1 23/3/1
f 27/3/1 26/3/1 25/3/1
f 28/3/1 26/3/1 27/3/1
f 31/3/1 30/3/1 29/3/1
f 32/3/1 30/3/1 31/3/1
f 35/3/1 34/3/1 33/3/1
f 36/3/1 34/3/1 35/3/1
f 39/3/1 38/3/1 37/3/1
f 40/3/1 38/3/1 39/3/1
f 43/3/1 42/3/1 41/3/1
f 44/3/1 42/3/1 43/3/1
f 47/3/1 46/3/1 45/3/1
f 48/3/1 46/3/1 47/3/1
f 51/3/1 50/3/1 49/3/1
f 52/3/1 50/3/1 51/3/1
f 55/1/1 54/1/1 53/1/1
f 56/1/1 54/1/1 55/1/1
f 59/3/1 58/3/1 57/3/1
f 60/3/1 58/3/1 59/3/1
f 63/3/1 62/3/1 61/3/1
f 64/3/1 62/3/1 63/3/1
f 67/3/1 66/3/1 65/3/1
f 68/3/1 66/3/1 67/3/1
f 71/3/1 70/3/1 69/3/1
f 72/3/1 70/3/1 71/3/1
f 75/3/1 74/3/1 73/3/1
f 76/3/1 74/3/1 75/3/1
f 79/3/1 78/3/1 77/3/1
f 80/3/1 78/3/1 79/3/1
f 83/3/1 82/3/1 81/3/1
f 84/3/1 82/3/1 83/3/1
f 87/3/1 86/3/1 85/3/1
f 88/3/1 86/3/1 87/3/1
f 91/3/1 90/3/1 89/3/1
f 92/3/1 90/3/1 91/3/1
f 95/3/1 94/3/1 93/3/1
f 96/3/1 94/3/1 95/3/1
f 99/3/1 98/3/1 97/3/1
f 100/3/1 98/3/1 99/3/1
f 103/3/1 102/3/1 101/3/1
f 104/3/1 102/3/1 103/3/1
f 107/3/1 106/3/1 105/3/1
f 108/3/1 106/3/1 107/3/1
f 109/3/2 110/3/2 111/3/2
f 111/3/2 110/3/2 112/3/2
f 113/3/2 114/3/2 115/3/2
f 115/3/2 114/3/2 116/3/2
f 117/3/2 118/3/2 119/3/2
f 119/3/2 118/3/2 120/3/2
f 121/3/2 122/3/2 123/3/2
f 123/3/2 122/3/2 124/3/2
f 125/3/2 126/3/2 127/3/2
f 127/3/2 126/3/2 128/3/2
f 129/3/2 130/3/2 131/3/2
f 131/3/2 130/3/2 132/3/2
f 133/3/2 134/3/2 135/3/2
f 135/3/2 134/3/2 136/3/2
f 137/3/2 138/3/2 139/3/2
f 139/3/2 138/3/2 140/3/2
f 141/3/2 142/3/2 143/3/2
f 143/3/2 142/3/2 144/3/2
f 145/3/2 146/3/2 147/3/2
f 147/3/2 146/3/2 148/3/2
f 149/3/2 150/3/2 151/3/2
f 151/3/2 150/3/2 152/3/2
f 153/3/2 154/3/2 155/3/2
f 155/3/2 154/3/2 156/3/2
f 157/3/2 158/3/2 159/3/2
f 159/3/2 158/3/2 160/3/2
f 161/1/2 162/1/2 163/1/2
f 163/1/2 162/1/2 164/1/2
f 165/3/2 166/3/2 167/3/2
f 167/3/2 166/3/2 168/3/2
f 169/3/2 170/3/2 171/3/2
f 171/3/2 170/3/2 172/3/2
f 173/3/2 174/3/2 175/3/2
f 175/3/2 174/3/2 176/3/2
f 177/3/2 178/3/2 179/3/2
f 179/3/2 178/3/2 180/3/2
f 181/3/2 182/3/2 183/3/2
f 183/3/2 182/3/2 184/3/2
f 185/3/2 186/3/2 187/3/2
f 187/3/2 186/3/2 188/3/2
f 189/3/2 190/3/2 191/3/2
f 191/3/2 190/3/2 192/3/2
f 193/3/2 194/3/2 195/3/2
f 195/3/2 194/3/2 196/3/2
f 197/3/2 198/3/2 199/3/2
f 199/3/2 198/3/2 200/3/2
f 201/3/2 202/3/2 203/3/2
f 203/3/2 202/3/2 204/3/2
f 205/3/2 206/3/2 207/3/2
f 207/3/2 206/3/2 208/3/2
f 209/3/2 210/3/2 211/3/2
f 211/3/2 210/3/2 212/3/2
f 213/3/2 214/3/2 215/3/2
f 215/3/2 214/3/2 216/3/2
f 220/3/3 218/3/3 217/3/3
f 221/3/3 218/3/3 220/3/3
f 224/3/3 220/3/3 219/3/3
f 225/3/3 220/3/3 224/3/3
f 226/3/3 220/3/3 225/3/3
f 227/3/3 222/3/3 221/3/3
f 228/3/3 222/3/3 227/3/3
f 229/3/3 222/3/3 228/3/3
f 231/3/3 224/3/3 223/3/3
f 231/3/3 225/3/3 224/3/3
f 232/3/3 225/3/3 231/3/3
f 235/3/3 230/3/3 229/3/3
f 235/3/3 229/3/3 228/3/3
f 236/3/3 230/3/3 235/3/3
f 238/3/3 231/3/3 223/3/3
f 239/3/3 231/3/3 238/3/3
f 240/3/3 233/3/3 232/3/3
f 241/3/3 233/3/3 240/3/3
f 244/3/3 235/3/3 234/3/3
f 245/3/3 235/3/3 244/3/3
f 246/3/3 230/3/3 236/3/3
f 247/3/3 230/3/3 246/3/3
f 249/3/3 242/3/3 241/3/3
f 250/3/3 242/3/3 249/3/3
f 253/3/3 244/3/3 243/3/3
f 254/3/3 244/3/3 253/3/3
f 255/3/3 251/3/3 250/3/3
f 256/3/3 251/3/3 255/3/3
f 257/3/3 253/3/3 252/3/3
f 258/3/3 253/3/3 257/3/3
f 260/1/3 257/1/3 256/1/3
f 261/1/3 257/1/3 260/1/3
f 264/3/3 260/3/3 259/3/3
f 265/3/3 260/3/3 264/3/3
f 266/3/3 262/3/3 261/3/3
f 267/3/3 262/3/3 266/3/3
f 269/3/3 238/3/3 237/3/3
f 270/3/3 238/3/3 269/3/3
f 273/3/3 264/3/3 263/3/3
f 274/3/3 264/3/3 273/3/3
f 275/3/3 268/3/3 267/3/3
f 276/3/3 268/3/3 275/3/3
f 279/3/3 248/3/3 247/3/3
f 280/3/3 248/3/3 279/3/3
f 281/3/3 271/3/3 270/3/3
f 282/3/3 273/3/3 272/3/3
f 283/3/3 273/3/3 282/3/3
f 284/3/3 277/3/3 276/3/3
f 285/3/3 277/3/3 284/3/3
f 286/3/3 279/3/3 278/3/3
f 287/3/3 281/3/3 270/3/3
f 287/3/3 282/3/3 281/3/3
f 288/3/3 282/3/3 287/3/3
f 289/3/3 282/3/3 288/3/3
f 292/3/3 286/3/3 285/3/3
f 293/3/3 279/3/3 286/3/3
f 293/3/3 286/3/3 292/3/3
f 294/3/3 279/3/3 293/3/3
f 295/3/3 290/3/3 289/3/3
f 295/3/3 289/3/3 288/3/3
f 296/3/3 290/3/3 295/3/3
f 297/3/3 292/3/3 291/3/3
f 297/3/3 293/3/3 292/3/3
f 298/3/3 293/3/3 297/3/3
f 299/3/3 297/3/3 296/3/3
f 300/3/3 297/3/3 299/3/3
f 304/2/3 302/2/3 301/2/3
f 305/2/3 302/2/3 304/2/3
f 308/2/3 304/2/3 303/2/3
f 308/2/3 306/2/3 305/2/3
f 308/2/3 305/2/3 304/2/3
f 309/2/3 306/2/3 308/2/3
f 310/2/3 306/2/3 309/2/3
f 311/2/3 306/2/3 310/2/3
f 314/2/3 308/2/3 307/2/3
f 315/2/3 308/2/3 314/2/3
f 316/2/3 310/2/3 309/2/3
f 317/2/3 310/2/3 316/2/3
f 318/2/3 310/2/3 317/2/3
f 319/2/3 310/2/3 318/2/3
f 320/2/3 312/2/3 311/2/3
f 321/2/3 312/2/3 320/2/3
f 323/2/3 315/2/3 314/2/3
f 323/2/3 314/2/3 313/2/3
f 323/2/3 316/2/3 315/2/3
f 324/2/3 318/2/3 317/2/3
f 325/2/3 318/2/3 324/2/3
f 326/2/3 318/2/3 325/2/3
f 327/2/3 318/2/3 326/2/3
f 328/2/3 322/2/3 321/2/3
f 328/2/3 321/2/3 320/2/3
f 328/2/3 320/2/3 319/2/3
f 329/2/3 324/2/3 323/2/3
f 330/2/3 326/2/3 325/2/3
f 331/2/3 326/2/3 330/2/3
f 332/2/3 328/2/3 327/2/3
f 333/2/3 329/2/3 323/2/3
f 333/2/3 330/2/3 329/2/3
f 334/2/3 330/2/3 333/2/3
f 335/2/3 332/2/3 331/2/3
f 336/2/3 328/2/3 332/2/3
f 336/2/3 332/2/3 335/2/3
f 337/2/3 323/2/3 313/2/3
f 337/2/3 333/2/3 323/2/3
f 338/2/3 333/2/3 337/2/3
f 339/2/3 335/2/3 334/2/3
f 340/2/3 335/2/3 339/2/3
f 341/2/3 328/2/3 336/2/3
f 342/2/3 322/2/3 328/2/3
f 342/2/3 328/2/3 341/2/3
f 343/2/3 337/2/3 313/2/3
f 344/2/3 337/2/3 343/2/3
f 345/2/3 337/2/3 344/2/3
f 346/2/3 337/2/3 345/2/3
f 347/2/3 340/2/3 339/2/3
f 347/2/3 341/2/3 340/2/3
f 347/2/3 339/2/3 338/2/3
f 348/2/3 341/2/3 347/2/3
f 349/2/3 322/2/3 342/2/3
f 350/2/3 322/2/3 349/2/3
f 351/2/3 322/2/3 350/2/3
f 352/2/3 322/2/3 351/2/3
f 353/2/3 345/2/3 344/2/3
f 354/2/3 345/2/3 353/2/3
f 355/2/3 348/2/3 347/2/3
f 355/2/3 349/2/3 348/2/3
f 355/2/3 347/2/3 346/2/3
f 356/2/3 349/2/3 355/2/3
f 357/2/3 351/2/3 350/2/3
f 358/2/3 351/2/3 357/2/3
f 359/2/3 356/2/3 355/2/3
f 359/2/3 357/2/3 356/2/3
f 359/2/3 355/2/3 354/2/3
f 360/2/3 357/2/3 359/2/3
f 361/2/3 357/2/3 360/2/3
f 362/2/3 357/2/3 361/2/3
f 363/2/3 361/2/3 360/2/3
f 364/2/3 361/2/3 363/2/3
f 365/3/4 366/3/4 368/3/4
f 368/3/4 366/3/4 369/3/4
f 367/3/4 368/3/4 372/3/4
f 369/3/4 370/3/4 372/3/4
f 368/3/4 369/3/4 372/3/4
f 372/3/4 370/3/4 373/3/4
f 371/3/4 372/3/4 376/3/4
f 373/3/4 374/3/4 376/3/4
f 372/3/4 373/3/4 376/3/4
f 376/3/4 374/3/4 377/3/4
f 375/3/4 376/3/4 379/3/4
f 377/3/4 378/3/4 379/3/4
f 376/3/4 377/3/4 379/3/4
f 379/3/4 378/3/4 380/3/4
f 380/3/4 378/3/4 381/3/4
f 381/3/4 378/3/4 382/3/4
f 380/3/4 381/3/4 383/3/4
f 383/3/4 381/3/4 384/3/4
f 384/3/4 381/3/4 385/3/4
f 385/3/4 381/3/4 386/3/4
f 384/3/4 385/3/4 387/3/4
f 387/3/4 385/3/4 388/3/4
f 388/3/4 385/3/4 389/3/4
f 389/3/4 385/3/4 390/3/4
f 388/3/4 389/3/4 391/3/4
f 391/3/4 389/3/4 392/3/4
f 395/3/5 394/3/5 393/3/5
f 396/3/5 394/3/5 395/3/5
f 401/3/5 398/3/5 397/3/5
f 402/3/5 398/3/5 401/3/5
f 403/3/5 400/3/5 399/3/5
f 404/3/5 400/3/5 403/3/5
f 409/3/5 406/3/5 405/3/5
f 410/3/5 406/3/5 409/3/5
f 411/3/5 408/3/5 407/3/5
f 412/3/5 408/3/5 411/3/5
f 417/3/5 414/3/5 413/3/5
f 418/3/5 414/3/5 417/3/5
f 419/3/5 416/3/5 415/3/5
f 420/3/5 416/3/5 419/3/5
f 429/3/5 424/3/5 423/3/5
f 430/3/5 424/3/5 429/3/5
f 431/3/5 426/3/5 425/3/5
f 432/3/5 426/3/5 431/3/5
f 433/3/5 422/3/5 421/3/5
f 434/3/5 422/3/5 433/3/5
f 435/3/5 428/3/5 427/3/5
f 436/3/5 428/3/5 435/3/5
f 441/3/5 438/3/5 437/3/5
f 442/3/5 438/3/5 441/3/5
f 443/3/5 440/3/5 439/3/5
f 444/3/5 440/3/5 443/3/5
f 447/1/5 446/1/5 445/1/5
f 448/1/5 446/1/5 447/1/5
f 453/3/5 450/3/5 449/3/5
f 454/3/5 450/3/5 453/3/5
f 455/3/5 452/3/5 451/3/5
f 456/3/5 452/3/5 455/3/5
f 461/3/5 458/3/5 457/3/5
f 462/3/5 458/3/5 461/3/5
f 463/3/5 460/3/5 459/3/5
f 464/3/5 460/3/5 463/3/5
f 473/3/5 466/3/5 465/3/5
f 474/3/5 466/3/5 473/3/5
f 475/3/5 468/3/5 467/3/5
f 476/3/5 468/3/5 475/3/5
f 477/3/5 470/3/5 469/3/5
f 478/3/5 470/3/5 477/3/5
f 479/3/5 472/3/5 471/3/5
f 480/3/5 472/3/5 479/3/5
f 485/3/5 482/3/5 481/3/5
f 486/3/5 482/3/5 485/3/5
f 487/3/5 484/3/5 483/3/5
f 488/3/5 484/3/5 487/3/5
f 493/3/5 490/3/5 489/3/5
f 494/3/5 490/3/5 493/3/5
f 495/3/5 492/3/5 491/3/5
f 496/3/5 492/3/5 495/3/5
f 499/3/5 498/3/5 497/3/5
f 500/3/5 498/3/5 499/3/5
f 501/3/6 502/3/6 503/3/6
f 503/3/6 502/3/6 504/3/6
f 505/3/6 506/3/6 509/3/6
f 509/3/6 506/3/6 510/3/6
f 507/3/6 508/3/6 511/3/6
f 511/3/6 508/3/6 512/3/6
f 513/3/6 514/3/6 517/3/6
f 517/3/6 514/3/6 518/3/6
f 515/3/6 516/3/6 519/3/6
f 519/3/6 516/3/6 520/3/6
f 521/3/6 522/3/6 529/3/6
f 529/3/6 522/3/6 530/3/6
f 523/3/6 524/3/6 531/3/6
f 531/3/6 524/3/6 532/3/6
f 525/3/6 526/3/6 533/3/6
f 533/3/6 526/3/6 534/3/6
f 527/3/6 528/3/6 535/3/6
f 535/3/6 528/3/6 536/3/6
f 537/3/6 538/3/6 541/3/6
f 541/3/6 538/3/6 542/3/6
f 539/3/6 540/3/6 543/3/6
f 543/3/6 540/3/6 544/3/6
f 545/3/6 546/3/6 549/3/6
f 549/3/6 546/3/6 550/3/6
f 547/3/6 548/3/6 551/3/6
f 551/3/6 548/3/6 552/3/6
f 553/1/6 554/1/6 555/1/6
f 555/1/6 554/1/6 556/1/6
f 557/3/6 558/3/6 561/3/6
f 561/3/6 558/3/6 562/3/6
f 559/3/6 560/3/6 563/3/6
f 563/3/6 560/3/6 564/3/6
f 567/3/6 568/3/6 573/3/6
f 573/3/6 568/3/6 574/3/6
f 569/3/6 570/3/6 575/3/6
f 575/3/6 570/3/6 576/3/6
f 565/3/6 566/3/6 577/3/6
f 577/3/6 566/3/6 578/3/6
f 571/3/6 572/3/6 579/3/6
f 579/3/6 572/3/6 580/3/6
f 581/3/6 582/3/6 585/3/6
f 585/3/6 582/3/6 586/3/6
f 583/3/6 584/3/6 587/3/6
f 587/3/6 584/3/6 588/3/6
f 589/3/6 590/3/6 593/3/6
f 593/3/6 590/3/6 594/3/6
f 591/3/6 592/3/6 595/3/6
f 595/3/6 592/3/6 596/3/6
f 597/3/6 598/3/6 601/3/6
f 601/3/6 598/3/6 602/3/6
f 599/3/6 600/3/6 603/3/6
f 603/3/6 600/3/6 604/3/6
f 605/3/6 606/3/6 607/3/6
f 607/3/6 606/3/6 608/3/6
