# MagicaVoxel @ Ephtracy

# group
g carrinho_meio

# material
mtllib carrinho_meio.mtl
usemtl palette

# normals
vn -1 0 0
vn 1 0 0
vn 0 0 1
vn 0 0 -1
vn 0 -1 0
vn 0 1 0

# texcoords
vt 0.537109 0.5
vt 0.978516 0.5

# verts
v -10 6 9
v -10 6 -6
v -10 10 9
v -10 10 -6
v -9 4 8
v -9 4 -5
v -9 6 8
v -9 6 -5
v -8 2 7
v -8 2 -4
v -8 4 7
v -8 4 -4
v -7 0 6
v -7 0 -3
v -7 2 6
v -7 2 -3
v -5 2 10
v -5 2 7
v -5 2 -4
v -5 2 -7
v -5 4 10
v -5 4 8
v -5 4 7
v -5 4 -4
v -5 4 -5
v -5 4 -7
v 11 2 10
v 11 2 7
v 11 2 -4
v 11 2 -7
v 11 4 10
v 11 4 8
v 11 4 7
v 11 4 -4
v 11 4 -5
v 11 4 -7
v 15 2 6
v 15 2 -3
v 15 8 6
v 15 8 -3
v 16 8 7
v 16 8 -4
v 16 9 7
v 16 9 -4
v 17 9 8
v 17 9 -5
v 17 10 8
v 17 10 -5
v -9 9 8
v -9 9 -5
v -9 10 8
v -9 10 -5
v -8 8 7
v -8 8 -4
v -8 9 7
v -8 9 -4
v -7 2 6
v -7 2 -3
v -7 8 6
v -7 8 -3
v -3 2 10
v -3 2 7
v -3 2 -4
v -3 2 -7
v -3 4 10
v -3 4 8
v -3 4 7
v -3 4 -4
v -3 4 -5
v -3 4 -7
v 13 2 10
v 13 2 7
v 13 2 -4
v 13 2 -7
v 13 4 10
v 13 4 8
v 13 4 7
v 13 4 -4
v 13 4 -5
v 13 4 -7
v 15 0 6
v 15 0 -3
v 15 2 6
v 15 2 -3
v 16 2 7
v 16 2 -4
v 16 4 7
v 16 4 -4
v 17 4 8
v 17 4 -5
v 17 6 8
v 17 6 -5
v 18 6 9
v 18 6 -6
v 18 10 9
v 18 10 -6
v -5 2 10
v -5 4 10
v -3 2 10
v -3 4 10
v 11 2 10
v 11 4 10
v 13 2 10
v 13 4 10
v -10 6 9
v -10 10 9
v 18 6 9
v 18 10 9
v -9 4 8
v -9 6 8
v -5 4 8
v -3 4 8
v 11 4 8
v 13 4 8
v 17 4 8
v 17 6 8
v -8 2 7
v -8 4 7
v -5 2 7
v -5 4 7
v -3 2 7
v -3 4 7
v 11 2 7
v 11 4 7
v 13 2 7
v 13 4 7
v 16 2 7
v 16 4 7
v -7 0 6
v -7 2 6
v 15 0 6
v 15 2 6
v -7 2 -3
v -7 8 -3
v 15 2 -3
v 15 8 -3
v -8 8 -4
v -8 9 -4
v 16 8 -4
v 16 9 -4
v -9 9 -5
v -9 10 -5
v 17 9 -5
v 17 10 -5
v -9 9 8
v -9 10 8
v 17 9 8
v 17 10 8
v -8 8 7
v -8 9 7
v 16 8 7
v 16 9 7
v -7 2 6
v -7 8 6
v 15 2 6
v 15 8 6
v -7 0 -3
v -7 2 -3
v 15 0 -3
v 15 2 -3
v -8 2 -4
v -8 4 -4
v -5 2 -4
v -5 4 -4
v -3 2 -4
v -3 4 -4
v 11 2 -4
v 11 4 -4
v 13 2 -4
v 13 4 -4
v 16 2 -4
v 16 4 -4
v -9 4 -5
v -9 6 -5
v -5 4 -5
v -3 4 -5
v 11 4 -5
v 13 4 -5
v 17 4 -5
v 17 6 -5
v -10 6 -6
v -10 10 -6
v 18 6 -6
v 18 10 -6
v -5 2 -7
v -5 4 -7
v -3 2 -7
v -3 4 -7
v 11 2 -7
v 11 4 -7
v 13 2 -7
v 13 4 -7
v -7 0 6
v 15 0 6
v -7 0 -3
v 15 0 -3
v -5 2 10
v -3 2 10
v 11 2 10
v 13 2 10
v -8 2 7
v -5 2 7
v -3 2 7
v 11 2 7
v 13 2 7
v 16 2 7
v -7 2 6
v 15 2 6
v -7 2 -3
v 15 2 -3
v -8 2 -4
v -5 2 -4
v -3 2 -4
v 11 2 -4
v 13 2 -4
v 16 2 -4
v -5 2 -7
v -3 2 -7
v 11 2 -7
v 13 2 -7
v -9 4 8
v -5 4 8
v -3 4 8
v 11 4 8
v 13 4 8
v 17 4 8
v -8 4 7
v -5 4 7
v -3 4 7
v 11 4 7
v 13 4 7
v 16 4 7
v -8 4 -4
v -5 4 -4
v -3 4 -4
v 11 4 -4
v 13 4 -4
v 16 4 -4
v -9 4 -5
v -5 4 -5
v -3 4 -5
v 11 4 -5
v 13 4 -5
v 17 4 -5
v -10 6 9
v 18 6 9
v -9 6 8
v 17 6 8
v -9 6 -5
v 17 6 -5
v -10 6 -6
v 18 6 -6
v -7 2 6
v 15 2 6
v -7 2 -3
v 15 2 -3
v -5 4 10
v -3 4 10
v 11 4 10
v 13 4 10
v -5 4 8
v -3 4 8
v 11 4 8
v 13 4 8
v -5 4 -5
v -3 4 -5
v 11 4 -5
v 13 4 -5
v -5 4 -7
v -3 4 -7
v 11 4 -7
v 13 4 -7
v -8 8 7
v 16 8 7
v -7 8 6
v 15 8 6
v -7 8 -3
v 15 8 -3
v -8 8 -4
v 16 8 -4
v -9 9 8
v 17 9 8
v -8 9 7
v 16 9 7
v -8 9 -4
v 16 9 -4
v -9 9 -5
v 17 9 -5
v -10 10 9
v 18 10 9
v -9 10 8
v 17 10 8
v -9 10 -5
v 17 10 -5
v -10 10 -6
v 18 10 -6

# faces
f 3/2/1 2/2/1 1/2/1
f 4/2/1 2/2/1 3/2/1
f 7/2/1 6/2/1 5/2/1
f 8/2/1 6/2/1 7/2/1
f 11/2/1 10/2/1 9/2/1
f 12/2/1 10/2/1 11/2/1
f 15/2/1 14/2/1 13/2/1
f 16/2/1 14/2/1 15/2/1
f 21/1/1 18/1/1 17/1/1
f 22/1/1 18/1/1 21/1/1
f 23/1/1 18/1/1 22/1/1
f 24/1/1 20/1/1 19/1/1
f 25/1/1 20/1/1 24/1/1
f 26/1/1 20/1/1 25/1/1
f 31/1/1 28/1/1 27/1/1
f 32/1/1 28/1/1 31/1/1
f 33/1/1 28/1/1 32/1/1
f 34/1/1 30/1/1 29/1/1
f 35/1/1 30/1/1 34/1/1
f 36/1/1 30/1/1 35/1/1
f 39/2/1 38/2/1 37/2/1
f 40/2/1 38/2/1 39/2/1
f 43/2/1 42/2/1 41/2/1
f 44/2/1 42/2/1 43/2/1
f 47/2/1 46/2/1 45/2/1
f 48/2/1 46/2/1 47/2/1
f 49/2/2 50/2/2 51/2/2
f 51/2/2 50/2/2 52/2/2
f 53/2/2 54/2/2 55/2/2
f 55/2/2 54/2/2 56/2/2
f 57/2/2 58/2/2 59/2/2
f 59/2/2 58/2/2 60/2/2
f 61/1/2 62/1/2 65/1/2
f 65/1/2 62/1/2 66/1/2
f 66/1/2 62/1/2 67/1/2
f 63/1/2 64/1/2 68/1/2
f 68/1/2 64/1/2 69/1/2
f 69/1/2 64/1/2 70/1/2
f 71/1/2 72/1/2 75/1/2
f 75/1/2 72/1/2 76/1/2
f 76/1/2 72/1/2 77/1/2
f 73/1/2 74/1/2 78/1/2
f 78/1/2 74/1/2 79/1/2
f 79/1/2 74/1/2 80/1/2
f 81/2/2 82/2/2 83/2/2
f 83/2/2 82/2/2 84/2/2
f 85/2/2 86/2/2 87/2/2
f 87/2/2 86/2/2 88/2/2
f 89/2/2 90/2/2 91/2/2
f 91/2/2 90/2/2 92/2/2
f 93/2/2 94/2/2 95/2/2
f 95/2/2 94/2/2 96/2/2
f 99/1/3 98/1/3 97/1/3
f 100/1/3 98/1/3 99/1/3
f 103/1/3 102/1/3 101/1/3
f 104/1/3 102/1/3 103/1/3
f 107/2/3 106/2/3 105/2/3
f 108/2/3 106/2/3 107/2/3
f 111/2/3 110/2/3 109/2/3
f 112/2/3 110/2/3 111/2/3
f 113/2/3 110/2/3 112/2/3
f 114/2/3 110/2/3 113/2/3
f 115/2/3 110/2/3 114/2/3
f 116/2/3 110/2/3 115/2/3
f 119/2/3 118/2/3 117/2/3
f 120/2/3 118/2/3 119/2/3
f 123/2/3 122/2/3 121/2/3
f 124/2/3 122/2/3 123/2/3
f 127/2/3 126/2/3 125/2/3
f 128/2/3 126/2/3 127/2/3
f 131/2/3 130/2/3 129/2/3
f 132/2/3 130/2/3 131/2/3
f 135/2/3 134/2/3 133/2/3
f 136/2/3 134/2/3 135/2/3
f 139/2/3 138/2/3 137/2/3
f 140/2/3 138/2/3 139/2/3
f 143/2/3 142/2/3 141/2/3
f 144/2/3 142/2/3 143/2/3
f 145/2/4 146/2/4 147/2/4
f 147/2/4 146/2/4 148/2/4
f 149/2/4 150/2/4 151/2/4
f 151/2/4 150/2/4 152/2/4
f 153/2/4 154/2/4 155/2/4
f 155/2/4 154/2/4 156/2/4
f 157/2/4 158/2/4 159/2/4
f 159/2/4 158/2/4 160/2/4
f 161/2/4 162/2/4 163/2/4
f 163/2/4 162/2/4 164/2/4
f 165/2/4 166/2/4 167/2/4
f 167/2/4 166/2/4 168/2/4
f 169/2/4 170/2/4 171/2/4
f 171/2/4 170/2/4 172/2/4
f 173/2/4 174/2/4 175/2/4
f 175/2/4 174/2/4 176/2/4
f 176/2/4 174/2/4 177/2/4
f 177/2/4 174/2/4 178/2/4
f 178/2/4 174/2/4 179/2/4
f 179/2/4 174/2/4 180/2/4
f 181/2/4 182/2/4 183/2/4
f 183/2/4 182/2/4 184/2/4
f 185/1/4 186/1/4 187/1/4
f 187/1/4 186/1/4 188/1/4
f 189/1/4 190/1/4 191/1/4
f 191/1/4 190/1/4 192/1/4
f 195/2/5 194/2/5 193/2/5
f 196/2/5 194/2/5 195/2/5
f 202/1/5 198/1/5 197/1/5
f 203/1/5 198/1/5 202/1/5
f 204/1/5 200/1/5 199/1/5
f 205/1/5 200/1/5 204/1/5
f 207/2/5 203/2/5 202/2/5
f 207/2/5 206/2/5 205/2/5
f 207/2/5 205/2/5 204/2/5
f 207/2/5 204/2/5 203/2/5
f 207/2/5 202/2/5 201/2/5
f 208/2/5 206/2/5 207/2/5
f 209/2/5 207/2/5 201/2/5
f 210/2/5 206/2/5 208/2/5
f 211/2/5 209/2/5 201/2/5
f 211/2/5 210/2/5 209/2/5
f 212/2/5 210/2/5 211/2/5
f 213/2/5 210/2/5 212/2/5
f 214/2/5 210/2/5 213/2/5
f 215/2/5 210/2/5 214/2/5
f 216/2/5 206/2/5 210/2/5
f 216/2/5 210/2/5 215/2/5
f 217/1/5 213/1/5 212/1/5
f 218/1/5 213/1/5 217/1/5
f 219/1/5 215/1/5 214/1/5
f 220/1/5 215/1/5 219/1/5
f 227/2/5 222/2/5 221/2/5
f 228/2/5 222/2/5 227/2/5
f 229/2/5 224/2/5 223/2/5
f 230/2/5 224/2/5 229/2/5
f 231/2/5 226/2/5 225/2/5
f 232/2/5 226/2/5 231/2/5
f 233/2/5 227/2/5 221/2/5
f 238/2/5 226/2/5 232/2/5
f 239/2/5 233/2/5 221/2/5
f 239/2/5 234/2/5 233/2/5
f 240/2/5 234/2/5 239/2/5
f 241/2/5 236/2/5 235/2/5
f 242/2/5 236/2/5 241/2/5
f 243/2/5 238/2/5 237/2/5
f 244/2/5 226/2/5 238/2/5
f 244/2/5 238/2/5 243/2/5
f 247/2/5 246/2/5 245/2/5
f 248/2/5 246/2/5 247/2/5
f 249/2/5 247/2/5 245/2/5
f 250/2/5 246/2/5 248/2/5
f 251/2/5 249/2/5 245/2/5
f 251/2/5 250/2/5 249/2/5
f 252/2/5 246/2/5 250/2/5
f 252/2/5 250/2/5 251/2/5
f 253/2/6 254/2/6 255/2/6
f 255/2/6 254/2/6 256/2/6
f 257/1/6 258/1/6 261/1/6
f 261/1/6 258/1/6 262/1/6
f 259/1/6 260/1/6 263/1/6
f 263/1/6 260/1/6 264/1/6
f 265/1/6 266/1/6 269/1/6
f 269/1/6 266/1/6 270/1/6
f 267/1/6 268/1/6 271/1/6
f 271/1/6 268/1/6 272/1/6
f 273/2/6 274/2/6 275/2/6
f 275/2/6 274/2/6 276/2/6
f 273/2/6 275/2/6 277/2/6
f 276/2/6 274/2/6 278/2/6
f 273/2/6 277/2/6 279/2/6
f 277/2/6 278/2/6 279/2/6
f 278/2/6 274/2/6 280/2/6
f 279/2/6 278/2/6 280/2/6
f 281/2/6 282/2/6 283/2/6
f 283/2/6 282/2/6 284/2/6
f 281/2/6 283/2/6 285/2/6
f 284/2/6 282/2/6 286/2/6
f 281/2/6 285/2/6 287/2/6
f 285/2/6 286/2/6 287/2/6
f 286/2/6 282/2/6 288/2/6
f 287/2/6 286/2/6 288/2/6
f 289/2/6 290/2/6 291/2/6
f 291/2/6 290/2/6 292/2/6
f 289/2/6 291/2/6 293/2/6
f 292/2/6 290/2/6 294/2/6
f 289/2/6 293/2/6 295/2/6
f 293/2/6 294/2/6 295/2/6
f 294/2/6 290/2/6 296/2/6
f 295/2/6 294/2/6 296/2/6
