# MagicaVoxel @ Ephtracy

# group
g carrinho1

# material
mtllib carrinho1.mtl
usemtl palette

# normals
vn -1 0 0
vn 1 0 0
vn 0 0 1
vn 0 0 -1
vn 0 -1 0
vn 0 1 0

# texcoords
vt 0.537109 0.5
vt 0.978516 0.5

# verts
v -17 7 6
v -17 7 4
v -17 7 -1
v -17 7 -3
v -17 9 6
v -17 9 4
v -17 9 -1
v -17 9 -3
v -10 6 11
v -10 6 -8
v -10 7 6
v -10 7 4
v -10 7 -1
v -10 7 -3
v -10 9 6
v -10 9 4
v -10 9 -1
v -10 9 -3
v -10 10 11
v -10 10 -8
v -9 4 10
v -9 4 -7
v -9 6 10
v -9 6 -7
v -8 2 9
v -8 2 -6
v -8 4 9
v -8 4 -6
v -7 0 8
v -7 0 -5
v -7 2 8
v -7 2 -5
v -5 2 12
v -5 2 9
v -5 2 -6
v -5 2 -9
v -5 4 12
v -5 4 10
v -5 4 9
v -5 4 -6
v -5 4 -7
v -5 4 -9
v 11 2 12
v 11 2 9
v 11 2 -6
v 11 2 -9
v 11 4 12
v 11 4 10
v 11 4 9
v 11 4 -6
v 11 4 -7
v 11 4 -9
v 15 2 8
v 15 2 -5
v 15 8 8
v 15 8 -5
v 16 8 9
v 16 8 -6
v 16 9 9
v 16 9 -6
v 17 9 10
v 17 9 -7
v 17 10 10
v 17 10 -7
v -9 9 10
v -9 9 -7
v -9 10 10
v -9 10 -7
v -8 8 9
v -8 8 -6
v -8 9 9
v -8 9 -6
v -7 2 8
v -7 2 -5
v -7 8 8
v -7 8 -5
v -3 2 12
v -3 2 9
v -3 2 -6
v -3 2 -9
v -3 4 12
v -3 4 10
v -3 4 9
v -3 4 -6
v -3 4 -7
v -3 4 -9
v 13 2 12
v 13 2 9
v 13 2 -6
v 13 2 -9
v 13 4 12
v 13 4 10
v 13 4 9
v 13 4 -6
v 13 4 -7
v 13 4 -9
v 15 0 8
v 15 0 -5
v 15 2 8
v 15 2 -5
v 16 2 9
v 16 2 -6
v 16 4 9
v 16 4 -6
v 17 4 10
v 17 4 -7
v 17 6 10
v 17 6 -7
v 18 6 11
v 18 6 -8
v 18 10 11
v 18 10 -8
v -5 2 12
v -5 4 12
v -3 2 12
v -3 4 12
v 11 2 12
v 11 4 12
v 13 2 12
v 13 4 12
v -10 6 11
v -10 10 11
v 18 6 11
v 18 10 11
v -9 4 10
v -9 6 10
v -5 4 10
v -3 4 10
v 11 4 10
v 13 4 10
v 17 4 10
v 17 6 10
v -8 2 9
v -8 4 9
v -5 2 9
v -5 4 9
v -3 2 9
v -3 4 9
v 11 2 9
v 11 4 9
v 13 2 9
v 13 4 9
v 16 2 9
v 16 4 9
v -7 0 8
v -7 2 8
v 15 0 8
v 15 2 8
v -17 7 6
v -17 9 6
v -10 7 6
v -10 9 6
v -17 7 -1
v -17 9 -1
v -10 7 -1
v -10 9 -1
v -7 2 -5
v -7 8 -5
v 15 2 -5
v 15 8 -5
v -8 8 -6
v -8 9 -6
v 16 8 -6
v 16 9 -6
v -9 9 -7
v -9 10 -7
v 17 9 -7
v 17 10 -7
v -9 9 10
v -9 10 10
v 17 9 10
v 17 10 10
v -8 8 9
v -8 9 9
v 16 8 9
v 16 9 9
v -7 2 8
v -7 8 8
v 15 2 8
v 15 8 8
v -17 7 4
v -17 9 4
v -10 7 4
v -10 9 4
v -17 7 -3
v -17 9 -3
v -10 7 -3
v -10 9 -3
v -7 0 -5
v -7 2 -5
v 15 0 -5
v 15 2 -5
v -8 2 -6
v -8 4 -6
v -5 2 -6
v -5 4 -6
v -3 2 -6
v -3 4 -6
v 11 2 -6
v 11 4 -6
v 13 2 -6
v 13 4 -6
v 16 2 -6
v 16 4 -6
v -9 4 -7
v -9 6 -7
v -5 4 -7
v -3 4 -7
v 11 4 -7
v 13 4 -7
v 17 4 -7
v 17 6 -7
v -10 6 -8
v -10 10 -8
v 18 6 -8
v 18 10 -8
v -5 2 -9
v -5 4 -9
v -3 2 -9
v -3 4 -9
v 11 2 -9
v 11 4 -9
v 13 2 -9
v 13 4 -9
v -7 0 8
v 15 0 8
v -7 0 -5
v 15 0 -5
v -5 2 12
v -3 2 12
v 11 2 12
v 13 2 12
v -8 2 9
v -5 2 9
v -3 2 9
v 11 2 9
v 13 2 9
v 16 2 9
v -7 2 8
v 15 2 8
v -7 2 -5
v 15 2 -5
v -8 2 -6
v -5 2 -6
v -3 2 -6
v 11 2 -6
v 13 2 -6
v 16 2 -6
v -5 2 -9
v -3 2 -9
v 11 2 -9
v 13 2 -9
v -9 4 10
v -5 4 10
v -3 4 10
v 11 4 10
v 13 4 10
v 17 4 10
v -8 4 9
v -5 4 9
v -3 4 9
v 11 4 9
v 13 4 9
v 16 4 9
v -8 4 -6
v -5 4 -6
v -3 4 -6
v 11 4 -6
v 13 4 -6
v 16 4 -6
v -9 4 -7
v -5 4 -7
v -3 4 -7
v 11 4 -7
v 13 4 -7
v 17 4 -7
v -10 6 11
v 18 6 11
v -9 6 10
v 17 6 10
v -9 6 -7
v 17 6 -7
v -10 6 -8
v 18 6 -8
v -17 7 6
v -10 7 6
v -17 7 4
v -10 7 4
v -17 7 -1
v -10 7 -1
v -17 7 -3
v -10 7 -3
v -7 2 8
v 15 2 8
v -7 2 -5
v 15 2 -5
v -5 4 12
v -3 4 12
v 11 4 12
v 13 4 12
v -5 4 10
v -3 4 10
v 11 4 10
v 13 4 10
v -5 4 -7
v -3 4 -7
v 11 4 -7
v 13 4 -7
v -5 4 -9
v -3 4 -9
v 11 4 -9
v 13 4 -9
v -8 8 9
v 16 8 9
v -7 8 8
v 15 8 8
v -7 8 -5
v 15 8 -5
v -8 8 -6
v 16 8 -6
v -9 9 10
v 17 9 10
v -8 9 9
v 16 9 9
v -17 9 6
v -10 9 6
v -17 9 4
v -10 9 4
v -17 9 -1
v -10 9 -1
v -17 9 -3
v -10 9 -3
v -8 9 -6
v 16 9 -6
v -9 9 -7
v 17 9 -7
v -10 10 11
v 18 10 11
v -9 10 10
v 17 10 10
v -9 10 -7
v 17 10 -7
v -10 10 -8
v 18 10 -8

# faces
f 5/1/1 2/1/1 1/1/1
f 6/1/1 2/1/1 5/1/1
f 7/1/1 4/1/1 3/1/1
f 8/1/1 4/1/1 7/1/1
f 11/2/1 10/2/1 9/2/1
f 12/2/1 10/2/1 11/2/1
f 13/2/1 10/2/1 12/2/1
f 14/2/1 10/2/1 13/2/1
f 15/2/1 11/2/1 9/2/1
f 16/2/1 13/2/1 12/2/1
f 17/2/1 13/2/1 16/2/1
f 18/2/1 10/2/1 14/2/1
f 19/2/1 17/2/1 16/2/1
f 19/2/1 18/2/1 17/2/1
f 19/2/1 15/2/1 9/2/1
f 19/2/1 16/2/1 15/2/1
f 20/2/1 10/2/1 18/2/1
f 20/2/1 18/2/1 19/2/1
f 23/2/1 22/2/1 21/2/1
f 24/2/1 22/2/1 23/2/1
f 27/2/1 26/2/1 25/2/1
f 28/2/1 26/2/1 27/2/1
f 31/2/1 30/2/1 29/2/1
f 32/2/1 30/2/1 31/2/1
f 37/1/1 34/1/1 33/1/1
f 38/1/1 34/1/1 37/1/1
f 39/1/1 34/1/1 38/1/1
f 40/1/1 36/1/1 35/1/1
f 41/1/1 36/1/1 40/1/1
f 42/1/1 36/1/1 41/1/1
f 47/1/1 44/1/1 43/1/1
f 48/1/1 44/1/1 47/1/1
f 49/1/1 44/1/1 48/1/1
f 50/1/1 46/1/1 45/1/1
f 51/1/1 46/1/1 50/1/1
f 52/1/1 46/1/1 51/1/1
f 55/2/1 54/2/1 53/2/1
f 56/2/1 54/2/1 55/2/1
f 59/2/1 58/2/1 57/2/1
f 60/2/1 58/2/1 59/2/1
f 63/2/1 62/2/1 61/2/1
f 64/2/1 62/2/1 63/2/1
f 65/2/2 66/2/2 67/2/2
f 67/2/2 66/2/2 68/2/2
f 69/2/2 70/2/2 71/2/2
f 71/2/2 70/2/2 72/2/2
f 73/2/2 74/2/2 75/2/2
f 75/2/2 74/2/2 76/2/2
f 77/1/2 78/1/2 81/1/2
f 81/1/2 78/1/2 82/1/2
f 82/1/2 78/1/2 83/1/2
f 79/1/2 80/1/2 84/1/2
f 84/1/2 80/1/2 85/1/2
f 85/1/2 80/1/2 86/1/2
f 87/1/2 88/1/2 91/1/2
f 91/1/2 88/1/2 92/1/2
f 92/1/2 88/1/2 93/1/2
f 89/1/2 90/1/2 94/1/2
f 94/1/2 90/1/2 95/1/2
f 95/1/2 90/1/2 96/1/2
f 97/2/2 98/2/2 99/2/2
f 99/2/2 98/2/2 100/2/2
f 101/2/2 102/2/2 103/2/2
f 103/2/2 102/2/2 104/2/2
f 105/2/2 106/2/2 107/2/2
f 107/2/2 106/2/2 108/2/2
f 109/2/2 110/2/2 111/2/2
f 111/2/2 110/2/2 112/2/2
f 115/1/3 114/1/3 113/1/3
f 116/1/3 114/1/3 115/1/3
f 119/1/3 118/1/3 117/1/3
f 120/1/3 118/1/3 119/1/3
f 123/2/3 122/2/3 121/2/3
f 124/2/3 122/2/3 123/2/3
f 127/2/3 126/2/3 125/2/3
f 128/2/3 126/2/3 127/2/3
f 129/2/3 126/2/3 128/2/3
f 130/2/3 126/2/3 129/2/3
f 131/2/3 126/2/3 130/2/3
f 132/2/3 126/2/3 131/2/3
f 135/2/3 134/2/3 133/2/3
f 136/2/3 134/2/3 135/2/3
f 139/2/3 138/2/3 137/2/3
f 140/2/3 138/2/3 139/2/3
f 143/2/3 142/2/3 141/2/3
f 144/2/3 142/2/3 143/2/3
f 147/2/3 146/2/3 145/2/3
f 148/2/3 146/2/3 147/2/3
f 151/1/3 150/1/3 149/1/3
f 152/1/3 150/1/3 151/1/3
f 155/1/3 154/1/3 153/1/3
f 156/1/3 154/1/3 155/1/3
f 159/2/3 158/2/3 157/2/3
f 160/2/3 158/2/3 159/2/3
f 163/2/3 162/2/3 161/2/3
f 164/2/3 162/2/3 163/2/3
f 167/2/3 166/2/3 165/2/3
f 168/2/3 166/2/3 167/2/3
f 169/2/4 170/2/4 171/2/4
f 171/2/4 170/2/4 172/2/4
f 173/2/4 174/2/4 175/2/4
f 175/2/4 174/2/4 176/2/4
f 177/2/4 178/2/4 179/2/4
f 179/2/4 178/2/4 180/2/4
f 181/1/4 182/1/4 183/1/4
f 183/1/4 182/1/4 184/1/4
f 185/1/4 186/1/4 187/1/4
f 187/1/4 186/1/4 188/1/4
f 189/2/4 190/2/4 191/2/4
f 191/2/4 190/2/4 192/2/4
f 193/2/4 194/2/4 195/2/4
f 195/2/4 194/2/4 196/2/4
f 197/2/4 198/2/4 199/2/4
f 199/2/4 198/2/4 200/2/4
f 201/2/4 202/2/4 203/2/4
f 203/2/4 202/2/4 204/2/4
f 205/2/4 206/2/4 207/2/4
f 207/2/4 206/2/4 208/2/4
f 208/2/4 206/2/4 209/2/4
f 209/2/4 206/2/4 210/2/4
f 210/2/4 206/2/4 211/2/4
f 211/2/4 206/2/4 212/2/4
f 213/2/4 214/2/4 215/2/4
f 215/2/4 214/2/4 216/2/4
f 217/1/4 218/1/4 219/1/4
f 219/1/4 218/1/4 220/1/4
f 221/1/4 222/1/4 223/1/4
f 223/1/4 222/1/4 224/1/4
f 227/2/5 226/2/5 225/2/5
f 228/2/5 226/2/5 227/2/5
f 234/1/5 230/1/5 229/1/5
f 235/1/5 230/1/5 234/1/5
f 236/1/5 232/1/5 231/1/5
f 237/1/5 232/1/5 236/1/5
f 239/2/5 235/2/5 234/2/5
f 239/2/5 238/2/5 237/2/5
f 239/2/5 237/2/5 236/2/5
f 239/2/5 236/2/5 235/2/5
f 239/2/5 234/2/5 233/2/5
f 240/2/5 238/2/5 239/2/5
f 241/2/5 239/2/5 233/2/5
f 242/2/5 238/2/5 240/2/5
f 243/2/5 241/2/5 233/2/5
f 243/2/5 242/2/5 241/2/5
f 244/2/5 242/2/5 243/2/5
f 245/2/5 242/2/5 244/2/5
f 246/2/5 242/2/5 245/2/5
f 247/2/5 242/2/5 246/2/5
f 248/2/5 238/2/5 242/2/5
f 248/2/5 242/2/5 247/2/5
f 249/1/5 245/1/5 244/1/5
f 250/1/5 245/1/5 249/1/5
f 251/1/5 247/1/5 246/1/5
f 252/1/5 247/1/5 251/1/5
f 259/2/5 254/2/5 253/2/5
f 260/2/5 254/2/5 259/2/5
f 261/2/5 256/2/5 255/2/5
f 262/2/5 256/2/5 261/2/5
f 263/2/5 258/2/5 257/2/5
f 264/2/5 258/2/5 263/2/5
f 265/2/5 259/2/5 253/2/5
f 270/2/5 258/2/5 264/2/5
f 271/2/5 265/2/5 253/2/5
f 271/2/5 266/2/5 265/2/5
f 272/2/5 266/2/5 271/2/5
f 273/2/5 268/2/5 267/2/5
f 274/2/5 268/2/5 273/2/5
f 275/2/5 270/2/5 269/2/5
f 276/2/5 258/2/5 270/2/5
f 276/2/5 270/2/5 275/2/5
f 279/2/5 278/2/5 277/2/5
f 280/2/5 278/2/5 279/2/5
f 281/2/5 279/2/5 277/2/5
f 282/2/5 278/2/5 280/2/5
f 283/2/5 281/2/5 277/2/5
f 283/2/5 282/2/5 281/2/5
f 284/2/5 278/2/5 282/2/5
f 284/2/5 282/2/5 283/2/5
f 287/1/5 286/1/5 285/1/5
f 288/1/5 286/1/5 287/1/5
f 291/1/5 290/1/5 289/1/5
f 292/1/5 290/1/5 291/1/5
f 293/2/6 294/2/6 295/2/6
f 295/2/6 294/2/6 296/2/6
f 297/1/6 298/1/6 301/1/6
f 301/1/6 298/1/6 302/1/6
f 299/1/6 300/1/6 303/1/6
f 303/1/6 300/1/6 304/1/6
f 305/1/6 306/1/6 309/1/6
f 309/1/6 306/1/6 310/1/6
f 307/1/6 308/1/6 311/1/6
f 311/1/6 308/1/6 312/1/6
f 313/2/6 314/2/6 315/2/6
f 315/2/6 314/2/6 316/2/6
f 313/2/6 315/2/6 317/2/6
f 316/2/6 314/2/6 318/2/6
f 313/2/6 317/2/6 319/2/6
f 317/2/6 318/2/6 319/2/6
f 318/2/6 314/2/6 320/2/6
f 319/2/6 318/2/6 320/2/6
f 321/2/6 322/2/6 323/2/6
f 323/2/6 322/2/6 324/2/6
f 325/1/6 326/1/6 327/1/6
f 327/1/6 326/1/6 328/1/6
f 329/1/6 330/1/6 331/1/6
f 331/1/6 330/1/6 332/1/6
f 321/2/6 323/2/6 333/2/6
f 324/2/6 322/2/6 334/2/6
f 321/2/6 333/2/6 335/2/6
f 333/2/6 334/2/6 335/2/6
f 334/2/6 322/2/6 336/2/6
f 335/2/6 334/2/6 336/2/6
f 337/2/6 338/2/6 339/2/6
f 339/2/6 338/2/6 340/2/6
f 337/2/6 339/2/6 341/2/6
f 340/2/6 338/2/6 342/2/6
f 337/2/6 341/2/6 343/2/6
f 341/2/6 342/2/6 343/2/6
f 342/2/6 338/2/6 344/2/6
f 343/2/6 342/2/6 344/2/6
